<?xml version="1.0" encoding="utf-8"?>
<!-- Generator: Adobe Illustrator 23.0.3, SVG Export Plug-In . SVG Version: 6.00 Build 0)  -->
<svg version="1.1" id="Layer_1" xmlns="http://www.w3.org/2000/svg" xmlns:xlink="http://www.w3.org/1999/xlink" x="0px" y="0px"
	 viewBox="0 0 1200 1200" enable-background="new 0 0 1200 1200" xml:space="preserve">
<g>
	<g>
		<path fill="#40426B" d="M1057.049,1034.811c-1.655,13.056-12.431,23.538-24.567,28.613c-12.173,5.112-25.634,5.811-38.8,6.436
			c-52.812,2.538-106.213,5.038-158.217-4.524c-52.003-9.525-103.308-32.364-137.401-72.819
			c-15.483-18.389-27.362-41.117-27.399-65.17c0-18.242,12.762-55.497,36.336-52.335c23.721,3.236,40.455,39.536,49.061,57.961
			c5.222,11.18,11.217,22.949,18.756,32.953c8.679,11.658,19.455,20.89,33.541,23.942c18.573,4.045,37.329-4.156,55.497-9.893
			c33.394-10.555,69.326-12.799,103.86-6.914c17.69,2.942,34.975,8.091,51.415,15.299
			C1038.808,997.004,1059.807,1013.481,1057.049,1034.811z"/>
		<path fill="#40426B" d="M918.259,964.699c-1.511,7.619-3.174,15.57-8.131,21.614c-4.957,6.044-14.313,9.37-20.985,5.213
			c-5.448-3.395-9.1-11.235-15.473-10.249c-6.836,1.057-7.246,10.536-11.137,16.158c-5.068,7.322-16.829,7.234-24.148,2.068
			s-11.191-13.74-14.414-22.009c-9.584-24.593-16.361-50.24-20.166-76.307c-3.533-24.205-3.948-50.807,10.271-70.877
			c15.111-21.33,47.219-11.162,70.587-23.494c20.451-10.792,49.825-65.64,51.51-41.114
			C938.392,797.99,924.574,932.848,918.259,964.699z"/>
		<path fill="#171C2E" d="M996.44,1015.466c-4.744,8.238-15.042,11.181-24.383,12.909c-18.83,3.457-37.991,4.781-57.079,6.105
			c-34.129,2.39-68.884,4.707-102.058-3.531c-12.247-3.053-24.383-7.687-33.835-15.998c-7.981-7.025-18.941-23.648-16.66-35.012
			c1.434-7.098,6.289-11.401,12.394-14.012c8.679,11.658,19.455,20.89,33.541,23.942c18.573,4.045,37.329-4.156,55.497-9.893
			c33.394-10.555,69.326-12.799,103.86-6.914c2.133,0.846,4.229,1.802,6.289,2.832c7.686,3.751,15.189,8.422,20.117,15.41
			C999.014,998.328,1000.743,1008.074,996.44,1015.466z"/>
		<path fill="#40426B" d="M529.329,927.348c0,24.052-11.879,46.781-27.399,65.17c-34.093,40.455-85.36,63.294-137.401,72.819
			c-52.003,9.562-105.367,7.062-158.18,4.524c-13.166-0.625-26.664-1.324-38.8-6.436c-12.173-5.075-22.912-15.557-24.604-28.613
			c-2.722-21.331,18.279-37.807,37.954-46.45c14.711-6.473,30.121-11.254,45.862-14.306c36.189-7.098,74.18-5.186,109.413,5.921
			c18.131,5.737,36.888,13.939,55.497,9.893c22.324-4.891,36.41-25.303,47.075-46.266c1.839-3.567,3.531-7.135,5.186-10.629
			c8.606-18.426,25.34-54.725,49.098-57.961C516.567,871.85,529.366,909.106,529.329,927.348z"/>
		<path fill="#40426B" d="M288.28,964.699c1.511,7.619,3.174,15.57,8.131,21.614c4.957,6.044,14.313,9.37,20.985,5.213
			c5.448-3.395,9.1-11.235,15.473-10.249c6.836,1.057,7.246,10.536,11.137,16.158c5.068,7.322,16.829,7.234,24.148,2.068
			c7.32-5.166,11.191-13.74,14.414-22.009c9.584-24.593,16.361-50.24,20.166-76.307c3.533-24.205,3.948-50.807-10.271-70.877
			c-15.111-21.33-47.219-11.162-70.587-23.494c-20.451-10.792-49.825-65.64-51.51-41.114
			C268.147,797.99,281.965,932.848,288.28,964.699z"/>
		<path fill="#171C2E" d="M446.433,958.094c-0.368,5.075-2.574,9.82-5.149,14.196c-17.58,30.121-51.562,47.369-85.655,54.615
			c-34.093,7.282-69.362,6.142-104.154,8.569c-8.606,0.589-17.322,1.398-25.818-0.073c-8.496-1.434-16.954-5.48-21.735-12.688
			c-8.312-12.578-2.243-30.562,9.268-40.308c4.082-3.457,8.716-6.105,13.571-8.348c36.189-7.098,74.18-5.186,109.413,5.921
			c18.131,5.737,36.888,13.939,55.497,9.893c22.324-4.891,36.41-25.303,47.075-46.266c0.699,0.294,1.361,0.662,1.986,1.103
			C444.925,947.575,446.763,953.055,446.433,958.094z"/>
		<path fill="#40426B" d="M318.86,118.801c-1.441-8.01-2.854-16.408-0.026-24.403s11.386-15.288,20.092-14.189
			c7.108,0.897,14.093,6.867,20.432,3.135c6.8-4.004,3.455-13.328,5.325-20.451c2.436-9.276,14.895-14.325,24.687-12.536
			c9.792,1.789,17.3,8.371,24.001,14.943c19.928,19.544,37.312,41.33,51.722,64.819c13.381,21.812,54.712,78.07,47.691,103.64
			c-7.461,27.172-104.835,69.303-134.497,74.133c-23.345,3.801-31.895-49.615-36.192-63.946
			C329.72,202.67,326.46,160.948,318.86,118.801z"/>
		<path fill="#40426B" d="M915.381,132.886c1.441-8.01,2.854-16.408,0.026-24.403s-11.386-15.288-20.092-14.189
			c-7.109,0.897-14.093,6.867-20.432,3.135c-6.8-4.004-3.455-13.328-5.325-20.451c-2.436-9.276-14.895-14.325-24.687-12.536
			s-17.3,8.371-24.001,14.943c-19.928,19.544-37.312,41.33-51.722,64.819c-13.381,21.812-65.099,82.139-58.078,107.709
			c7.461,27.172,115.221,65.234,144.883,70.064c23.345,3.801,31.895-49.615,36.192-63.946
			C904.521,216.755,907.781,175.033,915.381,132.886z"/>
		<path fill="#FCDEAA" d="M1019.647,757.546c-26.774,30.967-60.683,47.333-102.094,47.002c-18.499-0.147-18.499,0-23.39,17.874
			c-11.695,42.809-57.483,79.035-102.205,80.432c-7.429,0.257-13.718,0.405-20.081,6.105c-25.818,23.28-55.019,23.685-85.581,10.261
			c-15.888-10.592-28.135-7.135-42.735,5.517c-19.786,17.175-45.273,18.426-70.429,13.424
			c-26.884-5.333-50.532-17.727-69.178-37.844c-9.599-10.298-17.653-12.909-32.585-9.893c-62.411,12.615-115.886-5.7-159.026-52.923
			c-8.826-9.636-14.307-21.221-14.454-34.35c-0.11-8.569-3.678-13.203-10.739-17.285c-41.706-24.089-65.28-82.639-52.739-136.812
			c2.906-12.578,8.385-23.869,15.998-34.24c2.942-4.009,4.744-7.797-1.361-11.438c-46.818-27.951-55.387-72.488-50.68-121.586
			c2.869-30.084,14.49-56.895,38.947-76.424c5.7-4.561,9.047-8.606,6.62-16.734c-16.366-54.357,36.52-122.8,91.907-128.316
			c10.813-1.104,14.858-5.259,16.182-15.447c7.503-57.667,80.947-110.958,152.884-86.648c11.328,3.825,17.69,2.611,25.524-6.399
			c31.371-36.116,92.9-31.813,127.508-9.268c3.678,2.391,5.921,6.951,8.826,10.518c15.152,1.508,19.566,14.858,26.406,24.898
			c9.305,13.755,8.753,14.122,24.273,9.305c66.126-20.522,146.816,18.242,172.119,82.749c3.163,8.128,5.848,16.513,5.333,25.34
			c-0.552,9.231,2.427,13.681,12.063,17.065c47.995,16.844,74.806,51.488,81.904,101.726c2.427,17.175-0.037,33.835-8.79,48.399
			c-6.179,10.261-4.855,15.447,3.935,23.207c30.121,26.48,39.205,61.014,34.755,99.814c-1.545,13.46-6.51,25.928-13.681,37.403
			c-3.862,6.179-3.751,10.666,3.236,14.711C1049.547,661.63,1055.836,715.656,1019.647,757.546z"/>
		<path fill="#FFC08C" d="M666.758,153.056c-0.932,7.863-6.314,9.793-12.942,8.964c-12.755-1.596-23.404,3.723-34.173,9.283
			c-21.41,11.053-41.896,23.042-58.469,41.266c-11.113,12.219-19.394,25.683-23.038,41.406
			c-3.498,15.093-11.883,25.311-25.618,31.023c-17.216,7.159-34.578,14.104-52.271,19.947c-21.674,7.158-38.113,20.246-44.62,41.98
			c-8.963,29.938-26.88,52.626-49.387,73.408c-36.427,33.635-48.93,76.914-44.774,125.298c1.28,14.899,9.308,27.66,19.002,38.935
			c19.871,23.11,21.477,37.844,8.528,65.618c-13.625,29.223-17.285,58.62,2.72,86.96c5.024,7.118,6.7,15.646,11.367,23.157
			c20.212,32.529,53.056,42.914,86.917,51.449c10.817,2.727,21.92,5.918,33.513,4.429c6.621-0.85,11.127,3.199,15.74,7.329
			c12.043,10.783,20.916,24.127,30.609,36.825c23.956,31.382,47.488,42.885,90.754,32.976c6.49-1.486,12.887-3.499,19.442-4.56
			c22.558-3.652,40.483,8.294,46.242,30.473c-15.891-10.587-28.157-7.142-42.727,5.512c-19.788,17.185-45.287,18.424-70.427,13.439
			c-26.896-5.333-50.536-17.756-69.203-37.838c-9.593-10.32-17.639-12.937-32.571-9.919
			c-62.407,12.613-115.899-5.693-159.031-52.899c-8.814-9.647-14.312-21.238-14.47-34.356c-0.104-8.563-3.654-13.22-10.731-17.308
			c-41.709-24.092-65.276-82.611-52.737-136.805c2.907-12.565,8.384-23.856,15.993-34.224c2.946-4.015,4.755-7.791-1.341-11.43
			c-46.841-27.962-55.39-72.49-50.686-121.6c2.881-30.078,14.475-56.906,38.934-76.434c5.727-4.572,9.075-8.586,6.628-16.71
			c-16.378-54.376,36.512-122.808,91.895-128.344c10.816-1.081,14.882-5.246,16.204-15.425
			c7.493-57.691,80.937-110.981,152.885-86.657c11.312,3.824,17.672,2.611,25.513-6.415c31.361-36.098,92.914-31.801,127.513-9.269
			C661.609,144.928,663.854,149.498,666.758,153.056z"/>
		<path fill="#5DF9E6" d="M850.593,196.037c0,0,0.067-0.166,0.065-0.159c-0.002,0.008,1.15,0.273,1.15,0.273L850.593,196.037z"/>
		<path fill="#40426B" d="M477.612,768.51c21.386-41.249,55.405-81.931,103.753-90.44c1.699-0.284,3.397-0.567,5.096-0.729
			c41.031-5.186,82.236,14.222,113.336,40.074c60.501,50.285,93.953,127.515,87.811,202.801
			c-5.619,69.208-44.603,135.377-103.71,177.598c-9.626,6.888-21.212,11.021-33.321,11.589c-35.369,1.58-56.93-1.094-79.057-10.738
			c-13.111-5.713-26.439-13.898-42.904-25.082c-48.566-32.902-77.88-87.077-84.675-142.63
			C437.19,875.442,451.521,818.835,477.612,768.51z"/>
		<path fill="#171C2E" d="M571.521,1098.665c0.566-1.053,1.306-2.147,2.134-3.161c7.274-8.995,19.253-8.914,29.662-13.169
			c31.274-12.764,57.496-40.236,74.832-66.898c22.04-33.956,33.539-73.138,38.331-112.523c5.924-48.178,1.786-98.625-21.3-142.102
			c-21.561-40.56-61.503-74.07-108.719-83.471c41.031-5.186,82.236,14.222,113.336,40.074
			c60.501,50.285,93.953,127.515,87.811,202.801c-5.619,69.208-44.603,135.377-103.71,177.598
			c-9.626,6.888-21.212,11.021-33.321,11.589C615.209,1110.983,593.648,1108.308,571.521,1098.665z"/>
		<circle fill="#FFFFFF" cx="713.441" cy="936.322" r="81.934"/>
		<circle fill="#FFFFFF" cx="495.417" cy="936.322" r="81.934"/>
		<path fill="#FCDEAA" d="M794.642,1073.428c-8.312,9.121-18.977,15.336-31.003,14.858c-12.615-0.515-18.426,5.222-23.427,15.336
			c-3.862,7.76-8.679,15.447-18.095,18.094c-11.254,13.571-26.7,14.895-42.073,12.284c-10.886-1.876-18.94-0.368-28.466,5.664
			c-26.995,17.175-68.994,12.431-96.798-10.408c-8.128-6.693-14.38-9.746-25.229-6.179c-24.678,8.091-43.214,1.949-57.63-19.124
			c-5.664-8.275-11.217-11.622-21.037-12.504c-27.326-2.391-44.979-18.279-45.383-39.094c-0.441-20.853,19.492-39.131,46.193-41.816
			c13.497-1.324,26.884,0.515,37.771,8.863c7.686,5.921,13.46,4.965,21.809,1.581c26.848-10.923,51.305-4.229,68.664,17.175
			c22.214-11.033,45.089-12.394,68.369-4.083c6.767,2.427,10.886-0.221,15.594-4.413c21.735-19.308,45.714-29.569,74.768-17.359
			c5.406,2.28,10.04-0.074,14.932-1.361c9.672-2.538,18.83-1.398,27.988,2.611C806.999,1024.661,813.288,1052.906,794.642,1073.428z
			"/>
		<path fill="#40426B" d="M675.024,963.069c-7.259-0.509-11.157-3.528-13.488-8.839c-4.153-9.459-0.087-24.135,8.449-30.166
			c3.538-2.5,7.212-2.621,11.189-0.925c6.806,2.902,10.639,8.338,10.754,15.287c0.146,8.947-3.926,16.607-10.943,22.273
			C679.079,962.238,676.235,962.613,675.024,963.069z"/>
		<path fill="#40426B" d="M556.334,943.64c0,2.129,0.049,2.787-0.008,3.437c-0.633,7.281-5.21,14.096-10.385,15.49
			c-5.241,1.413-12.525-2.037-16.601-8.2c-4.109-6.212-6.424-12.754-4.037-20.453c3.15-10.16,12.971-13.758,21.676-7.51
			C553.345,930.972,555.621,937.692,556.334,943.64z"/>
		<path fill="#FFC08C" d="M579.929,1038.177c-12.459,7.223-26.019,5.246-38.259,1.528c-12.737-3.869-23.653,0.618-34.107,4.34
			c-15.715,5.595-16.139,29.846-1.513,39.972c10.56,7.312,23.301,8.815,35.489,10.597c9.972,1.458,18.057,5.118,25.555,11.53
			c22.969,19.644,49.166,24.025,78.112,16.553c11.092-2.863,21.689-5.021,33.832,0.957c13.482,6.637,28.777,1.74,43.063-1.93
			c-11.225,13.575-26.695,14.882-42.043,12.261c-10.913-1.864-18.964-0.371-28.495,5.685
			c-26.991,17.151-68.987,12.438-96.776-10.426c-8.132-6.691-14.377-9.725-25.249-6.156c-24.652,8.092-43.212,1.939-57.612-19.14
			c-5.654-8.275-11.233-11.623-21.029-12.483c-27.354-2.402-44.975-18.28-45.411-39.106c-0.436-20.865,19.521-39.122,46.218-41.803
			c13.494-1.355,26.884,0.485,37.758,8.844c7.684,5.907,13.447,4.979,21.825,1.575
			C538.136,1010.065,562.568,1016.746,579.929,1038.177z"/>
		<g>
			<g>
				<g>
					<g>
						<g>
							<path fill="#FFFFFF" d="M568.413,816.145c-0.08-0.034,0.011-0.422,0.261-1.134c0.125-0.356,0.29-0.793,0.492-1.308
								c0.195-0.519,0.44-1.109,0.787-1.737c1.228-2.596,3.48-6.165,7.018-9.943c0.844-0.986,1.893-1.849,2.913-2.828
								c1.048-0.947,2.228-1.831,3.427-2.771c1.274-0.833,2.525-1.809,3.961-2.575c0.707-0.4,1.412-0.831,2.153-1.219
								c0.754-0.362,1.519-0.73,2.293-1.101c3.141-1.373,6.553-2.644,10.251-3.313c3.681-0.709,7.586-1.016,11.573-0.761
								c3.982,0.324,7.801,1.192,11.341,2.426c3.563,1.197,6.755,2.948,9.664,4.761c0.712,0.48,1.416,0.954,2.11,1.421
								c0.677,0.491,1.312,1.02,1.954,1.518c1.311,0.965,2.407,2.112,3.548,3.12c1.051,1.103,2.09,2.148,2.99,3.237
								c0.868,1.116,1.782,2.122,2.474,3.219c2.954,4.25,4.667,8.107,5.507,10.853c0.253,0.672,0.41,1.291,0.528,1.833
								c0.126,0.539,0.226,0.995,0.298,1.366c0.144,0.741,0.179,1.138,0.094,1.16c-0.084,0.022-0.283-0.33-0.582-1.016
								c-0.15-0.343-0.324-0.769-0.523-1.273c-0.19-0.507-0.415-1.089-0.733-1.718c-1.099-2.579-3.004-6.189-6.026-10.145
								c-0.709-1.024-1.633-1.955-2.502-2.994c-0.901-1.012-1.934-1.98-2.969-3.005c-1.125-0.931-2.197-2-3.474-2.89
								c-0.625-0.46-1.242-0.951-1.897-1.406c-0.671-0.432-1.35-0.87-2.039-1.313c-2.805-1.671-5.856-3.295-9.239-4.393
								c-3.361-1.136-6.964-1.937-10.708-2.243c-3.749-0.238-7.43,0.034-10.92,0.672c-3.506,0.597-6.761,1.763-9.777,3.011
								c-0.745,0.339-1.481,0.674-2.207,1.005c-0.714,0.355-1.395,0.752-2.08,1.117c-1.393,0.695-2.608,1.598-3.855,2.357
								c-1.172,0.865-2.334,1.673-3.372,2.544c-1.01,0.903-2.059,1.691-2.908,2.601c-3.562,3.477-5.969,6.775-7.429,9.167
								c-0.405,0.577-0.713,1.12-0.974,1.594c-0.269,0.47-0.504,0.867-0.701,1.184C568.741,815.859,568.493,816.179,568.413,816.145
								z"/>
						</g>
					</g>
				</g>
			</g>
			<g>
				<g>
					<g>
						<g>
							<path fill="#FFFFFF" d="M611.115,750.223c0.711,0.015,1.081,8.518,1.55,18.977c0.451,10.459,0.83,18.962,0.123,19.039
								c-0.678,0.078-2.188-8.375-2.644-18.928C609.671,758.758,610.432,750.205,611.115,750.223z"/>
						</g>
					</g>
				</g>
			</g>
			<g>
				<g>
					<g>
						<g>
							<path fill="#FFFFFF" d="M577.013,754.99c-0.123-0.337,3.429-2.072,9.564-3.779c0.769-0.205,1.574-0.419,2.414-0.642
								c0.845-0.201,1.729-0.381,2.644-0.58c1.825-0.424,3.805-0.709,5.883-1.054c4.171-0.575,8.794-0.972,13.657-1.029
								c4.864-0.023,9.492,0.302,13.671,0.808c2.084,0.307,4.067,0.563,5.9,0.955c0.918,0.183,1.806,0.346,2.653,0.536
								c0.843,0.209,1.652,0.409,2.424,0.6c6.163,1.602,9.745,3.271,9.629,3.61c-0.139,0.431-3.917-0.522-10.063-1.573
								c-0.768-0.129-1.573-0.263-2.412-0.404c-0.842-0.115-1.718-0.235-2.626-0.359c-1.808-0.281-3.759-0.441-5.801-0.668
								c-4.097-0.348-8.61-0.583-13.352-0.561c-4.742,0.056-9.25,0.362-13.341,0.776c-2.037,0.264-3.986,0.452-5.789,0.764
								c-0.905,0.139-1.779,0.273-2.619,0.402c-0.836,0.155-1.638,0.304-2.404,0.446C580.919,754.396,577.16,755.419,577.013,754.99
								z"/>
						</g>
					</g>
				</g>
			</g>
		</g>
		<g>
			<path fill="#FFC08C" d="M633.652,145.353c-0.964,0.891-6.887-5.576-18.784-12.061c-11.668-6.501-30.264-12.37-50.376-9.225
				c-20.097,3.24-35.961,14.58-45.041,24.375c-9.303,9.851-12.932,17.834-14.124,17.286c-0.835-0.249,0.964-9.324,9.833-20.953
				c4.392-5.773,10.664-11.942,18.79-17.227c8.095-5.289,18.148-9.528,29.29-11.365c11.163-1.704,22.034-0.788,31.37,1.734
				c9.363,2.508,17.237,6.431,23.202,10.559C629.847,136.787,634.369,144.858,633.652,145.353z"/>
		</g>
		<g>
			<path fill="#FFC08C" d="M346.903,267.531c-0.231,1.33-11.279-0.907-28.791,0.788c-8.72,0.838-19.018,2.864-29.672,7.106
				c-10.65,4.168-21.544,10.802-30.73,20.101c-9.001,9.371-15.016,20.637-18.28,31.497c-3.231,10.897-4,21.316-3.094,29.902
				c0.86,8.596,2.886,15.435,4.724,19.989c1.794,4.573,2.974,7.14,2.454,7.481c-0.391,0.273-2.47-1.724-5.239-6.104
				c-2.803-4.352-5.856-11.387-7.532-20.607c-1.72-9.202-1.527-20.619,1.611-32.663c3.166-11.997,9.569-24.59,19.641-35.065
				c10.136-10.278,22.236-17.316,33.85-21.411c11.633-4.177,22.709-5.712,31.928-5.859
				C336.329,262.407,347.159,266.734,346.903,267.531z"/>
		</g>
		<g>
			<path fill="#FFC08C" d="M228.124,456.548c-0.725,0.562-6.806-5.494-12.035-18.123c-5.24-12.413-8.738-32.007-3.372-52.54
				c5.402-20.524,18.065-35.879,28.722-44.123c10.754-8.437,19.024-10.73,19.38-9.884c0.595,1.122-6.535,5.165-15.644,14.114
				c-9.085,8.804-19.846,23.337-24.738,41.918c-4.856,18.59-2.613,36.533,0.982,48.663
				C224.965,448.84,229.193,455.862,228.124,456.548z"/>
		</g>
		<g>
			<path fill="#FFC08C" d="M267.205,615.766c0.011,0.494-2.652,1.181-7.592,1.165c-4.898-0.102-12.151-0.979-20.448-4.336
				c-8.255-3.303-17.616-9.121-25.382-18.332c-7.778-9.183-13.213-21.279-17.118-33.953c-1.99-6.364-3.595-12.545-5.136-18.555
				c-1.52-6.032-2.815-11.988-3.581-17.799c-1.605-11.581-0.588-22.75,2.879-31.177c3.338-8.483,8.509-14.127,12.574-17.045
				c4.163-2.895,6.949-3.444,7.147-3.016c0.289,0.548-1.939,2.044-5.101,5.354c-3.093,3.349-6.967,8.813-9.294,16.573
				c-2.417,7.715-2.786,17.455-0.93,28.232c0.907,5.386,2.282,11.023,3.872,16.904c1.619,5.891,3.278,12.043,5.187,18.145
				c3.771,12.228,8.595,23.302,15.214,31.705c6.576,8.396,14.678,14.152,21.983,17.816
				C256.315,614.777,267.301,614.405,267.205,615.766z"/>
		</g>
		<g>
			<path fill="#FCDEAA" d="M908.804,793.645c0.844-0.184,3.809,8.687,2.773,23.527c-0.997,14.663-6.971,35.257-21.29,53.151
				c-7.073,8.925-15.381,16.167-23.771,21.374c-4.247,2.491-8.315,4.853-12.55,6.424c-4.185,1.574-8.271,2.565-12.088,2.985
				c-7.642,0.89-14.162-0.814-17.746-3.313c-3.648-2.437-4.703-4.687-4.37-4.979c0.441-0.462,2.247,0.933,5.758,2.2
				c3.468,1.333,8.92,1.935,15.477,0.517c3.272-0.699,6.801-1.87,10.419-3.518c3.601-1.612,7.247-4.011,11.077-6.473
				c7.528-5.13,15.012-11.941,21.551-20.191c13.217-16.528,19.581-35.191,21.931-48.871
				C908.364,802.701,907.486,793.792,908.804,793.645z"/>
		</g>
		<g>
			<path fill="#FCDEAA" d="M997.982,628.828c-0.884-1.005,7.865-8.102,16.98-23.009c4.435-7.471,8.916-16.895,11.588-27.989
				c2.742-11.045,3.607-23.685,1.579-36.654c-4.001-25.973-18.324-47.297-31.872-57.285c-6.817-5.146-13.473-7.291-18.169-7.896
				c-4.723-0.589-7.509-0.138-7.657-0.763c-0.138-0.423,2.442-1.974,7.771-2.341c5.269-0.355,13.231,1.233,21.216,6.325
				c8.094,4.935,15.993,13.164,22.607,23.484c6.635,10.349,11.836,23.168,13.992,37.254c2.211,14.076,1.019,27.939-2.356,39.755
				c-3.299,11.879-8.663,21.709-13.985,29.214c-5.399,7.495-10.825,12.665-14.81,15.85
				C1000.875,627.976,998.281,629.205,997.982,628.828z"/>
		</g>
		<g>
			<path fill="#FFC08C" d="M452.813,1080.071c0.177,0.505-2.064,1.933-6.444,3.888c-4.387,1.835-10.964,4.647-20.099,5.009
				c-4.513,0.14-9.746-0.662-14.752-3.004c-4.983-2.324-9.758-6.012-13.463-10.895c-3.743-4.841-6.648-10.737-7.96-17.323
				c-1.458-6.536-0.965-13.865,1.233-20.547c4.46-13.6,14.736-23.36,25.217-28.862c10.692-5.585,21.703-6.746,30.476-6.014
				c8.855,0.75,15.63,3.341,19.918,5.612c4.308,2.306,6.265,4.203,6.01,4.633c-0.297,0.52-2.761-0.441-7.185-1.757
				c-4.411-1.294-10.915-2.861-18.982-2.849c-8.005,0.017-17.686,1.676-26.719,6.834c-8.952,5.107-17.533,13.731-21.147,24.878
				c-3.787,11.036-0.939,22.829,5.019,30.978c2.9,4.142,6.641,7.281,10.522,9.382c3.897,2.101,7.982,3.064,11.896,3.291
				c7.845,0.394,14.484-1.393,19.047-2.318C449.989,1079.989,452.626,1079.536,452.813,1080.071z"/>
		</g>
		<g>
			<path fill="#FFC08C" d="M556.654,1121.493c0.486,0.936-4.011,4.685-12.27,9.497c-4.155,2.357-9.318,4.949-15.511,6.957
				c-6.179,2.024-13.483,3.31-21.226,2.771c-7.738-0.564-15.123-3.067-20.714-7.276c-5.579-4.189-9.08-9.549-10.838-14.388
				c-1.749-4.883-1.807-9.181-1.238-11.954c0.565-2.799,1.529-4.116,2.005-4.006c1.242,0.194,0.242,6.139,4.39,13.665
				c2.033,3.694,5.332,7.684,9.908,10.663c4.542,2.976,10.559,4.858,17.067,5.334c13.201,0.947,25.158-3.65,33.735-6.865
				C550.567,1122.52,556.126,1120.474,556.654,1121.493z"/>
		</g>
		<g>
			<path fill="#FCDEAA" d="M737.235,1086.016c0.136-1.218,8.936-0.511,22.687-0.365c6.836-0.052,14.997-0.436,23.341-2.873
				c8.207-2.385,16.864-7.288,22.756-14.843c2.861-3.798,4.823-8.033,5.582-12.343c0.767-4.299,0.403-8.676-0.724-12.617
				c-2.301-7.982-7.681-13.754-13.291-16.759c-5.612-3.148-11.061-3.882-14.766-4.11c-3.745-0.168-5.936,0.088-6.099-0.491
				c-0.15-0.469,1.787-1.781,5.871-2.607c4.025-0.743,10.382-0.908,17.461,2.132c7.056,2.842,14.565,9.739,17.835,19.616
				c1.638,4.89,2.309,10.45,1.426,16.118c-0.871,5.668-3.377,11.185-6.96,15.916c-7.37,9.397-17.604,14.721-27.182,17.09
				c-9.626,2.344-18.406,2.078-25.523,1.408C745.405,1089.656,737.121,1086.981,737.235,1086.016z"/>
		</g>
		<g>
			<path fill="#EDB180" d="M402.225,294.14c-0.589,0.299-2.277-1.423-4.316-5.202c-2.054-3.762-4.118-9.755-4.918-17.491
				c-0.824-7.718-0.039-17.197,3.477-27.014c3.467-9.778,9.988-19.848,19.697-27.422c9.833-7.413,21.25-11.099,31.592-11.912
				c10.392-0.85,19.752,0.851,26.991,3.649c7.265,2.779,12.516,6.327,15.617,9.286c3.121,2.949,4.346,5.026,3.905,5.518
				c-1.077,1.325-8.201-4.577-21.684-7.793c-6.675-1.641-14.92-2.369-23.791-1.155c-8.848,1.182-18.258,4.587-26.315,10.641
				c-7.937,6.212-13.665,14.417-17.102,22.655c-3.473,8.253-4.909,16.405-5.054,23.277
				C399.932,285.032,403.785,293.443,402.225,294.14z"/>
		</g>
		<g>
			<path fill="#EDC38E" d="M836.202,510.271c0.01-0.332,0.861-0.673,2.58-0.699c1.703,0.001,4.3,0.549,7.144,2.318
				c2.847,1.742,5.759,4.817,7.812,9.144c1.993,4.245,3.07,10.22,1.246,16.247c-1.682,5.953-5.752,11.638-11.263,15.936
				c-5.465,4.342-12.638,7.338-20.077,8.658c-3.732,0.718-7.553,1.058-11.399,1.232c-1.918,0.068-3.852,0.112-5.779,0.099
				l-2.897-0.029l-0.581-0.01l-0.02,0.006l-0.027,0.012c-0.041,0.007-0.038,0.038-0.016,0.077l0.01,0.019l0.002,0.004
				c-0.018,0.169,0.054-0.412,0.018-0.098l-0.083,0.839l-0.371,3.368c-0.856,4.44-2.295,8.811-4.45,12.846
				c-4.373,8.009-10.679,14.484-17.839,18.913c-7.116,4.511-15.038,7.22-22.862,7.779c-15.651,1.169-28.814-4.773-37.828-11.194
				c-9.139-6.558-14.666-13.809-17.874-18.99c-3.146-5.281-4.06-8.583-3.496-8.898c0.677-0.392,2.774,2.195,6.718,6.463
				c3.997,4.185,9.962,10.147,18.657,15.278c8.573,5.053,20.281,9.293,32.907,7.826c12.311-1.287,25.64-9.514,32.456-22.049
				c1.673-3.132,2.743-6.434,3.439-9.735l0.288-2.493l0.075-0.621c-0.009,0.072,0.096-0.751,0.061-0.834l-0.008-0.74l-0.009-2.901
				l-0.009-2.883l-0.004-1.435l-0.002-0.716l-0.001-0.357c0.024-0.094,0.214-0.017,0.312-0.034c1.918,0.083,3.829,0.165,5.731,0.247
				c2.637,0.098,5.251,0.196,7.84,0.292c1.825,0.054,3.607,0.056,5.366,0.043c3.502-0.063,6.88-0.258,10.071-0.751
				c12.711-1.6,22.8-9.016,25.976-17.468c1.665-4.115,1.399-8.271,0.326-11.816c-1.128-3.5-2.968-6.273-4.878-8.075
				C839.61,511.395,836.103,511.132,836.202,510.271z"/>
		</g>
		<g>
			<path fill="#EDC38E" d="M489.638,544.617c0.358,0.002,0.668,0.619,0.925,1.85c0.326,1.239,0.38,3.063,0.206,5.455
				c-0.397,4.731-2.676,11.657-8.246,18.376c-5.539,6.601-14.512,12.997-26.29,14.979c-11.803,2.01-25.141-1.6-35.89-9.438
				c-10.765-7.845-18.099-18.933-21.367-29.83c-3.403-10.867-3.446-21.147-2.4-29.373c1.138-8.266,3.302-14.626,5.221-18.789
				c1.926-4.172,3.552-6.193,4.178-5.947c1.559,0.549-1.737,10.013-2.082,25.281c-0.063,7.58,0.76,16.63,4.136,25.751
				c3.229,9.088,9.523,17.996,18.416,24.514c8.848,6.438,19.377,9.454,28.474,8.361c9.176-1.047,17.012-5.582,22.247-10.52
				c5.263-5.016,8.186-10.366,9.673-14.282c0.715-1.972,1.299-3.558,1.64-4.673C488.889,545.224,489.28,544.615,489.638,544.617z"/>
		</g>
		<g>
			<path fill="#EDC38E" d="M810.362,421.78c-0.202-0.794,2.418-1.844,6.097-4.704c3.636-2.796,8.322-7.958,10.659-15.612
				c1.137-3.786,1.612-8.139,0.861-12.488c-0.898-4.283-2.901-8.568-6.577-11.902c-3.527-3.399-8.432-5.93-13.75-6.918
				c-2.653-0.546-5.423-0.632-8.111-0.271c-0.677,0.072-1.355,0.148-2.004,0.341c-0.242,0.064-2.31,0.422-3.956,1.342l-5.178,2.484
				l-4.964,2.49l-0.819,0.411c0.368-3.548,0.734-7.075,1.097-10.578c0.175-1.791,0.388-3.558,0.339-5.209l-0.026-1.463
				c0-0.371-0.008-0.742-0.047-1.11c-0.137-2.96-0.657-5.847-1.34-8.622c-1.407-5.545-3.843-10.591-7.013-14.652
				c-3.14-4.106-7.043-7.206-11.077-9.144c-4.087-1.985-8.447-2.804-12.418-2.99c-8.03-0.308-14.457,2.174-18.318,4.636
				c-3.939,2.445-5.831,4.524-6.5,4.06c-0.51-0.302,0.231-3.276,3.967-7.193c3.645-3.89,10.883-8.159,20.724-8.825
				c4.876-0.293,10.393,0.226,15.917,2.411c5.565,2.187,10.857,5.958,15.104,11.008c4.29,5.017,7.534,11.248,9.425,18.054
				c0.925,3.408,1.61,6.955,1.827,10.6c0.049,0.454,0.066,0.91,0.074,1.369l0.018,0.687l0.009,0.344v-0.003l0.007-0.001l0.008-0.004
				v0l0,0.007c-0.892,0.245,2.198-0.626,3.902-0.697c3.886-0.469,7.742-0.258,11.365,0.554c7.26,1.534,13.749,5.143,18.509,10.131
				c4.899,4.871,7.604,11.425,8.327,17.448c0.61,6.09-0.576,11.655-2.492,16.223c-3.933,9.211-10.588,14.445-15.484,16.556
				C813.532,422.706,810.464,422.364,810.362,421.78z"/>
		</g>
		<g>
			<path fill="#EDC38E" d="M858.57,751.428c1.059-0.675,5.619,3.704,7.966,13.312c1.161,4.744,1.558,10.703,0.448,17.19
				c-1.09,6.467-3.84,13.453-8.582,19.61c-4.821,6.096-10.929,10.462-16.937,13.091c-6.023,2.654-11.899,3.717-16.784,3.744
				c-9.889,0.059-15.246-3.301-14.848-4.492c0.363-1.529,5.936-0.982,14.048-2.801c8.01-1.689,18.892-6.446,26.34-15.924
				c7.384-9.529,9.354-21.241,9.046-29.421C859.06,757.425,857.176,752.152,858.57,751.428z"/>
		</g>
		<g>
			<path fill="#EDC38E" d="M737.687,1037.073c0.598-0.214,1.887,1.125,2.955,4.215c1.042,3.053,1.723,7.97,0.233,13.866
				c-0.751,2.928-2.06,6.073-4.135,9.119c-2.114,3.001-5.021,5.929-8.642,8.057c-3.59,2.178-7.831,3.695-12.406,4.224
				c-2.285,0.275-4.657,0.316-7.055,0.031c-0.586-0.043-1.233-0.157-1.768-0.252l-0.019,0.01l-0.006,0.023l0.007,0.016l0.002,0.002
				l0.001,0c-0.018,0.055,0.121-0.284,0.038-0.087l-0.142,0.344c-3.978,9.954-12.449,16.742-21.237,19.113
				c-4.406,1.223-8.896,1.241-12.794,0.524c-3.924-0.727-7.316-2.21-10.115-3.922c-5.639-3.458-8.778-7.917-10.218-11.138
				c-1.439-3.28-1.373-5.32-0.761-5.561c0.706-0.295,1.915,1.145,4.1,3.288c2.183,2.119,5.504,4.972,10.266,6.902
				c4.694,1.966,10.837,2.853,16.743,0.759c5.916-2.012,11.739-7.109,14.361-13.767l0.097-0.229l0.23-0.683l0.319-1.247l0.638-2.484
				c0.383-1.643,0.765-3.279,1.145-4.906c2.051,0.705,4.089,1.405,6.112,2.1c1.028,0.354,2.031,0.691,3.014,0.836
				c0.464,0.093,0.813,0.173,1.233,0.211c1.605,0.245,3.232,0.275,4.82,0.155c3.182-0.216,6.227-1.092,8.842-2.406
				c5.295-2.571,8.715-7.021,10.633-11.304C738.026,1044.135,736.214,1037.458,737.687,1037.073z"/>
		</g>
		<g>
			<path fill="#EDB180" d="M476.097,1079.323c-0.333,1.346-4.406,1.875-10.906,0.706c-3.239-0.613-7.109-1.686-11.225-3.749
				c-4.096-2.019-8.48-5.198-11.891-9.738c-7.239-10.02-5.446-21.852-1.005-27.99c2.272-3.126,5.052-4.863,7.112-5.326
				c2.051-0.511,3.259-0.156,3.486,0.475c0.539,1.466-2.704,3.597-4.153,8.358c-0.775,2.347-1.089,5.384-0.765,8.672
				c0.404,3.295,1.54,6.789,3.639,9.6c4.656,6.221,11.865,9.956,17.17,12.752C472.919,1075.861,476.456,1077.895,476.097,1079.323z"
				/>
		</g>
		<g>
			<path fill="#EDB180" d="M333.472,745.673c-0.22,1.208-8.216,1.241-19.344-4.707c-5.514-2.942-11.595-7.504-17.101-13.827
				c-5.505-6.294-10.305-14.463-13.062-23.883c-2.646-9.452-2.897-18.924-1.557-27.177c1.325-8.279,4.071-15.368,7.192-20.782
				c6.293-10.936,13.095-15.14,13.922-14.231c1.186,1.083-3.345,6.883-7.286,17.362c-3.992,10.301-6.819,26.024-2.295,41.973
				c4.603,15.926,15.322,27.771,24.161,34.398C326.992,741.603,333.906,744.126,333.472,745.673z"/>
		</g>
	</g>
	<g>
		<path fill="#40426B" d="M793.078,917.218c-1.4-6.28-3.643-11.982-5.947-17.179c-2.501-5.115-5.159-9.712-8.03-13.595
			c-5.698-7.799-11.489-13.125-15.865-16.201c-4.365-3.1-7.081-4.307-7.307-3.963c-0.303,0.44,1.885,2.39,5.576,5.998
			c3.709,3.586,8.691,9.18,13.571,16.88c2.464,3.835,4.719,8.297,6.85,13.187c1.934,4.972,3.841,10.36,4.975,16.24
			c2.462,11.682,2.553,25.112-1.077,38.31c-3.852,13.135-10.992,24.511-19.229,33.152c-4.056,4.405-8.511,7.985-12.772,11.197
			c-4.383,3.038-8.647,5.648-12.761,7.614c-1.85,0.899-3.639,1.691-5.372,2.411c1.877,0.42,3.719,1.309,5.461,2.746
			c0.634-0.241,1.26-0.469,1.907-0.732c4.485-1.792,9.163-4.305,13.98-7.341c4.692-3.209,9.598-6.879,14.091-11.484
			c9.105-9.031,17.085-21.28,21.299-35.686C796.419,944.302,796.073,929.687,793.078,917.218z"/>
	</g>
	<g>
		<path fill="#40426B" d="M441.235,998.726c1.538,1.362,3.067,2.626,4.59,3.838c0.636,0.096,1.264,0.221,1.884,0.368
			c0.005-0.041,0.009-0.082,0.014-0.124c0.539,0.168,1.077,0.337,1.616,0.505c0.011,0.003,0.019,0.009,0.031,0.013
			c0.304,0.078,0.609,0.149,0.913,0.222c1.886-0.293,3.769-0.267,5.571,0.142c-3.521-2.523-7.081-5.595-10.685-9.081
			c-3.684-3.859-7.501-8.112-10.792-13.116c-6.731-9.86-11.935-22.241-13.612-35.826c-1.447-13.611,0.815-26.85,5.135-37.979
			c2.07-5.619,4.824-10.627,7.538-15.221c2.894-4.48,5.841-8.518,8.894-11.904c6.061-6.809,11.883-11.523,16.123-14.461
			c4.225-2.963,6.7-4.534,6.472-5.017c-0.167-0.375-3.043,0.376-7.851,2.729c-4.815,2.328-11.392,6.646-18.277,13.421
			c-3.461,3.367-6.829,7.473-10.124,12.117c-3.114,4.755-6.25,10.019-8.647,15.99c-4.974,11.82-7.68,26.187-6.083,41.112
			c1.828,14.898,7.721,28.277,15.245,38.662C432.876,990.385,437.124,994.801,441.235,998.726z"/>
	</g>
</g>
</svg>
