<?xml version="1.0" encoding="utf-8"?>
<!-- Generator: Adobe Illustrator 23.0.3, SVG Export Plug-In . SVG Version: 6.00 Build 0)  -->
<svg version="1.1" id="Layer_1" xmlns="http://www.w3.org/2000/svg" xmlns:xlink="http://www.w3.org/1999/xlink" x="0px" y="0px"
	 viewBox="0 0 1200 1200" enable-background="new 0 0 1200 1200" xml:space="preserve">
<g>
	<g>
		<path fill="#40426B" d="M471.653,1119.567c1.195,6.026,2.51,12.314,6.43,17.093c3.921,4.78,11.319,7.411,16.596,4.123
			c4.308-2.685,7.197-8.885,12.237-8.106c5.406,0.836,5.73,8.333,8.808,12.778c4.008,5.79,13.309,5.721,19.097,1.635
			s8.85-10.866,11.399-17.406c7.579-19.449,12.939-39.732,15.948-60.346c2.794-19.143,3.122-40.18-8.122-56.052
			c-11.95-16.868-35.587-23.786-55.823-18.58c-17.643,4.539-41.714,21.38-43.047,40.777
			C453.42,1061.017,466.659,1094.377,471.653,1119.567z"/>
		<path fill="#40426B" d="M694.946,1119.567c-1.195,6.026-2.51,12.314-6.43,17.093c-3.921,4.78-11.319,7.411-16.596,4.123
			c-4.308-2.685-7.197-8.885-12.237-8.106c-5.406,0.836-5.73,8.333-8.808,12.778c-4.008,5.79-13.309,5.721-19.097,1.635
			s-8.85-10.866-11.399-17.406c-7.579-19.449-12.939-39.732-15.948-60.346c-2.794-19.143-3.122-40.18,8.122-56.052
			c11.949-16.867,74.106-48.506,94.348-43.306c15.931,4.092,7.287,43.966,6.248,55.242
			C710.159,1057.703,701.221,1087.858,694.946,1119.567z"/>
		<path fill="#FCDEAA" d="M845.472,887.785c-7.068,15.56-17.916,27.369-35.222,31.732c-4.974,1.222-8.086,2.501-7.708,9.278
			c2.763,47.351-24.635,81.613-71.404,91.007c-20.563,4.159-40.108,2.065-58.345-8.028c-7.358-4.072-11.663-3.868-16.898,3.17
			c-29.405,39.352-94.207,56.309-145.629,36.356c-9.947-3.839-19.4-8.638-27.136-15.997c-5.73-5.41-10.005-5.701-15.735,0.262
			c-11.256,11.721-25.246,18.789-41.214,22.279c-34.146,7.446-71.52-8.522-89.728-39.381
			c-19.603-33.186-20.767-66.925-1.396-100.809c1.047-1.803,1.891-3.752,2.763-5.672c0.204-0.465,0.174-1.018,0.262-1.542
			c-60.526-39.643-53.662-123.699-0.029-159.27c0.349-4.159-2.792-6.573-4.77-9.627c-12.39-19.225-15.328-40.69-12.012-62.533
			c10.383-68.234,45.489-121.023,104.066-157.118c14.746-9.104,28.125-17.538,39.759-31.354
			c30.83-36.56,94.41-40.399,130.708-10.383c19.051,11.198,26.206,19.953,42.057,51.626c2.996,1.367,4.886-1.076,6.777-2.472
			c31.645-23.064,74.167-19.371,104.939,8.638c26.06,23.704,38.858,53.72,36.647,89.146c-0.582,9.424,2.211,14.862,9.336,21.203
			c30.336,26.962,39.381,61.399,31.15,100.547c-1.571,7.533-4.421,15.241-11.547,20.011c-0.349,0.233-1.047,0.465-1.047,0.698
			c0.029,0.698,0.32,1.425,0.524,2.123c1.018,0.291,1.367,0.931,1.018,1.949c16.724,6.341,25.653,19.865,31.615,35.542
			C857.222,835.49,857.222,861.929,845.472,887.785z"/>
		<path fill="#FFC08C" d="M595.818,480.151c-26.409,4.414-48.575,17.982-67.72,35.341c-27.847,25.249-50.061,54.975-66.173,89.546
			c-9.039,19.394-9.635,38.819-7.624,58.691c1.911,18.875,6.756,37.342,18.551,53.023c3.662,4.869,3.115,9.696,0.954,14.908
			c-4.032,9.723-7.296,19.802-11.866,29.256c-11.683,24.168-15.863,50.242-17.404,76.363c-1.575,26.685,6.12,52.101,19.328,75.512
			c3.159,5.6,8.115,9.648,13.902,12.613c10.889,5.58,17.268,14.164,20.652,26.244c3.378,12.063,9.438,23.106,17.097,33.502
			c8.491,11.526,19.619,19.307,31.77,25.151c16.817,8.088,35.296,10.9,53.898,8.511c7.265-0.933,14.429-2.426,21.838-2.722
			c9.82-0.393,18.697-3.721,24.87-11.842c7.767-10.217,17.917-12.42,29.558-9.072c23.704,6.817,44.507-2.93,65.553-11.168
			c3.975-1.556,6.467-5.199,8.781-8.864c8.129-12.878,16.959-25.257,23.227-39.321c7.674-17.218,21.931-29.348,34.662-42.719
			c16.266-17.083,24.089-38.274,24.378-61.674c0.163-13.182-4.523-25.654-10.596-37.433c-3.346-6.491-8.295-12.398-7.794-20.374
			c16.715,6.342,25.665,19.862,31.603,35.539c9.97,26.323,9.95,52.757-1.791,78.623c-7.063,15.561-17.929,27.368-35.229,31.717
			c-4.974,1.25-8.091,2.518-7.698,9.283c2.752,47.348-24.634,81.622-71.418,91.031c-20.549,4.132-40.1,2.058-58.324-8.031
			c-7.37-4.08-11.662-3.885-16.92,3.153c-29.393,39.35-94.199,56.312-145.612,36.377c-9.956-3.861-19.391-8.651-27.137-15.998
			c-5.724-5.43-10.019-5.712-15.743,0.241c-11.264,11.715-25.253,18.804-41.203,22.285c-34.155,7.453-71.516-8.526-89.746-39.381
			c-19.603-33.179-20.768-66.916-1.388-100.793c1.043-1.823,1.883-3.765,2.758-5.679c0.212-0.463,0.185-1.036,0.268-1.558
			c-60.517-39.647-53.66-123.675-0.019-159.262c0.326-4.153-2.812-6.586-4.766-9.615c-12.401-19.224-15.35-40.714-12.032-62.534
			c10.377-68.252,45.493-121.039,104.067-157.136c14.765-9.099,28.133-17.543,39.768-31.341
			C495.94,453.969,559.513,450.155,595.818,480.151z"/>
		<path fill="#171C2E" d="M447.144,429.82c0.367-1.523,0.744-3.043,1.13-4.56c1.071-4.207,2.226-8.454,2.219-12.796
			c-0.007-4.508-1.468-9.44-5.1-12.37c-4.466-3.604-11.116-3.338-16.296-0.868c-5.18,2.47-9.226,6.76-13.143,10.955
			c-1.64-5.137-3.327-10.37-6.484-14.742c-3.157-4.371-8.088-7.816-13.48-7.795c-5.777,0.023-10.774,3.863-15.049,7.748
			c-38.205,34.718-57.265,89.309-48.971,140.262c2.493,15.312,7.446,30.548,16.878,42.864c9.432,12.317,23.806,21.417,39.308,22.014
			c14.254,0.549,28.316-6.219,37.892-16.792c7.235-7.989,12.148-18.109,14.481-28.604c2.086-9.379,2.596-16.98,0.812-26.222
			c-3.809-19.728-3.84-39.842-1.391-59.754C441.576,455.935,444.018,442.78,447.144,429.82z"/>
		<path fill="#171C2E" d="M666.571,426.516c-0.367-1.523-0.744-3.043-1.13-4.56c-1.071-4.207-2.226-8.454-2.219-12.796
			c0.007-4.508,1.469-9.44,5.1-12.37c4.466-3.604,11.116-3.338,16.296-0.868c5.18,2.47,9.226,6.76,13.143,10.955
			c1.64-5.137,3.327-10.37,6.484-14.742c3.157-4.371,8.088-7.816,13.48-7.795c5.777,0.023,10.774,3.863,15.049,7.748
			c38.205,34.718,57.265,89.309,48.971,140.262c-2.493,15.312-7.446,30.548-16.878,42.864
			c-9.432,12.317-23.806,21.417-39.308,22.014c-14.254,0.549-28.316-6.219-37.892-16.792c-7.235-7.989-12.148-18.109-14.481-28.604
			c-2.086-9.379-2.596-16.98-0.812-26.222c3.809-19.728,3.84-39.842,1.391-59.754C672.139,452.632,669.698,439.476,666.571,426.516z
			"/>
		<path fill="#40426B" d="M806.294,697.656c-11.314,8.551-27.835,8.609-41.185,3.112c-13.35-5.497-24.053-15.706-33.331-26.496
			c-1.571-1.832-3.083-3.665-4.596-5.526c-27.195-33.855-44.18-74.632-54.476-116.224c-6.253-25.188-10.18-50.812-13.117-76.494
			c-1.425-12.448-2.589-24.926-3.694-37.403c-0.553-6.108-4.479-22.337-2.56-31.383c0.436-2.094,1.164-3.81,2.327-4.915
			c10.5-10.093,30.976,30.045,35.397,36.793c14.804,22.599,29.609,45.227,44.413,67.856c16.491,25.217,32.983,50.434,49.503,75.65
			c13.03,19.923,26.235,40.254,32.546,62.969C822.582,663.83,821.622,686.109,806.294,697.656z"/>
		<path fill="#40426B" d="M458.087,436.559c-0.116,0.785-0.204,1.483-0.262,2.065c-1.105,12.477-2.269,24.955-3.694,37.403
			c-2.938,25.682-6.864,51.306-13.088,76.494c-9.598,38.683-24.926,76.639-48.95,109.011c-3.228,4.363-6.602,8.609-10.151,12.739
			c-9.278,10.79-19.952,20.999-33.303,26.496c-13.379,5.497-29.899,5.439-41.214-3.112c-15.299-11.547-16.288-33.826-11.227-52.062
			c6.311-22.715,19.516-43.046,32.575-62.969c16.491-25.217,32.982-50.434,49.503-75.65c14.804-22.628,29.579-45.256,44.384-67.856
			c4.421-6.748,24.897-46.885,35.426-36.793C463.788,407.823,459.338,427.572,458.087,436.559z"/>
		<path fill="#171C2E" d="M458.087,436.559c-0.116,0.785-0.204,1.483-0.262,2.065c-1.105,12.477-2.269,24.955-3.694,37.403
			c-2.938,25.682-6.864,51.306-13.088,76.494c-9.598,38.683-24.926,76.639-48.95,109.011c-6.66,3.694-13.67,6.835-21.028,9.278
			c-9.569,3.199-20.418,5.09-29.551,0.756c-12.041-5.701-17.131-20.854-15.27-34.059c1.862-13.205,9.162-24.897,16.346-36.124
			c9.307-14.572,18.702-29.056,28.183-43.511c16.986-25.857,34.233-51.51,51.772-76.988c8.784-12.768,17.015-26.613,26.875-38.538
			C452.474,438.653,455.382,436.879,458.087,436.559z"/>
		<path fill="#171C2E" d="M780.218,648.202c-0.156,0.573-0.332,1.143-0.529,1.707c-3.314,9.51-12.248,16.484-22.089,19.351
			c-6.553,1.909-13.47,2.17-20.236,1.456c-8.255-0.87-10.683-2.314-15.533-8.698c-8.082-10.637-15.218-21.949-21.477-33.7
			c-12.332-23.153-21.227-47.941-27.648-73.248c-6.253-24.646-10.18-49.719-13.117-74.849c-1.425-12.181-2.589-24.39-3.694-36.599
			c-0.553-5.976-4.479-21.856-2.56-30.707c0.074-0.34,17.036,14.994,18.333,16.28c5.766,5.72,8.973,12.204,12.862,19.379
			c9.489,17.508,18.894,35.059,28.212,52.654c11.419,21.56,22.71,43.186,33.872,64.875c5.489,10.667,10.943,21.351,16.375,32.046
			c4.85,9.548,11.549,18.451,15.403,28.46C781.036,633.477,782.138,641.146,780.218,648.202z"/>
		<path fill="#A16247" d="M577.644,152.534c-11.719-3.575-23.637-3.911-35.683-2.198c-4.183-27.96-4.923-56.121-4.294-84.299
			c0.232-10.422,6.08-15.529,15.637-15.969c13.406-0.618,18.549,2.84,19.924,15.415C576.391,94.397,578.268,123.411,577.644,152.534
			z"/>
		<path fill="#CCCFFF" d="M911.873,621.947c-15.27-6.777-27.718-1.28-39.149,8.551c-6.486,5.555-11.663,12.332-14.368,20.534
			c-4.217,12.885-2.909,25.217,6.457,35.455c9.104,9.918,30.656,15.328,40.777,10.413c16.288-7.853,26.787-20.185,27.864-39.934
			C931.855,642.452,927.579,628.899,911.873,621.947z M896.167,654.493c-5.992,0.262-10.645-4.014-11.023-10.79
			c-0.291-5.294-0.349-11.023,7.039-11.809c6.166-0.64,14.513,5.846,15.066,11.46C907.743,648.502,902.042,654.232,896.167,654.493z
			"/>
		<path fill="#CCCFFF" d="M328.222,268.767c-18.556-0.611-31.528,13.176-31.848,33.826c-0.32,20.505,16.637,38.131,36.618,38.102
			c17.48-0.029,31.587-14.717,31.674-32.924C364.724,287.672,347.651,269.378,328.222,268.767z M324.034,302.535
			c-6.631,0.203-12.652-5.323-12.07-10.994c0.553-5.235,2.036-10.732,8.9-11.081c5.526-0.291,11.838,5.701,11.14,10.994
			C331.305,296.659,329.677,301.895,324.034,302.535z"/>
		<path fill="#CCCFFF" d="M916.961,757.026c0.025,14.036-10.069,24.69-23.2,24.487c-12.523-0.193-24.798-13.173-24.623-26.036
			c0.161-11.813,12.596-23.448,25.14-23.523C907.186,731.878,916.936,742.655,916.961,757.026z"/>
		<path fill="#CCCFFF" d="M308.752,392.785c0.199,11.302-9.598,19.539-23.916,20.109c-10.234,0.407-17.826-6.864-18.273-17.502
			c-0.491-11.677,9.694-23.105,20.991-23.554C298.928,371.386,308.542,380.886,308.752,392.785z"/>
		<path fill="#40426B" d="M647.94,632.371c-21.161,29.655-52.003,57.452-90.261,58.638c-1.343,0.03-2.685,0.059-4.014-0.005
			c-32.237-0.575-61.828-20.282-82.896-43.863c-40.984-45.868-58.057-109.64-44.807-167.457
			c12.16-53.152,49.713-100.198,100.083-126.375c8.204-4.273,17.609-6.184,27.014-5.266c27.462,2.742,43.792,7.24,59.77,17.218
			c9.468,5.911,18.824,13.768,30.26,24.307c33.744,31.02,50.231,76.41,49.191,120.344
			C691.212,553.809,673.757,596.19,647.94,632.371z"/>
		<path fill="#171C2E" d="M612.829,365.261c-0.556,0.755-1.251,1.522-2.004,2.216c-6.628,6.174-15.859,4.767-24.37,6.905
			c-25.568,6.409-48.902,24.815-65.289,43.589c-20.841,23.914-34.142,53.073-42.291,83.142
			c-10.017,36.775-12.529,76.443,0.363,112.821c12.046,33.94,39.068,64.464,74.428,77.069
			c-32.237-0.575-61.828-20.282-82.896-43.863c-40.984-45.868-58.057-109.64-44.807-167.457
			c12.16-53.152,49.713-100.198,100.083-126.375c8.204-4.273,17.609-6.184,27.014-5.266
			C580.521,350.785,596.851,355.283,612.829,365.261z"/>
		<path fill="#FCDEAA" d="M683.293,383.158c-10.965,21.756-30.917,31.208-54.767,26.467c-3.054-0.582-6.253-0.349-9.365-0.494
			c-11.372,11.46-24.635,8.609-36.415,2.53c-9.453-4.886-16.607-5.497-26.148-0.523c-10.529,5.497-22.628,5.788-33.797,0.843
			c-7.039-3.141-11.489-1.745-16.491,3.752c-7.737,8.435-17.917,12.914-29.231,14.513c-20.185,2.85-39.643-8.464-45.547-26.351
			c-5.875-17.655,1.978-36.851,19.487-47.263c2.705-1.629,5.613-3.723,8.551-3.956c13.554-0.989,21.494-6.835,28.096-19.923
			c9.656-19.109,36.938-20.709,54.622-5.846c6.341,0.116,8.551-5.468,12.245-8.929c18.178-16.957,53.022-20.767,70.124,6.399
			c4.363,6.922,8.464,7.329,15.502,4.915c15.851-5.497,30.656-3.025,41.214,10.703C691.757,353.462,690.681,368.5,683.293,383.158z"
			/>
		<path fill="#FFC08C" d="M542.3,326.918c-0.662,5.94-5.139,5.342-9.398,5.901c-18.11,2.376-35.165,33.178-27.26,49.152
			c2.204,4.455,5.868,7.711,11.13,7.714c8.394,0.004,16.955,1.577,25.137-1.284c10.646-3.723,19.726-2.155,26.741,7.123
			c4.497,5.948,11.18,8.14,17.783,9.392c10.788,2.045,21.805,2.882,32.726,4.229c-11.378,11.44-24.641,8.587-36.419,2.504
			c-9.458-4.884-16.588-5.478-26.137-0.496c-10.523,5.491-22.647,5.785-33.807,0.815c-7.029-3.13-11.47-1.727-16.494,3.763
			c-7.719,8.434-17.914,12.91-29.219,14.507c-20.189,2.853-39.634-8.457-45.564-26.329c-5.867-17.681,1.998-36.865,19.502-47.282
			c2.704-1.609,5.612-3.728,8.549-3.946c13.558-1.006,21.483-6.841,28.09-19.916C497.326,313.637,524.606,312.038,542.3,326.918z"/>
		<g>
			<g>
				<g>
					<g>
						<g>
							<path fill="#FFFFFF" d="M587.218,584.016c0.159,0.065-0.127,1.302-1.069,3.389c-0.931,2.088-2.685,4.958-5.478,7.998
								c-1.388,1.528-3.091,3.028-5.025,4.507c-1.984,1.403-4.183,2.824-6.695,3.944c-4.969,2.313-11.056,3.706-17.455,3.291
								c-6.392-0.514-12.213-2.773-16.796-5.78c-2.323-1.471-4.294-3.195-6.054-4.871c-1.699-1.742-3.168-3.473-4.32-5.186
								c-2.325-3.412-3.645-6.505-4.265-8.706c-0.63-2.201-0.735-3.467-0.568-3.508c0.216-0.059,0.688,1.103,1.613,3.109
								c0.914,2.01,2.454,4.823,4.856,7.9c1.191,1.546,2.664,3.1,4.328,4.665c1.724,1.499,3.62,3.047,5.825,4.357
								c4.35,2.687,9.745,4.679,15.591,5.152c5.852,0.376,11.479-0.815,16.172-2.844c2.371-0.978,4.471-2.236,6.393-3.469
								c1.872-1.309,3.554-2.633,4.957-3.99c2.821-2.698,4.752-5.258,5.947-7.115C586.377,585.008,587.012,583.927,587.218,584.016z
								"/>
						</g>
					</g>
				</g>
			</g>
			<g>
				<g>
					<g>
						<g>
							<path fill="#FFFFFF" d="M553.448,636.15c-0.805-0.018-1.295-6.734-1.665-14.988c-0.356-8.255-0.458-14.988,0.342-15.076
								c0.777-0.089,2.169,6.587,2.53,14.95C555.029,629.398,554.23,636.17,553.448,636.15z"/>
						</g>
					</g>
				</g>
			</g>
			<g>
				<g>
					<g>
						<g>
							<path fill="#FFFFFF" d="M576.397,632.381c0.158,0.323-1.751,1.716-5.277,3.124c-1.757,0.713-3.928,1.362-6.388,1.884
								c-2.465,0.485-5.222,0.821-8.129,0.867c-2.907,0.02-5.671-0.253-8.147-0.681c-2.471-0.465-4.657-1.065-6.43-1.738
								c-3.558-1.327-5.498-2.676-5.347-3.002c0.174-0.396,2.373,0.273,5.917,1.051c1.77,0.401,3.893,0.768,6.254,1.07
								c2.367,0.265,4.976,0.444,7.72,0.426c2.743-0.045,5.347-0.283,7.708-0.602c2.354-0.356,4.468-0.771,6.228-1.212
								C574.03,632.708,576.214,631.989,576.397,632.381z"/>
						</g>
					</g>
				</g>
			</g>
		</g>
		<g>
			<g>
				<g>
					<g>
						<path fill="#FFFFFF" d="M666.045,521.84c0.11,0.14-0.803,1.11-2.705,2.576c-1.896,1.47-4.864,3.333-8.822,5.061
							c-1.975,0.873-4.219,1.641-6.668,2.337c-2.465,0.623-5.134,1.206-7.992,1.48c-5.699,0.617-12.118,0.263-18.544-1.487
							c-6.407-1.82-12.087-4.83-16.649-8.302c-2.306-1.711-4.291-3.587-6.08-5.394c-1.738-1.86-3.263-3.676-4.504-5.444
							c-2.498-3.524-4.078-6.652-4.942-8.89c-0.872-2.237-1.153-3.539-0.986-3.602c0.203-0.081,0.836,1.078,1.994,3.115
							c1.15,2.04,2.949,4.914,5.552,8.146c1.294,1.622,2.843,3.285,4.574,4.992c1.782,1.654,3.729,3.377,5.964,4.945
							c4.422,3.186,9.82,5.949,15.849,7.665c6.049,1.644,12.099,2.064,17.53,1.619c2.723-0.189,5.28-0.66,7.66-1.156
							c2.363-0.568,4.549-1.192,6.495-1.913c3.898-1.423,6.922-2.956,8.961-4.109C664.773,522.332,665.913,521.666,666.045,521.84z"
							/>
					</g>
				</g>
			</g>
		</g>
		<g>
			<g>
				<g>
					<g>
						<path fill="#FFFFFF" d="M444.028,498.052c0.422-0.268,2.73,3.747,8.083,8.632c2.661,2.44,6.134,5.013,10.348,7.199
							c4.205,2.19,9.184,3.914,14.577,4.693c5.402,0.716,10.663,0.41,15.304-0.555c4.65-0.958,8.692-2.491,11.915-4.116
							c6.479-3.246,9.792-6.483,10.125-6.11c0.127,0.129-0.553,1.077-2.044,2.555c-1.485,1.482-3.862,3.416-7.113,5.342
							c-3.243,1.931-7.421,3.754-12.312,4.915c-4.88,1.168-10.489,1.585-16.27,0.816c-5.772-0.831-11.057-2.757-15.436-5.206
							c-4.392-2.446-7.917-5.336-10.513-8.075c-2.605-2.737-4.367-5.244-5.393-7.074
							C444.267,499.239,443.871,498.143,444.028,498.052z"/>
					</g>
				</g>
			</g>
		</g>
		<path fill="#CCCFFF" d="M456.849,341.253c0.933-12.129,13.863-21.866,25.777-19.413c-4.949-10.053-0.924-23.595,8.712-29.312
			s23.451-2.759,29.901,6.403c3.427-11.468,13.678-20.603,25.463-22.694s24.552,2.962,31.715,12.551
			c7.498-2.91,15.689-4.895,23.568-3.278c7.879,1.617,15.278,7.606,16.463,15.561c1.185,7.956-5.878,16.688-13.831,15.487
			c8.785-3.068,19.461-5.844,26.629,0.091c6.49,5.374,6.381,16.188,1.14,22.785c-5.242,6.596-14.193,9.339-22.614,9.077
			s-16.52-3.112-24.46-5.931c-3.737,9.662-12.747,17.091-22.944,18.92c-10.197,1.829-21.227-2.007-28.089-9.768
			c-4.865,9.519-14.035,16.731-24.434,19.213c-12.757,3.045-22.36-2.504-33.592-6.684
			C465.855,360.392,455.843,354.325,456.849,341.253z"/>
		<path fill="#FCB8FA" d="M611.918,199.021c-34.524,8.522-73.178,7.882-106.335-2.705c-12.827-4.101-16.142-20.738-6.282-29.347
			c0.349-0.291,0.727-0.611,1.134-0.902c0.087-0.058,0.204-0.145,0.291-0.204c16.055-11.692,38.218-18.643,60.468-17.945
			c21.581,0.669,42.319,8.464,57.036,20.476c0.174,0.116,0.32,0.262,0.466,0.378c0.64,0.524,1.221,1.076,1.716,1.658
			C629.195,179.883,625.007,195.821,611.918,199.021z"/>
		<g>
			<g>
				<g>
					<g>
						<path fill="#FFFFFF" d="M614.674,262.681c-0.757,0.085-2.607-11.785-2.462-26.559c0.105-14.775,2.155-26.612,2.91-26.514
							c0.821,0.092,0.066,11.94-0.036,26.538C614.942,250.745,615.497,262.603,614.674,262.681z"/>
					</g>
				</g>
			</g>
		</g>
		<g>
			<g>
				<g>
					<g>
						<path fill="#FFFFFF" d="M511.058,261.195c-0.794-0.019-1.174-10.84-0.849-24.169c0.324-13.329,1.231-24.118,2.024-24.099
							c0.794,0.019,1.174,10.84,0.849,24.169S511.852,261.214,511.058,261.195z"/>
					</g>
				</g>
			</g>
		</g>
		<g>
			<g>
				<g>
					<g>
						<path fill="#FFFFFF" d="M539.802,269.744c-0.794,0.006-1.49-7.138-1.555-15.957s0.526-15.972,1.319-15.978
							s1.49,7.138,1.555,15.957C541.187,262.584,540.596,269.738,539.802,269.744z"/>
					</g>
				</g>
			</g>
		</g>
		<g>
			<g>
				<g>
					<g>
						<path fill="#FFFFFF" d="M563.057,244.561c-0.771,0.094-2.116-5.963-2.116-13.564c-0.02-7.6,1.308-13.661,2.08-13.569
							c0.806,0.088,0.773,6.147,0.795,13.565C563.814,238.412,563.863,244.47,563.057,244.561z"/>
					</g>
				</g>
			</g>
		</g>
		<g>
			<g>
				<g>
					<g>
						<path fill="#FFFFFF" d="M581.981,271.606c-0.794,0.018-1.598-7.034-1.797-15.752c-0.199-8.718,0.283-15.799,1.077-15.818
							s1.598,7.034,1.797,15.752S582.774,271.588,581.981,271.606z"/>
					</g>
				</g>
			</g>
		</g>
		<g>
			<path fill="#FFC08C" d="M322.29,873.856c-0.162,0.35-2.481-0.236-6.344-2.134c-3.867-1.878-9.139-5.373-14.649-10.85
				c-5.518-5.45-11.047-13.111-14.999-22.69c-3.964-9.533-6.106-21.107-4.807-33.133c1.481-12.005,6.208-22.785,12.243-31.161
				c6.034-8.424,13.166-14.62,19.782-18.668c6.615-4.075,12.545-6.275,16.739-7.22c4.194-0.966,6.586-1.007,6.664-0.629
				c0.321,1.099-9.063,2.93-20.904,11.547c-5.895,4.249-12.19,10.342-17.496,18.275c-5.312,7.897-9.416,17.768-10.758,28.581
				c-1.161,10.834,0.581,21.381,3.951,30.282c3.355,8.935,8.093,16.304,12.863,21.786
				C314.135,868.935,322.854,872.859,322.29,873.856z"/>
		</g>
		<g>
			<path fill="#FFC08C" d="M420.992,1036.17c0.193,0.101,0.036,0.78-0.455,2.006c-0.259,0.604-0.546,1.382-1.016,2.224
				c-0.511,0.824-1.098,1.773-1.76,2.841c-2.812,4.157-8.183,9.523-16.405,13.544c-8.17,3.938-19.281,6.4-31.386,4.388
				c-12.115-1.982-24.278-8.951-33.709-19.146c-9.421-10.243-15.366-22.458-18.234-33.996c-2.962-11.546-3.336-22.288-2.904-31.124
				c0.509-8.86,1.779-15.903,2.924-20.688c1.152-4.788,2.152-7.339,2.553-7.257c0.452,0.091,0.268,2.804-0.127,7.643
				c-0.391,4.836-0.959,11.817-0.889,20.393c0.142,8.554,0.975,18.765,4.054,29.507c2.98,10.715,8.633,21.847,17.255,31.236
				c8.616,9.31,19.478,15.671,30.126,17.712c10.681,2.089,20.848,0.355,28.525-2.747c7.72-3.172,13.096-7.563,16.31-11.013
				c0.795-0.883,1.502-1.668,2.116-2.35c0.607-0.693,1.048-1.335,1.473-1.816C420.266,1036.547,420.799,1036.068,420.992,1036.17z"
				/>
		</g>
		<g>
			<path fill="#FFC08C" d="M828.676,894.765c-0.453-0.985,6.919-3.972,15.632-12.538c4.348-4.238,8.86-9.971,12.471-17.066
				c3.619-7.07,6.159-15.578,6.562-24.652c0.262-9.079-1.648-17.751-4.74-25.066c-3.082-7.34-7.162-13.388-11.189-17.933
				c-8.064-9.18-15.197-12.699-14.673-13.648c0.173-0.358,2.138,0.099,5.408,1.654c3.273,1.54,7.743,4.411,12.489,8.907
				c4.751,4.476,9.601,10.76,13.285,18.669c3.691,7.875,6.031,17.47,5.728,27.648c-0.443,10.172-3.479,19.57-7.736,27.154
				c-4.252,7.619-9.55,13.531-14.615,17.647c-5.062,4.137-9.73,6.673-13.107,7.969C830.815,894.823,828.822,895.135,828.676,894.765
				z"/>
		</g>
		<g>
			<path fill="#FFC08C" d="M488.311,418.589c0.247,0.35-1.304,2.004-4.422,4.634c-3.143,2.584-7.802,6.315-14.554,9.65
				c-6.663,3.24-16.045,6.039-26.425,3.412c-5.127-1.311-10.24-4.43-13.946-8.851c-3.738-4.396-6.314-9.867-7.59-15.689
				c-1.286-5.814-1.303-11.574-0.823-16.944c0.506-5.371,1.425-10.444,2.777-15.253c2.652-9.594,7.579-17.784,13.608-22.705
				c5.932-4.989,12.216-6.793,16.424-7.044c4.274-0.282,6.507,0.713,6.443,1.052c-0.048,0.514-2.319,0.396-6.063,1.375
				c-3.7,0.941-8.974,3.158-13.816,7.933c-4.859,4.66-8.829,12.009-10.976,20.89c-1.09,4.426-1.848,9.278-2.234,14.262
				c-0.366,4.97-0.28,10.103,0.824,15.074c1.079,4.94,3.212,9.485,6.157,13.067c2.949,3.596,6.713,6.019,10.799,7.237
				c4.082,1.241,8.349,1.365,12.272,0.901c3.942-0.464,7.542-1.522,10.775-2.803c6.463-2.57,11.425-5.643,14.95-7.583
				C486.004,419.217,488.055,418.227,488.311,418.589z"/>
		</g>
		<g>
			<path fill="#FFC08C" d="M573.314,405.276c0.7,0.228,0.044,4.982-4.727,10.789c-2.355,2.872-5.783,5.841-10.212,8.146
				c-4.407,2.308-9.879,3.85-15.754,3.807c-5.874-0.122-11.301-1.817-15.641-4.248c-4.362-2.428-7.705-5.493-9.979-8.429
				c-4.606-5.939-5.128-10.71-4.422-10.918c0.905-0.387,2.89,3.477,7.707,7.896c4.677,4.401,12.812,9.215,22.423,9.387
				c9.612,0.098,17.879-4.485,22.677-8.753C570.328,408.67,572.421,404.864,573.314,405.276z"/>
		</g>
		<g>
			<path fill="#FCDEAA" d="M661.73,390.587c0.013-0.481,1.842-0.734,4.937-1.488c3.075-0.79,7.466-2.2,12.108-5.227
				c4.592-3.01,9.423-7.773,12.21-14.291c2.818-6.46,3.449-14.747,0.993-22.553c-2.365-7.881-7.871-13.895-14.054-17.468
				c-6.212-3.576-12.848-4.827-18.3-4.586c-5.52,0.138-9.725,1.825-12.115,3.609c-2.437,1.773-3.19,3.496-3.667,3.306
				c-0.334-0.051-0.409-2.272,1.982-5.093c2.32-2.79,7.15-5.508,13.395-6.267c6.212-0.885,14.03,0.027,21.516,3.939
				c3.7,1.989,7.328,4.678,10.367,8.197c3.04,3.52,5.451,7.794,6.898,12.471c2.941,9.36,1.983,19.217-1.721,26.857
				c-3.705,7.729-9.748,12.846-15.243,15.73c-5.569,2.903-10.641,3.74-14.05,3.815C663.542,391.568,661.711,390.972,661.73,390.587z
				"/>
		</g>
		<g>
			<path fill="#EDC38E" d="M725.95,810.173c0.174-0.426,2.719-0.09,5.627,3.168c1.417,1.612,2.772,3.964,3.509,6.982
				c0.719,2.983,0.856,6.735-0.49,10.571c-2.507,7.647-10.363,14.59-20.365,16.739c-2.466,0.564-5.023,0.875-7.61,0.981
				c-1.293,0.045-2.595,0.05-3.9-0.001c-1.208-0.036-3.121-0.201-2.586-0.142c-0.056,0.022-0.017,0.037-0.002,0.115l0.002,0.015
				l-0.008,0.245l-0.019,0.539c-0.001,0.361-0.06,0.716-0.095,1.075l-0.25,2.155c-0.281,1.417-0.483,2.87-0.919,4.265
				c-3.032,11.34-10.879,20.364-19.932,24.945c-9.195,4.6-18.741,4.524-25.845,2.662c-7.215-1.876-12.245-5.375-15.139-8.175
				c-2.894-2.868-3.837-4.95-3.46-5.279c0.461-0.424,2.193,0.88,5.39,2.734c3.205,1.809,8.042,4.104,14.365,5.034
				c6.252,0.939,14.095,0.303,21.131-3.647c6.987-3.939,13.167-11.362,15.568-20.412c0.359-1.111,0.5-2.26,0.742-3.379l0.205-1.694
				c0.03-0.282,0.086-0.562,0.085-0.843l0.045-1.12c0.056-2.533-0.165-5.175-0.212-7.655c0.008-0.293-0.065-0.677,0.01-0.894
				l0.942,0.148l1.878,0.295c1.252,0.189,2.499,0.378,3.741,0.566c3.021,0.43,3.536,0.404,4.76,0.511
				c1.123,0.075,2.228,0.104,3.316,0.104c2.173-0.017,4.272-0.19,6.262-0.55c7.933-1.329,14.105-6.191,16.502-11.465
				c2.464-5.238,1.273-10.65-0.26-13.622C727.384,812.03,725.614,810.72,725.95,810.173z"/>
		</g>
		<g>
			<path fill="#EDB180" d="M387.354,866.833c0.211,0.44-1.198,1.866-4.479,3.19c-3.248,1.324-8.479,2.289-14.841,1.352
				c-6.302-0.967-13.712-3.932-20.056-9.86c-6.372-5.921-10.903-14.658-12.689-24.238c-1.759-9.592-0.783-19.021,1.705-26.905
				c2.44-7.913,6.083-14.374,9.532-19.385c7.066-9.973,13.079-14.514,13.826-13.838c0.951,0.804-3.47,6.722-8.867,16.85
				c-2.628,5.082-5.425,11.273-7.211,18.412c-1.829,7.089-2.406,15.197-0.918,23.364c1.517,8.113,5.097,15.362,9.932,20.358
				c4.841,5.047,10.764,8.086,15.954,9.567c5.234,1.457,9.76,1.501,12.887,1.217C385.269,866.648,387.095,866.25,387.354,866.833z"
				/>
		</g>
		<g>
			<path fill="#EDB180" d="M410.923,887.776c0.439,0.321,0.433,1.286-0.265,2.721c-0.689,1.433-2.203,3.237-4.611,4.808
				c-2.396,1.575-5.728,2.794-9.627,2.953c-3.864,0.174-8.391-0.861-12.252-3.706c-3.812-2.911-6.072-6.968-6.985-10.726
				c-0.937-3.787-0.699-7.328,0.143-10.068c0.835-2.752,2.144-4.709,3.327-5.771c1.182-1.072,2.107-1.347,2.538-1.016
				c0.964,0.743-0.236,3.53-0.135,7.706c-0.025,4.067,1.643,9.988,6.038,13.311c4.419,3.289,10.57,3.235,14.469,2.074
				C407.6,888.989,409.941,887.058,410.923,887.776z"/>
		</g>
		<g>
			<path fill="#EDB180" d="M442.053,1006.629c0.434,0.281,0.141,1.902-1.376,4.351c-1.502,2.436-4.357,5.625-8.795,8.408
				c-4.428,2.729-10.487,4.982-17.563,5.198c-7.081,0.257-14.841-1.822-21.707-6.008c-6.852-4.21-12.151-10.027-15.517-16.023
				c-3.411-5.978-5.074-11.951-5.809-16.947c-1.35-10.104,0.603-16.171,1.592-16.064c1.246,0.048,1.459,6.055,4.075,14.82
				c1.351,4.35,3.365,9.373,6.59,14.244c3.172,4.87,7.704,9.488,13.347,12.968c5.649,3.432,11.806,5.283,17.43,5.449
				c5.657,0.205,10.816-1.079,14.867-2.776C437.372,1010.765,441.009,1005.878,442.053,1006.629z"/>
		</g>
		<g>
			<path fill="#EDC38E" d="M664.687,694.455c0.508-0.139,1.475,1.228,2.37,4.054c0.908,2.816,1.473,7.164,0.86,12.505
				c-0.593,5.33-2.605,11.606-6.587,17.629c-3.938,6.001-10.086,11.676-18.024,14.936c-7.993,3.124-16.358,3.266-23.351,1.645
				c-7.04-1.606-12.829-4.755-16.939-8.201c-4.132-3.439-6.726-6.974-8.014-9.638c-1.304-2.662-1.548-4.319-1.085-4.569
				c1.136-0.679,4.465,4.67,12.467,9.482c3.946,2.417,9.097,4.544,15.025,5.506c5.905,0.98,12.597,0.586,18.845-1.841
				c6.196-2.56,11.307-6.895,14.901-11.682c3.622-4.79,5.88-9.885,7.064-14.358C664.682,700.916,663.396,694.748,664.687,694.455z"
				/>
		</g>
		<g>
			<path fill="none" stroke="#ECEAE6" stroke-width="1.722" stroke-miterlimit="10" d="M551.601,724.213"/>
		</g>
		<g>
			<path fill="#EDC38E" d="M598.678,725.348c1.009,0.197,1.547,4.385-0.972,10.69c-1.3,3.093-3.461,6.711-7.032,9.832
				c-3.541,3.171-8.687,5.515-14.318,5.79c-5.637,0.292-11.323-1.642-15.008-5.429c-3.653-3.772-4.929-8.328-4.931-11.988
				c0.016-3.716,1.31-6.582,2.64-8.094c1.341-1.541,2.503-1.868,2.885-1.53c0.93,0.774-1.049,4.085,0.248,9.042
				c0.597,2.412,2.031,5.178,4.324,7.048c2.239,1.857,5.712,2.942,9.438,2.754c7.731-0.286,13.39-5.681,16.671-10.227
				C595.949,728.645,597.504,725.062,598.678,725.348z"/>
		</g>
		<g>
			<path fill="#EDC38E" d="M632.051,383.405c0.83-0.906,4.154,1.436,9.774,1.747c2.764,0.135,6.075-0.266,9.068-1.799
				c2.964-1.46,5.595-4.277,7.154-7.89c1.508-3.634,1.698-7.484,0.683-10.628c-0.984-3.216-3.001-5.872-5.022-7.762
				c-4.136-3.818-8.132-4.573-8.059-5.8c0.016-0.526,1.071-1.115,3.11-1.198c2.022-0.089,5.026,0.443,8.294,2.257
				c3.205,1.83,6.704,5.023,8.756,9.847c2.116,4.829,2.109,11.018-0.205,16.482c-2.311,5.465-6.748,9.779-11.688,11.622
				c-4.891,1.886-9.62,1.597-13.165,0.57c-3.578-1.082-6.051-2.869-7.395-4.382C631.996,384.95,631.684,383.783,632.051,383.405z"/>
		</g>
		<g>
			<path fill="#EDB180" d="M486.206,399.433c0.416,0.307,0.28,1.363-0.408,3.044c-0.714,1.664-1.909,4.041-4.335,6.633
				c-2.415,2.514-6.436,5.403-12.194,5.231c-1.444-0.085-2.886-0.363-4.422-1.05c-1.531-0.697-2.876-1.725-3.964-3.001
				c-1.089-1.276-1.957-2.799-2.456-4.576c-0.296-1.313-0.183-0.815-0.223-0.923l-0.025-0.002l-0.031,0.023l-0.007,0.007
				l-0.003,0.001l-0.497-0.069c-7.185-0.962-12.79-5.909-14.799-11.864c-1.031-2.979-1.019-6.099-0.337-8.67
				c0.658-2.599,1.863-4.745,3.225-6.423c2.747-3.387,6.084-4.852,8.365-5.221c2.328-0.36,3.584,0.173,3.632,0.687
				c0.219,1.196-4.39,2.314-7.196,7.794c-1.344,2.619-2.04,6.18-0.607,9.182c1.278,3.056,4.856,5.915,8.737,6.373l0.233,0.039
				c0.105,0.008,0.435-0.027,0.642-0.038l1.41-0.099c0.898-0.011,1.974-0.272,2.973-0.436c1.835-0.324,3.652-0.644,5.449-0.961
				c-0.783,1.824-1.561,3.635-2.333,5.432c-0.425,0.916-0.592,1.559-0.831,2.275l-0.086,0.264c-0.027,0.061,0.03,0.432,0.018,0.352
				l0.017,0.095l0.025,0.192c0.114,0.527,0.376,1.112,0.736,1.613c0.743,1.031,1.628,1.532,3.017,1.809
				c2.727,0.476,5.795-0.676,8.007-2.166c2.304-1.51,4.112-3.22,5.502-4.282C484.827,399.616,485.784,399.123,486.206,399.433z"/>
		</g>
		<g>
			<path fill="#EDC38E" d="M610.757,954.413c0.539-0.017,1.14,1.042,1.454,3.111c0.322,2.063,0.171,5.143-0.951,8.76
				c-1.108,3.611-3.339,7.69-6.917,11.336c-3.545,3.636-8.589,6.764-14.58,8.01c-6.01,1.151-11.868,0.2-16.538-1.796
				c-4.704-1.992-8.33-4.901-10.741-7.81c-2.426-2.908-3.748-5.694-4.243-7.723c-0.506-2.031-0.358-3.24,0.147-3.431
				c1.164-0.461,3.232,3.253,8.142,6.995c4.718,3.746,13.026,7.384,21.626,5.718c8.58-1.765,14.854-8.314,17.771-13.585
				C609.022,958.658,609.505,954.435,610.757,954.413z"/>
		</g>
		<g>
			<path fill="#D491ED" d="M620.411,170.43c-2.123,2.676-5.294,5.73-9.598,8.58c-5.526,3.694-13.001,6.806-21.552,8.551
				c-8.522,1.832-18.004,2.385-27.747,2.647c-9.802,0.291-19.371,0-27.951-1.716c-4.305-0.814-8.318-2.007-11.983-3.461
				c1.745-1.396,3.607-2.676,5.497-3.839c2.356,0.64,4.886,1.163,7.504,1.571c8.028,1.28,17.102,1.425,26.758,1.134
				c9.685-0.262,18.789-0.64,26.846-2.036c8.057-1.367,14.95-3.781,20.331-6.69c4.159-2.239,7.329-4.654,9.714-6.777
				c0.174,0.116,0.32,0.262,0.466,0.378C619.335,169.296,619.917,169.848,620.411,170.43z"/>
		</g>
		<path fill="#D491ED" d="M527.077,181.191c-1.891,1.163-3.752,2.443-5.497,3.839c-3.607-1.483-6.864-3.17-9.627-5.003
			c-5.584-3.636-9.249-7.737-11.314-10.82c-0.553-0.843-0.989-1.571-1.338-2.24c0.349-0.291,0.727-0.611,1.134-0.902
			c0.087-0.058,0.204-0.145,0.291-0.204c2.356,2.385,6.573,6.602,13.524,10.325C517.886,178.138,522.191,179.883,527.077,181.191z"
			/>
		<path fill="#D491ED" d="M511.953,180.028c2.763,1.832,6.021,3.519,9.627,5.003c-0.611,0.494-1.193,0.989-1.774,1.512
			c-2.967,2.647-6.021,7.155-9.336,11.256c-1.658-0.465-3.287-0.96-4.886-1.483c-12.827-4.101-16.142-20.738-6.282-29.347
			c0.349,0.669,0.785,1.396,1.338,2.24C502.704,172.291,506.369,176.392,511.953,180.028z"/>
		<path fill="#D491ED" d="M562.765,148.005c-0.087,0.553-0.174,1.105-0.291,1.658c-0.174,1.018-0.436,2.007-0.756,2.996
			c-2.618,8.086-9.453,14.077-16.695,18.527c-5.817,3.548-12.158,6.399-17.945,10.005c-4.886-1.309-9.191-3.054-12.827-5.003
			c-6.951-3.723-11.169-7.94-13.524-10.325c11.372-8.26,25.769-14.164,41.097-16.666c6.341-1.047,12.856-1.483,19.371-1.28
			C561.718,147.947,562.241,147.947,562.765,148.005z"/>
	</g>
</g>
</svg>
