<?xml version="1.0" encoding="utf-8"?>
<!-- Generator: Adobe Illustrator 23.0.3, SVG Export Plug-In . SVG Version: 6.00 Build 0)  -->
<svg version="1.1" id="Layer_1" xmlns="http://www.w3.org/2000/svg" xmlns:xlink="http://www.w3.org/1999/xlink" x="0px" y="0px"
	 viewBox="0 0 1200 1200" enable-background="new 0 0 1200 1200" xml:space="preserve">
<g>
	<g>
		<path fill="#40426B" d="M807.056,1108.096c-1.532,7.729-3.219,15.795-8.248,21.926c-5.029,6.131-14.519,9.505-21.288,5.288
			c-5.526-3.444-9.232-11.397-15.696-10.397c-6.934,1.073-7.35,10.688-11.298,16.391c-5.141,7.427-17.072,7.338-24.497,2.098
			c-7.425-5.241-11.353-13.938-14.621-22.327c-9.722-24.948-16.597-50.964-20.457-77.407c-3.584-24.555-4.005-51.54,10.419-71.899
			c15.329-21.637,45.648-30.511,71.605-23.832c22.631,5.823,60.954-5.081,62.664,19.799
			C837.89,1000.488,813.462,1075.786,807.056,1108.096z"/>
		<path fill="#40426B" d="M538.216,1117.998c2.411,7.543,5.026,15.405,11.208,21.003c6.183,5.598,17.114,7.999,24.314,3.114
			c5.879-3.989,9.313-12.284,16.642-11.942c7.862,0.367,9.192,9.902,14.126,15.182c6.425,6.877,19.777,5.583,27.621-0.387
			c7.844-5.97,11.46-15.029,14.366-23.714c8.643-25.829,14.003-52.436,15.947-79.162c1.805-24.817-0.15-51.736-18.132-70.555
			c-19.11-19.998-112.042-52.356-140.519-43.089c-22.412,7.294-5.395,57.112-2.603,71.384
			C509.228,1040.938,525.545,1078.303,538.216,1117.998z"/>
		<path fill="#FCDEAA" d="M929.992,837.978c-2.986,26.972-12.39,51.529-29.196,73.005c-13.661,17.473-30.53,29.863-53.531,31.26
			c-5.687,0.35-8.164,2.256-8.419,8.165c-1.271,26.686-16.965,44.063-39.425,54.674c-43.237,20.459-86.856,21.762-129.172-3.177
			c-6.799-4.035-10.325-5.21-14.773,2.7c-20.332,36.407-82.186,59.471-130.538,43.936c-14.804-4.734-27.194-12.93-34.469-27.067
			c-3.081-5.973-6.322-6.989-12.358-4.479c-59.98,24.875-130.03-24.494-142.325-84.601c-3.495-17.028-1.525-30.784,7.085-52.196
			c-0.064-2.859-2.351-3.876-4.384-4.702c-35.962-14.201-47.908-53.848-44.349-84.092c2.573-21.762,10.293-41.427,25.161-57.788
			c4.066-4.511,6.004-8.069,0.476-12.898c-24.462-21.412-31.832-50.385-33.516-80.915c-3.209-58.264,13.248-111.827,42.03-161.926
			c16.266-28.338,36.661-53.277,63.347-72.528c17.187-12.422,35.931-20.777,57.661-20.586c7.593,0.032,14.995,0.699,21.063,6.036
			c6.767-0.445,9.531-5.75,12.835-10.452c15.948-22.619,38.345-33.071,65.285-37.741c66.27-11.437,120.118,30.022,145.12,80.089
			c4.321,8.609,8.292,11.786,18.013,11.405c23.318-0.953,46.128,2.573,66.842,14.105c36.153,20.173,48.575,53.594,50.163,92.543
			c0.318,7.434-0.953,14.931-1.652,22.365c-0.413,4.543,0.349,8.419,5.782,8.546c22.238,0.54,39.775,10.579,53.975,26.94
			c15.63,17.981,23.286,39.33,26.4,62.775c3.367,25.288,0.254,49.496-11.024,72.306c-3.495,7.021-2.383,11.056,3.018,16.329
			c12.708,12.358,21.063,27.194,21.508,45.525C933.137,809.259,931.549,823.682,929.992,837.978z"/>
		<path fill="#FFC08C" d="M470.371,390.798c-14.356,3.002-21.049,15.056-29.442,25.04c-28.751,34.201-41.01,75.202-48.253,118.169
			c-3.525,20.914-7.759,41.72-7.195,63.185c0.783,29.784,8.138,56.794,29.81,78.549c11.277,11.32,9.445,25.448,7.253,39.107
			c-1.538,9.585-3.93,19.156-6.375,28.534c-7.94,30.446,1.022,58.761,12.7,85.362c7.903,18.002,26.425,28.68,45.024,35.909
			c8.476,3.294,16.673,7.399,25.984,9.11c13.282,2.441,19.278,13.791,24.195,24.992c5.565,12.681,11.192,25.221,18.957,36.799
			c19.069,28.432,41.215,33.443,68.579,24.747c22.035-7.003,38.947-1.475,56.777,9.759c25.321,15.954,52.931,23.815,83.294,24.645
			c26.965,0.737,65.111-28.273,68.453-51.985c1.919-13.622,9.153-20.859,21.988-22.409c41.451-5.007,76.914-59.469,76.814-97.001
			c-0.028-10.55,9.218-17.459,7.69-27.764c6.504,13.711,4.94,28.129,3.358,42.433c-2.986,26.98-12.394,51.536-29.175,73.003
			c-13.658,17.471-30.525,29.868-53.549,31.263c-5.68,0.344-8.147,2.254-8.424,8.174c-1.251,26.684-16.964,44.052-39.424,54.677
			c-43.22,20.445-86.844,21.74-129.151-3.2c-6.802-4.009-10.34-5.186-14.767,2.727c-20.363,36.402-82.202,59.469-130.56,43.93
			c-14.788-4.752-27.195-12.95-34.478-27.083c-3.074-5.966-6.309-6.978-12.344-4.474c-59.966,24.884-130.029-24.491-142.334-84.599
			c-3.483-17.013-1.529-30.795,7.087-52.19c-0.069-2.858-2.329-3.884-4.38-4.695c-35.969-14.226-47.911-53.876-44.347-84.113
			c2.564-21.755,10.285-41.411,25.153-57.789c4.091-4.506,6.025-8.07,0.502-12.902c-24.465-21.404-31.847-50.362-33.53-80.909
			c-3.213-58.273,13.243-111.829,42.03-161.934c16.279-28.333,36.675-53.249,63.346-72.519
			c17.173-12.407,35.938-20.764,57.674-20.596C456.894,384.809,464.302,385.469,470.371,390.798z"/>
		<path fill="#40426B" d="M403.963,464.026c-1.715,38.186-8.323,76.754-22.619,112.525c-4.13,10.452-8.959,20.65-14.518,30.53
			c-0.381,0.667-0.731,1.303-1.112,1.97c-7.402,12.867-16.393,25.256-28.878,33.58c-13.121,8.736-30.816,12.231-44.794,5.528
			c-18.871-9.086-24.684-32.754-23.191-53.372c1.874-25.669,11.659-50.29,21.349-74.403c12.263-30.562,24.526-61.123,36.788-91.653
			c10.992-27.417,21.984-54.833,32.976-82.218c3.304-8.196,16.615-55.564,30.022-47.018c3.812,2.414,5.496,9.562,6.29,17.282
			c0.318,2.891,0.508,5.846,0.635,8.673c0.254,5.369,0.286,10.198,0.604,12.993c1.493,13.597,2.923,27.194,4.066,40.855
			C403.963,407.414,405.265,435.72,403.963,464.026z"/>
		<path fill="#40426B" d="M819.055,487.249c-10.23,11.627-27.861,15.344-43.365,12.422c-13.692-2.573-25.987-9.562-37.138-17.695
			c-1.493-1.048-2.954-2.16-4.384-3.272c-39.711-30.689-68.78-72.624-90.128-117.132c-7.084-14.804-13.375-29.926-19.093-45.239
			c-4.225-11.151-8.133-22.397-11.85-33.707c-4.289-12.993-8.292-26.082-12.263-39.171c-2.383-7.91-13.597-31.038-8.292-38.79
			c9.022-13.121,39.807,25.288,46.033,31.515c20.84,20.936,41.681,41.84,62.521,62.775c23.223,23.318,46.446,46.637,69.669,69.955
			c18.362,18.426,37.011,37.233,48.765,60.138C828.999,447.443,832.875,471.492,819.055,487.249z"/>
		<path fill="#171C2E" d="M793.195,457.386c-4.638,9.022-13.534,15.154-22.905,18.966c-10.039,4.13-20.872,5.909-31.737,5.623
			c-1.493-1.048-2.954-2.16-4.384-3.272c-39.711-30.689-68.78-72.624-90.128-117.132c-7.084-14.804-13.375-29.926-19.093-45.239
			c1.398-8.451,3.876-16.679,8.514-23.763c6.29-9.562,18.966-20.364,28.56-10.103c9.975,10.643,17.123,25.288,26.368,36.788
			c19.411,24.176,41.554,46.16,65.92,65.317c11.818,9.276,24.335,18.14,33.008,30.403
			C795.959,427.238,800.057,444.044,793.195,457.386z"/>
		<path fill="#171C2E" d="M403.963,464.026c-1.715,38.186-8.323,76.754-22.619,112.525c-3.908,5.083-8.292,9.721-13.502,13.47
			c-10.039,7.275-23.7,10.706-35.073,5.75c-13.089-5.687-19.792-20.967-19.792-35.232c0-14.296,5.401-27.925,10.452-41.268
			c6.64-17.505,12.866-35.168,18.617-52.991c10.166-31.324,18.934-63.093,26.336-95.18c3.558-15.376,9.372-48.638,27.893-54.325
			c0.318,2.891,0.508,5.846,0.635,8.673c0.254,5.369,0.286,10.198,0.604,12.993c1.493,13.597,2.923,27.194,4.066,40.855
			C403.963,407.414,405.265,435.72,403.963,464.026z"/>
		<path fill="#5CFBE6" d="M673.453,999.643c0,0-0.029-0.214-0.03-0.204c0,0.01,0.944,0.069,0.944,0.069L673.453,999.643z"/>
		<path fill="#5CFBE6" d="M728.694,675.41c-1.343,1.112-2.686,2.224-4.033,3.336C726.002,677.633,727.348,676.521,728.694,675.41z"
			/>
		<path fill="#40426B" d="M667.581,530.042c-2.319,2.446-4.765,4.797-7.37,7.053c-7.815,6.83-16.107,12.263-24.685,16.456
			c-67.128,32.817-154.365-9.594-205.862-56.58c-20.586-18.775-37.233-40.474-50.417-65.285
			c-40.061-75.356,8.228-178.605,79.232-218.411c3.781-2.16,7.624-4.098,11.532-5.846c39.457-17.663,96.832-22.206,135.907-0.127
			c34.819,19.697,63.951,61.886,78.088,98.579c11.056,28.656,18.394,58.391,18.871,89.048
			C703.639,442.137,701.51,494.27,667.581,530.042z"/>
		<path fill="#A16247" d="M717.799,619.259c13.171-2.371,24.92-7.99,35.771-15.662c18.011,25.084,43.25,70.497,56.694,98.192
			c4.973,10.243,1.837,18.122-7.23,23.317c-12.719,7.287-19.441,6.492-27.049-5.041C758.489,693.545,731.72,647.87,717.799,619.259z
			"/>
		<path fill="#40426B" d="M706.834,639.642c1.17-1.02,2.334-2.047,3.491-3.08c3.208-2.866,6.413-5.825,10.232-7.805
			c3.966-2.057,8.969-3.029,13.207-1.178c5.212,2.277,8.021,8.243,8.22,13.927s-1.721,11.203-3.615,16.565
			c5.266-0.909,10.638-1.821,15.925-1.046c5.287,0.774,10.571,3.533,13.02,8.282c2.624,5.088,1.535,11.238,0.076,16.774
			c-13.034,49.469-52.297,91.203-100.879,107.229c-14.6,4.816-30.258,7.434-45.401,4.779s-29.719-11.125-37.338-24.478
			c-7.005-12.278-7.491-27.735-2.58-40.99c3.711-10.016,10.358-18.964,18.516-25.818c7.289-6.125,13.737-10.052,22.677-12.713
			c19.084-5.679,36.778-14.856,53.16-26.121C686.427,656.486,696.873,648.32,706.834,639.642z"/>
		<path fill="none" d="M502.764,169.529c-4.13-0.762-8.324-1.207-12.549-1.398c0.953-1.08,1.938-2.097,2.923-3.145L502.764,169.529z
			"/>
		<path fill="none" d="M511.786,173.754l-9.022-4.225c5.274,0.921,10.452,2.319,15.471,4.257
			C516.075,173.754,513.946,173.754,511.786,173.754z"/>
		<path fill="#171C2E" d="M635.526,553.551c-67.128,32.817-154.365-9.594-205.862-56.58c-20.586-18.775-37.233-40.474-50.417-65.285
			c-40.061-75.356,8.228-178.605,79.232-218.411c-30.848,58.169-36.439,129.998-12.104,191.439
			c18.331,46.224,52.164,85.903,94.131,112.557C569.32,535.538,601.851,547.705,635.526,553.551z"/>
		<path fill="#FCDEAA" d="M598.865,213.084c-20.904,21.253-46.955,28.084-76.087,24.335c-4.575-0.572-9.054-1.811-13.565-2.732
			c-1.239,3.749-4.098,6.513-4.892,10.77c-6.131,32.277-30.911,49.559-63.697,43.777c-7.656-1.366-9.848,3.685-14.169,7.021
			c-20.269,15.694-42.983,19.284-66.651,10.261c-22.143-8.482-32.5-26.908-34.628-49.623c-2.446-26.082,7.307-48.066,28.497-62.998
			c9.69-6.862,11.818-12.167,9.626-23.604c-7.148-37.297,30.689-70.654,70.114-62.934c5.051,1.017,9.912,3.018,14.836,4.575
			c8.673-34.692,26.305-51.021,56.993-52.8c32.055-1.874,62.775,17.695,73.99,46.7c3.654,9.435,0.35,20.332,4.638,28.624
			c3.971,7.624,14.55,10.452,19.983,18.331C616.814,171.562,615.544,196.151,598.865,213.084z"/>
		<path fill="#40426B" d="M767.797,607.376c-2.103,0.681-4.181,1.414-6.156,2.372c-3.001,1.455-5.753,3.599-7.333,6.488
			c-2.568,4.696-1.404,11.031,2.623,14.612c2.436,2.166,5.575,3.565,8.83,3.915c1.981,0.213,4.007,0.266,5.897,0.883
			c1.891,0.618,3.683,1.936,4.214,3.816c0.571,2.019-0.404,4.107-1.239,6.035c-1.373,3.171-3.388,7.516-3.331,11.021
			c0.047,2.842,1.519,6.017,3.13,8.317c3.659,5.223,9.652,8.726,15.607,10.912c19.364,7.109,41.613,6.241,59.896-3.419
			s32.099-28.262,35.222-49.114c3.123-20.852-4.992-43.361-21.274-56.249c-7.979-6.316-19.851-11.236-30.109-9.271
			c-8.899,1.704-9.431,6.715-13.984,13.635c-10.217,15.528-27.022,26.547-44.248,33.437
			C773.025,605.773,770.393,606.535,767.797,607.376z"/>
		<path fill="#FFC08C" d="M448.261,111.916c0.116,6.509-3.592,8.165-9.526,9.563c-15.292,3.601-28.968,10.267-39.95,22.391
			c-11.385,12.569-14.44,26.947-13.127,43.089c0.472,5.795,3.648,10.397,8.042,12.635c11.756,5.987,13.152,15.449,12.958,27.304
			c-0.429,26.221,26.693,43.567,50.686,33.091c9.536-4.164,18.392-9.671,25.889-16.858c4.646-4.454,10.354-7.295,15.04-11.473
			c5.666-5.052,7.882-0.021,10.949,3.02c-1.244,3.75-4.097,6.526-4.904,10.781c-6.12,32.286-30.92,49.56-63.681,43.776
			c-7.669-1.354-9.867,3.685-14.191,7.034c-20.253,15.687-42.965,19.275-66.632,10.239c-22.155-8.459-32.505-26.893-34.64-49.608
			c-2.453-26.099,7.31-48.077,28.502-63.018c9.695-6.836,11.797-12.158,9.609-23.604c-7.122-37.271,30.69-70.654,70.133-62.905
			C438.469,108.364,443.319,110.376,448.261,111.916z"/>
		<g>
			<g>
				<g>
					<g>
						<g>
							<path fill="#FFFFFF" d="M635.911,419.22c0.086-0.011,0.2,0.315,0.34,0.954c0.07,0.319,0.146,0.717,0.227,1.189
								c0.09,0.472,0.173,1.019,0.197,1.639c0.252,2.474,0.172,6.128-0.778,10.51c-0.189,1.108-0.585,2.217-0.909,3.398
								c-0.359,1.17-0.844,2.352-1.319,3.584c-0.578,1.186-1.076,2.468-1.806,3.675c-0.349,0.612-0.683,1.246-1.062,1.863
								c-0.401,0.605-0.807,1.217-1.219,1.838c-1.73,2.416-3.709,4.877-6.169,7.015c-2.43,2.161-5.206,4.121-8.294,5.696
								c-3.114,1.523-6.349,2.565-9.536,3.21c-3.188,0.683-6.343,0.787-9.314,0.72c-0.743-0.044-1.477-0.087-2.201-0.129
								c-0.722-0.068-1.429-0.182-2.128-0.27c-1.404-0.142-2.728-0.513-4.023-0.764c-1.27-0.36-2.506-0.682-3.658-1.098
								c-1.14-0.451-2.264-0.799-3.263-1.314c-4.075-1.873-7.045-4.003-8.871-5.69c-0.482-0.392-0.869-0.787-1.193-1.142
								c-0.328-0.349-0.601-0.648-0.814-0.896c-0.427-0.495-0.62-0.783-0.559-0.844c0.061-0.062,0.372,0.104,0.903,0.473
								c0.266,0.184,0.587,0.42,0.959,0.703c0.368,0.289,0.794,0.616,1.31,0.94c1.962,1.412,4.972,3.234,8.955,4.82
								c0.977,0.443,2.071,0.723,3.173,1.107c1.113,0.35,2.304,0.609,3.522,0.91c1.242,0.192,2.506,0.51,3.843,0.604
								c0.665,0.064,1.337,0.156,2.022,0.203c0.686,0.024,1.381,0.048,2.086,0.073c2.809,0,5.78-0.142,8.763-0.818
								c2.984-0.638,5.999-1.629,8.901-3.045c2.875-1.47,5.478-3.285,7.78-5.288c2.332-1.979,4.23-4.269,5.917-6.516
								c0.403-0.578,0.802-1.148,1.194-1.711c0.374-0.576,0.704-1.168,1.052-1.739c0.728-1.125,1.232-2.327,1.825-3.435
								c0.49-1.154,0.998-2.262,1.387-3.362c0.354-1.111,0.788-2.155,1.02-3.202c1.124-4.138,1.475-7.638,1.524-10.055
								c0.052-0.607,0.046-1.144,0.036-1.612c-0.002-0.468,0.002-0.866,0.015-1.189C635.771,419.58,635.825,419.232,635.911,419.22z
								"/>
						</g>
					</g>
				</g>
			</g>
			<g>
				<g>
					<g>
						<g>
							<path fill="#FFFFFF" d="M633.267,487.016c-0.615,0.347-4.702-5.764-9.66-13.32c-4.944-7.564-8.913-13.754-8.349-14.179
								c0.543-0.412,5.454,5.159,10.451,12.802C630.718,479.954,633.862,486.683,633.267,487.016z"/>
						</g>
					</g>
				</g>
			</g>
		</g>
		<path fill="#E094B8" d="M672.537,537.476c-7.624,6.513-16.361,11.691-25.701,15.249c-10.928,4.162-26.781,4.416-31.165-9.086
			c-2.16-6.608-2.383-16.837-1.684-25.606c0.286-3.082,0.635-6.004,1.112-8.514c0.095-0.572,0.222-1.112,0.318-1.62
			c1.239-6.036,4.067-11.977,8.292-16.456c0.159-0.222,0.35-0.413,0.572-0.635c1.62-1.652,3.463-3.113,5.496-4.225
			c0.508-0.286,1.017-0.572,1.525-0.826c0.127-0.063,0.222-0.095,0.349-0.159c0.794-0.381,1.652-0.699,2.51-0.953
			c4.416-1.334,9.118-1.239,13.629-0.127c3.399,0.826,6.672,2.224,9.626,4.035c0.063,0.032,0.127,0.064,0.191,0.127
			c0.667,0.413,1.302,0.826,1.938,1.271c5.973,4.035,10.96,9.435,15.694,14.9c3.495,4.003,7.053,8.419,7.624,13.692
			C683.624,526.007,678.224,532.615,672.537,537.476z"/>
		<g>
			<g>
				<g>
					<g>
						<path fill="#FFFFFF" d="M537.636,384.025c0.12,0.097-0.66,1.344-2.354,3.391c-1.686,2.05-4.384,4.823-8.122,7.787
							c-1.863,1.49-4.025,2.967-6.415,4.443c-2.426,1.414-5.07,2.856-7.993,4.074c-5.812,2.496-12.625,4.33-19.931,4.932
							c-7.311,0.533-14.326-0.227-20.453-1.796c-3.076-0.753-5.911-1.769-8.526-2.792c-2.59-1.09-4.953-2.215-7.024-3.399
							c-4.151-2.352-7.244-4.675-9.227-6.44c-1.989-1.761-2.952-2.873-2.849-2.987c0.128-0.144,1.309,0.718,3.45,2.215
							c2.135,1.504,5.315,3.552,9.459,5.642c2.068,1.054,4.406,2.053,6.947,3.027c2.566,0.907,5.331,1.818,8.316,2.483
							c5.947,1.394,12.695,2.05,19.713,1.541c7.013-0.58,13.578-2.27,19.239-4.565c2.846-1.118,5.437-2.445,7.833-3.737
							c2.361-1.354,4.516-2.703,6.396-4.063c3.771-2.705,6.597-5.22,8.475-7.035C536.453,384.936,537.487,383.902,537.636,384.025z"
							/>
					</g>
				</g>
			</g>
		</g>
		<g>
			<g>
				<g>
					<g>
						<path fill="#FFFFFF" d="M688.935,315.888c0.143,0.068-0.226,1.258-1.175,3.295c-0.944,2.038-2.556,4.883-4.956,8.129
							c-2.392,3.247-5.657,6.833-9.808,10.224c-4.141,3.392-9.213,6.525-14.957,8.865c-5.764,2.291-11.592,3.544-16.929,3.966
							c-5.342,0.43-10.181,0.105-14.156-0.58c-3.979-0.678-7.113-1.614-9.205-2.43c-2.096-0.811-3.186-1.415-3.13-1.563
							c0.141-0.417,4.778,1.356,12.578,2.233c3.89,0.444,8.568,0.573,13.697,0.034c5.126-0.53,10.69-1.802,16.206-3.992
							c5.495-2.241,10.389-5.178,14.454-8.346c4.073-3.165,7.357-6.498,9.855-9.513
							C686.428,320.175,688.545,315.685,688.935,315.888z"/>
					</g>
				</g>
			</g>
		</g>
		<path fill="#FCB8FA" d="M759.806,592.722c-0.667,2.319-1.62,4.607-2.796,6.798c-0.604,1.207-1.302,2.414-2.097,3.59
			c-1.906,2.891-4.194,5.496-6.767,7.815c-1.112,0.985-2.287,1.938-3.526,2.796c-0.921,0.667-1.874,1.302-2.859,1.874
			c-1.08,0.635-2.224,1.207-3.336,1.715c-3.94,1.843-8.038,2.986-12.168,3.463c-1.08,0.191-2.192,0.254-3.272,0.318
			c-0.794,0.032-1.588,0.032-2.383,0c-10.452-0.159-20.777-4.162-28.973-10.992c-1.144-0.889-2.224-1.874-3.272-2.923
			c-2.827-2.827-5.305-6.004-7.339-9.499c-1.811-3.113-3.272-6.449-4.321-9.88c-0.254-0.826-0.477-1.684-0.699-2.542
			c-0.286-1.048-0.508-2.097-0.731-3.177c-0.604-2.827-0.985-5.687-1.239-8.577c-0.222-2.605,0.032-5.115,0.635-7.561
			c0.349-1.334,0.794-2.637,1.302-3.908c1.398-3.336,3.368-6.513,5.56-9.499c2.224-3.05,4.829-5.687,7.688-7.91
			c0.794-0.667,1.62-1.271,2.478-1.811c3.368-2.287,7.084-4.066,10.929-5.273c2.256-0.731,4.543-1.271,6.894-1.62
			c1.334-0.222,2.669-0.381,4.035-0.445c5.909-0.381,11.945,0.413,17.695,2.414c1.715,0.572,3.399,1.271,5.02,2.097
			c2.128,1.017,4.193,2.224,6.195,3.622c5.433,3.812,9.88,8.8,13.089,14.391c0.953,1.652,1.811,3.336,2.51,5.083
			C762.03,572.422,762.856,582.969,759.806,592.722z"/>
		<path fill="#FFFFFF" d="M636.193,512.664c-1.366,1.302-3.304,1.843-5.147,2.319c-4.352,1.048-11.373,3.336-17.06,3.05
			c0.286-3.082,0.635-6.004,1.112-8.514c0.095-0.572,0.222-1.112,0.318-1.62c1.239-6.036,4.067-11.977,8.292-16.456
			c0.159-0.222,0.35-0.413,0.572-0.635c1.62-1.652,3.463-3.113,5.496-4.225c0.604-0.349,1.239-0.699,1.874-0.985
			c0.985,1.239,1.652,2.732,2.256,4.194c1.62,4.003,2.923,8.165,3.876,12.39c0.222,1.017,0.381,2.192,0.445,3.304
			C638.481,508.185,638.099,510.854,636.193,512.664z"/>
		<path fill="#FFFFFF" d="M659.543,489.95c-0.064,0.826-0.159,1.62-0.318,2.414c-1.048,5.464-4.765,14.296-11.405,14.614
			c-2.446,0.127-5.051-0.953-7.561-2.605c-4.448-2.827-8.578-7.339-11.437-10.039c-1.239-1.144-2.446-2.414-3.082-4.003
			c0.159-0.222,0.349-0.413,0.572-0.635c1.493-1.525,3.145-2.859,4.988-3.939c0.127-0.063,0.222-0.095,0.349-0.159
			c0.794-0.381,1.652-0.699,2.51-0.953c4.416-1.334,9.118-1.239,13.629-0.127c3.399,0.826,6.672,2.224,9.626,4.035
			c0.063,0.032,0.127,0.064,0.191,0.127C658.273,489.092,658.908,489.505,659.543,489.95z"/>
		<path fill="#D491ED" d="M738.426,617.311c-3.94,1.843-8.038,2.986-12.168,3.463c-1.08,0.191-2.192,0.254-3.272,0.318
			c-0.794,0.032-1.588,0.032-2.383,0c-10.452-0.159-20.777-4.162-28.973-10.992c-1.144-0.889-2.224-1.874-3.272-2.923
			c-2.827-2.827-5.305-6.004-7.339-9.499c-1.811-3.113-3.272-6.449-4.321-9.88c-0.254-0.826-0.477-1.684-0.699-2.542
			c-0.286-1.048-0.508-2.097-0.731-3.177c-0.604-2.827-0.985-5.687-1.239-8.577c-0.222-2.605,0.032-5.115,0.635-7.561
			c0.349-1.334,0.794-2.637,1.302-3.908c1.398-3.336,3.368-6.513,5.56-9.499c2.224-3.05,4.829-5.687,7.688-7.91
			c0.794-0.667,1.62-1.271,2.478-1.811c3.368-2.287,7.084-4.066,10.929-5.273c-1.843,6.449-3.082,13.184-2.573,19.919
			c0.477,6.131,2.414,12.041,4.607,17.759c4.734,12.39,11.024,24.557,20.999,33.294
			C729.562,611.942,733.914,614.738,738.426,617.311z"/>
		<g>
			<path fill="#FCDEAA" d="M531.486,93.015c-1.14,0.289-2.514-8.085-10.151-18.279c-3.841-4.975-9.321-10.305-16.641-13.879
				c-7.214-3.646-16.401-5.013-25.568-3.227c-9.125,1.833-17.077,6.713-21.813,13.078c-4.836,6.365-6.827,13.768-7.184,19.92
				c-0.3,6.21,0.874,11.259,2.062,14.609c1.177,3.372,2.174,5.192,1.72,5.519c-0.304,0.239-2.074-1.059-4.142-4.363
				c-2.063-3.27-4.194-8.715-4.515-15.794c-0.251-7.002,1.426-15.733,6.927-23.634c5.445-7.952,14.905-13.967,25.6-16.096
				c10.708-2.113,21.568-0.249,29.82,4.341c8.316,4.488,14.063,10.922,17.75,16.762c3.642,5.935,5.369,11.314,6.059,15.068
				C532.109,90.806,531.9,92.946,531.486,93.015z"/>
		</g>
		<g>
			<path fill="#FFC08C" d="M370.78,196.933c-0.603,0.533-6.443-4.246-12.612-14.776c-2.981-5.275-5.956-12.109-7.147-20.308
				c-1.174-8.175-0.438-17.662,3.698-26.542c2.016-4.441,4.91-8.385,8.24-11.631c3.355-3.203,7.16-5.62,10.943-7.355
				c7.621-3.453,14.939-4.526,20.919-4.99c12.023-0.716,19.264,0.426,19.294,1.265c0.05,1.057-7.322,1.667-18.682,3.572
				c-5.634,1.034-12.301,2.573-18.743,5.861c-6.46,3.236-12.321,8.691-15.723,16.191c-3.484,7.447-4.351,15.659-3.642,22.848
				c0.717,7.275,2.942,13.691,5.197,18.898C367.2,190.374,371.635,196.271,370.78,196.933z"/>
		</g>
		<g>
			<path fill="#FFC08C" d="M504.958,233.25c0.401-0.165,1.538,1.33,2.835,4.432c1.31,3.09,2.515,7.896,2.686,13.977
				c0.191,6.068-0.917,13.409-4.1,20.9c-3.145,7.466-8.598,15.024-16.346,20.636c-7.837,5.487-16.762,8.17-24.846,8.702
				c-8.12,0.559-15.42-0.794-21.092-2.958c-5.69-2.149-9.839-4.859-12.331-7.107c-2.507-2.24-3.548-3.803-3.261-4.128
				c0.719-0.921,6.312,3.828,17.052,6.584c5.318,1.399,11.907,2.103,19.048,1.283c7.121-0.797,14.756-3.332,21.43-7.992
				c6.586-4.784,11.477-11.171,14.558-17.64c3.11-6.48,4.598-12.937,5.014-18.421C506.512,240.467,503.853,233.629,504.958,233.25z"
				/>
		</g>
		<g>
			<path fill="#FFC08C" d="M341.855,846.522c0.062,0.23-0.488,0.584-1.626,1.054c-0.569,0.235-1.285,0.499-2.143,0.789
				c-0.885,0.179-1.903,0.385-3.049,0.617c-4.595,0.735-11.72,0.709-19.684-2.392c-7.947-2.949-16.666-8.877-23.376-18.055
				c-6.782-9.205-10.614-21.61-10.784-34.499c-0.193-12.93,2.821-24.952,6.953-35.112c4.071-10.213,9.692-18.75,15.726-24.663
				c3.014-2.963,6.113-5.287,9.061-6.941c2.981-1.599,5.707-2.664,8.029-3.158c4.64-1.026,7.257-0.513,7.268-0.134
				c0.052,0.56-2.445,0.989-6.433,2.684c-3.974,1.689-9.351,5.016-14.38,10.896c-5.068,5.811-9.829,13.873-13.349,23.617
				c-3.579,9.687-6.16,20.921-5.98,32.683c0.154,11.722,3.445,22.768,9.081,30.962c5.65,8.295,13.158,14.037,20.079,17.225
				c6.934,3.341,13.268,4.093,17.605,4.207c1.098,0.013,2.075,0.024,2.923,0.034c0.842-0.069,1.565-0.11,2.159-0.12
				C341.122,846.197,341.793,846.293,341.855,846.522z"/>
		</g>
		<g>
			<path fill="#FFC08C" d="M472.86,1008.329c0.175,0.162-0.307,0.964-1.405,2.363c-0.561,0.686-1.225,1.577-2.13,2.51
				c-0.944,0.899-2.032,1.936-3.256,3.102c-5.047,4.491-13.555,9.938-25.347,13.346c-11.729,3.296-26.833,4.349-42.618-0.052
				c-15.798-4.321-31.363-14.607-43.411-28.904c-12.01-14.365-19.464-31.056-22.807-46.778c-3.465-15.737-3.392-30.322-2.187-42.269
				c1.315-11.975,3.678-21.421,5.704-27.789c2.031-6.375,3.653-9.715,4.062-9.587c0.499,0.154-0.253,3.758-1.459,10.237
				c-1.204,6.473-2.785,15.866-3.448,27.521c-0.557,11.629-0.105,25.606,3.515,40.45c3.495,14.812,10.674,30.341,21.895,43.777
				c11.251,13.341,25.531,22.966,39.918,27.244c14.413,4.371,28.489,3.932,39.63,1.425c11.194-2.61,19.58-7.077,24.913-10.748
				c1.328-0.943,2.508-1.781,3.531-2.508c1.016-0.743,1.811-1.453,2.516-1.966C471.863,1008.652,472.685,1008.167,472.86,1008.329z"
				/>
		</g>
		<g>
			<path fill="#FFC08C" d="M807.51,976.016c0.421,0.059,0.566,2.506-0.111,6.862c-0.656,4.354-2.47,10.572-6.141,17.633
				c-3.644,7.061-9.435,14.813-17.576,21.631c-8.093,6.815-18.727,12.498-30.869,15.009c-12.179,2.329-24.178,1.151-34.263-2.046
				c-10.131-3.182-18.45-8.126-24.519-13.254c-6.095-5.117-10.151-10.167-12.424-13.938c-2.293-3.765-3.097-6.081-2.73-6.297
				c1.009-0.698,5.923,7.73,18.12,16.366c6.034,4.315,13.964,8.432,23.347,11.029c9.351,2.614,20.212,3.456,31.124,1.378
				c10.876-2.259,20.587-7.195,28.225-13.19c7.674-5.992,13.423-12.831,17.346-19.127
				C804.997,985.425,806.31,975.758,807.51,976.016z"/>
		</g>
		<g>
			<path fill="#FCDEAA" d="M886.193,778.006c-0.783-0.699,5.086-7.879,13.431-20.048c8.216-12.113,19.003-29.802,23.16-51.483
				c1.95-10.73,1.706-21.306-0.044-30.611c-1.801-9.301-4.933-17.364-8.609-23.526c-7.303-12.486-15.429-17.487-14.674-18.481
				c0.223-0.354,2.464,0.479,6.029,2.876c3.583,2.363,8.268,6.641,12.75,12.976c4.514,6.31,8.424,14.865,10.724,24.867
				c2.25,10,2.729,21.474,0.6,33.169c-2.226,11.596-6.401,22.106-11.199,30.976c-4.785,8.902-10.064,16.278-14.823,22.143
				C893.97,772.577,886.817,778.584,886.193,778.006z"/>
		</g>
		<g>
			<path fill="#EDC38E" d="M786.644,836.75c0.207-0.23,0.858-0.005,1.937,0.664c0.539,0.334,1.185,0.779,1.934,1.334
				c0.679,0.616,1.45,1.352,2.307,2.204c3.299,3.45,7.464,9.453,9.588,17.989c2.238,8.425,2.463,19.353-1.58,30.465
				c-3.998,11.167-12.925,21.664-24.704,28.183c-11.756,6.611-24.71,9.065-36.215,8.452c-11.476-0.567-21.829-4.08-28.945-9.57
				c-7.199-5.487-10.56-12.345-11.601-17.101c-1.063-4.844-0.259-7.548,0.276-7.539c0.685-0.039,1.127,2.507,3.019,6.394
				c1.855,3.839,5.526,9.111,11.916,13.038c12.53,7.905,36.725,9.99,57.134-1.475c10.15-5.629,17.708-14.263,21.421-23.374
				c3.802-9.195,4.306-18.646,3.074-26.177c-1.106-7.636-3.948-13.374-6.156-17.167c-0.582-0.934-1.091-1.785-1.521-2.544
				c-0.498-0.696-0.907-1.31-1.221-1.831C786.682,837.654,786.438,836.98,786.644,836.75z"/>
		</g>
		<g>
			<path fill="#EDC38E" d="M786.404,785.718c0.431-1.05,6.383-0.41,15.713,3.141c4.602,1.859,10.172,4.665,15.272,9.571
				c4.978,4.796,9.679,12,10.088,20.93c0.339,8.896-3.831,16.791-9.472,21.627c-2.841,2.419-6.087,4.151-9.249,5.031
				c-3.162,0.906-6.201,1.127-8.903,0.929c-5.435-0.416-9.431-2.431-11.73-4.211c-2.322-1.817-3.083-3.321-2.721-3.768
				c0.77-1.137,5.93,2.377,14.448,1.641c4.174-0.399,8.915-2.021,12.582-5.717c3.682-3.629,6.352-9.344,6.09-15.174
				c-0.235-5.853-3.3-11.369-7.066-15.545c-3.766-4.207-8.237-7.227-12.163-9.641C791.324,789.823,785.894,786.948,786.404,785.718z
				"/>
		</g>
		<g>
			<path fill="#EDB180" d="M389.534,826.385c0.355,0.397-0.368,2.046-2.87,3.945c-2.462,1.889-6.919,3.71-12.625,3.669
				c-5.643-0.054-12.531-2.001-18.442-7.109c-5.916-5.151-9.712-13.099-10.83-21.556c-1.107-8.464,0.321-16.597,2.881-23.244
				c2.523-6.669,5.886-12.013,8.931-16.199c6.223-8.297,11.063-12.377,11.998-11.691c1.06,0.768-2.055,6.321-6.612,15.03
				c-4.374,8.647-10.19,21.126-8.315,34.919c0.886,6.732,3.657,12.789,7.57,16.692c3.938,3.94,9.014,6.104,13.338,6.841
				c4.365,0.74,8.042,0.227,10.542-0.472C387.617,826.524,389.091,825.853,389.534,826.385z"/>
		</g>
		<g>
			<path fill="#EDB180" d="M400.28,859.173c0.523,0.985-1.874,3.711-7.312,4.13c-2.655,0.201-5.912-0.309-9.161-1.933
				c-3.229-1.597-6.46-4.459-8.403-8.495c-1.878-4.066-2.031-8.38-1.209-11.887c0.815-3.54,2.493-6.377,4.337-8.298
				c3.783-3.929,7.412-4.044,7.838-3.014c0.608,1.157-1.268,3.181-2.62,6.611c-1.425,3.316-2.232,8.524-0.24,12.765
				c2.005,4.235,6.536,6.926,10.001,7.936C397.02,858.127,399.775,857.968,400.28,859.173z"/>
		</g>
		<g>
			<path fill="#EDC38E" d="M547.114,614.86c0.497-0.237,1.925,1.095,3.342,4.213c1.416,3.091,2.65,8.056,2.228,14.3
				c-0.491,6.166-2.748,13.71-8.335,20.269c-5.525,6.642-14.547,11.248-24.32,12.046c-9.774,0.783-19.419-2.314-25.939-7.982
				c-6.568-5.576-10.008-12.66-11.483-18.667c-1.419-6.096-0.999-11.194-0.098-14.472c0.898-3.305,2.094-4.849,2.622-4.695
				c1.406,0.29-0.324,7.444,3.527,17.283c1.938,4.801,5.32,10.171,10.589,14.101c5.153,3.962,12.451,6.075,20.059,5.498
				c7.602-0.653,14.466-3.911,18.915-8.65c4.57-4.725,7.045-10.568,8.187-15.619C548.63,622.156,545.773,615.373,547.114,614.86z"/>
		</g>
		<g>
			<path fill="#EDB180" d="M577.102,995.682c0.59,0.01,1.189,1.163,1.428,3.377c0.248,2.208-0.063,5.475-1.444,9.259
				c-1.365,3.78-3.956,7.994-7.964,11.669c-3.971,3.665-9.519,6.702-15.971,7.66c-6.466,0.855-12.636-0.536-17.463-2.967
				c-4.865-2.429-8.516-5.768-10.868-9.025c-2.37-3.258-3.568-6.313-3.937-8.504c-0.38-2.195-0.121-3.468,0.443-3.64
				c1.299-0.415,3.255,3.641,8.194,7.892c4.735,4.245,13.259,8.596,22.386,7.368c9.112-1.332,16.109-7.862,19.492-13.246
				C574.976,1000.079,575.739,995.641,577.102,995.682z"/>
		</g>
		<g>
			<path fill="#EDC38E" d="M528.679,161.721c-0.164-0.262,0.036-0.785,0.52-1.505c0.526-0.671,1.209-1.686,2.037-2.93
				c1.622-2.505,3.252-6.521,3.413-11.677c0.126-5.087-1.383-11.461-5.501-16.383c-1.993-2.371-4.837-4.508-8.082-6.007
				c-3.27-1.486-6.992-2.398-10.915-2.69c-7.856-0.527-15.675,1.491-21.658,4.707c-5.984,3.324-10.469,8.118-13.043,12.607
				c-2.665,4.506-3.364,8.745-3.378,11.729c0.04,2.992,0.465,4.811-0.174,5.111c-0.453,0.24-2.03-1.08-3.263-4.513
				c-1.176-3.378-1.413-9.066,1.106-15.078c2.431-6.009,7.254-12.305,14.526-16.951c7.325-4.498,16.558-7.176,26.507-6.554
				c9.909,0.645,19.395,5.131,24.873,12.542c5.39,7.388,6.342,15.73,5.308,22.126c-1.104,6.5-4.297,11.148-7.125,13.365
				c-1.436,1.114-2.623,1.8-3.561,2.052C529.369,161.972,528.844,161.983,528.679,161.721z"/>
		</g>
		<g>
			<path fill="#EDC38E" d="M541.584,193.664c-0.098-1.358,3.7-2.304,7.266-6.299c1.801-1.933,3.492-4.665,4.442-7.873
				c0.972-3.202,0.971-6.819-0.379-9.918c-1.446-3.055-4.17-5.435-7.221-6.809c-3.042-1.395-6.212-1.918-8.852-1.833
				c-5.355,0.058-8.565,2.297-9.523,1.329c-0.416-0.407-0.154-1.572,1.13-3.155c1.269-1.586,3.766-3.375,7.319-4.421
				c3.537-1.058,8.114-1.193,12.877,0.366c4.704,1.499,9.76,5.091,12.431,10.815c2.555,5.777,1.934,11.947-0.031,16.477
				c-1.959,4.613-5.071,7.971-8.195,9.94c-3.125,1.988-6.115,2.692-8.144,2.605C542.667,194.814,541.617,194.244,541.584,193.664z"
				/>
		</g>
		<g>
			<path fill="#EDB180" d="M409.749,283.116c0.397,0.435-0.056,1.685-1.554,3.412c-1.486,1.73-4.153,3.786-7.956,5.41
				c-3.788,1.633-8.76,2.66-14.324,2.253c-5.532-0.385-11.701-2.383-16.961-6.508c-5.194-4.208-8.517-9.776-10.126-15.083
				c-1.637-5.333-1.744-10.409-0.997-14.466c0.736-4.069,2.145-7.128,3.5-8.962c1.35-1.845,2.467-2.565,2.98-2.275
				c1.201,0.654-0.468,4.984-0.161,11.711c0.119,3.344,0.828,7.274,2.462,11.235c1.617,3.957,4.281,7.86,7.928,10.832
				c3.71,2.892,8.109,4.62,12.327,5.314c4.225,0.709,8.215,0.524,11.501-0.105C404.995,284.682,408.843,282.09,409.749,283.116z"/>
		</g>
		<path fill="#D491ED" d="M757.01,599.521c1.175-2.192,2.128-4.479,2.796-6.798c-2.351-5.718-5.591-12.231-9.753-18.871
			c3.145-3.781,5.846-7.434,8.006-10.77c-0.699-1.747-1.557-3.431-2.51-5.083c-0.159,0.254-0.349,0.508-0.572,0.762
			c-2.351,2.955-5.178,6.258-8.419,9.721c-0.318-0.508-0.667-0.985-1.017-1.493c-5.083-7.116-10.547-13.311-15.694-18.331
			c2.51-3.05,4.638-5.973,6.417-8.673c-1.62-0.826-3.304-1.525-5.02-2.097c-1.779,2.065-3.749,4.257-5.909,6.544
			c-1.588-1.398-3.113-2.669-4.575-3.812c-2.764-2.16-5.21-3.876-7.212-5.147c-1.366,0.064-2.7,0.222-4.035,0.445
			c2.319,2.605,6.672,6.862,11.945,12.517c-3.05,3.113-6.417,6.258-10.102,9.372c-3.971-3.685-7.72-6.83-11.119-9.308
			c-3.368-2.478-6.259-4.384-8.546-5.687c-0.858,0.54-1.684,1.144-2.478,1.811c3.558,3.558,9.975,9.372,17.378,17.124
			c-5.56,4.448-11.024,8.196-15.98,11.341c-3.208-2.859-6.29-5.274-9.054-7.275c-2.065-1.493-3.939-2.732-5.591-3.781
			c-0.508,1.271-0.953,2.573-1.302,3.908c2.891,2.732,6.576,6.227,10.674,10.357c-4.035,2.414-7.497,4.321-10.071,5.782
			c0.222,1.08,0.445,2.129,0.731,3.177c2.287-0.604,5.242-1.557,8.673-2.923c1.461-0.572,2.986-1.239,4.607-2.001
			c4.162,4.384,8.641,9.34,13.025,14.836c1.144,1.398,2.255,2.796,3.336,4.194c-3.495,1.811-6.767,3.367-9.721,4.638
			c-2.891,1.271-5.433,2.319-7.561,3.177c1.048,1.048,2.128,2.033,3.272,2.923c1.811-0.381,3.812-0.889,5.973-1.525
			c3.526-0.985,7.497-2.446,11.723-4.321c4.448,6.131,8.196,11.913,11.278,16.837c0.794,0.032,1.588,0.032,2.383,0
			c1.08-0.064,2.192-0.127,3.272-0.318c-2.51-5.623-6.131-12.358-10.897-19.411c5.051-2.605,10.357-5.814,15.567-9.658
			c5.846,8.514,10.357,16.297,13.692,22.016c1.239-0.858,2.414-1.811,3.526-2.796c-0.381-0.921-0.762-1.874-1.175-2.859
			c-2.446-5.845-6.068-12.93-10.865-20.459c3.367-2.796,6.449-5.718,9.245-8.609C750.212,586.559,754.024,593.707,757.01,599.521z
			 M711.676,596.09c-1.271-1.747-2.605-3.495-4.003-5.242c-4.098-5.051-8.324-9.594-12.454-13.534
			c5.083-2.764,10.579-6.258,16.043-10.516c3.526,3.876,7.148,8.133,10.738,12.739c1.716,2.192,3.367,4.352,4.956,6.513
			C721.779,589.926,716.569,593.23,711.676,596.09z M732.262,581.857c-1.493-2.192-3.113-4.384-4.829-6.576
			c-3.654-4.638-7.402-8.864-11.119-12.644c3.526-3.081,6.703-6.227,9.531-9.372c4.511,5.083,9.372,11.024,14.074,17.695
			c0.604,0.826,1.175,1.652,1.747,2.478C738.775,576.234,735.63,579.093,732.262,581.857z"/>
	</g>
</g>
</svg>
