<?xml version="1.0" encoding="utf-8"?>
<!-- Generator: Adobe Illustrator 23.0.3, SVG Export Plug-In . SVG Version: 6.00 Build 0)  -->
<svg version="1.1" id="Layer_1" xmlns="http://www.w3.org/2000/svg" xmlns:xlink="http://www.w3.org/1999/xlink" x="0px" y="0px"
	 viewBox="0 0 1200 1200" enable-background="new 0 0 1200 1200" xml:space="preserve">
<g>
	<g>
		<path fill="#FCB8FA" d="M849.318,1020.4c-13.635,10.125-29.636,15.483-45.784,20.361
			c-55.428,16.813-112.187,26.864-169.758,32.666c-2.66,0.295-5.284,0.998-7.87,1.478c-19.474,1.256-38.985,2.291-58.163,6.541
			c-24.869-1.515-49.479,2.587-74.2,4.028c-91.9,5.358-183.689,4.286-275.404-2.032c-25.09-3.215-50.254-6.43-75.419-9.645
			c-15.52-4.213-31.114-8.203-46.56-12.712c-12.896-3.769-25.571-8.462-36.028-17.331c-12.97-11.012-13.524-24.573-1.441-36.472
			c10.605-10.458,23.871-16.628,37.765-21.321c0.185-0.074,0.369-0.111,0.554-0.185c1.663-0.554,3.326-1.109,5.025-1.626
			c13.266-4.286,26.679-7.982,40.204-11.196c0.997-0.222,1.995-0.48,2.993-0.665c30.116-7.058,60.713-11.825,91.42-16.074
			c39.244-5.506,78.782-8.24,118.284-11.418c7.982-0.665,16.075-0.259,22.837-6.023c3.695-3.215,8.684-3.363,13.377-3.658
			c130.958-8.684,261.695-9.423,391.656,12.601c3.732,0.628,7.427,1.33,11.123,2.106c4.73,0.961,9.423,2.032,14.079,3.252
			c8.536,2.254,16.961,5.025,25.164,8.573c4.656,1.995,9.275,4.323,13.525,7.132c0.776,0.48,1.552,0.998,2.291,1.552
			c1.478,1.072,2.882,2.18,4.139,3.326C868.755,987.697,867.609,1006.838,849.318,1020.4z"/>
		<path fill="#A16247" d="M142.725,1073.804c25.152,3.203,50.304,6.406,75.408,9.62c0.26,0.605,0.548,1.211,0.88,1.792
			c6.51,11.407,12.239,23.276,2.786,35.477c-9.108,11.756-22.457,13.798-36.324,12.404c-10.746-1.081-20.916-4.333-30.118-10.302
			C135.031,1109.61,131.446,1095.873,142.725,1073.804z"/>
		<path fill="#874022" d="M156.669,1097.72c-1.083,2.218-0.761,4.938,0.382,7.126s3.016,3.909,5.016,5.355
			c9.078,6.565,21.639,7.975,31.946,3.585c2.362-1.006,4.648-2.327,6.335-4.263c1.686-1.936,2.71-4.562,2.286-7.094
			c-0.662-3.947-4.455-6.536-8.11-8.168c-6.638-2.964-15.173-5.08-22.473-3.863C167.556,1091.148,158.768,1093.422,156.669,1097.72z
			"/>
		<path fill="#D491ED" d="M808.005,953.073c-3.621,9.607-14.264,15.815-24.056,20.25c-43.234,19.659-89.498,31.964-136.132,40.832
			c-149.582,28.416-305.779,21.469-452.22-20.139c-10.606-2.993-21.211-6.208-31.299-10.642c-5.875-2.55-14.337-5.765-19.067-11.086
			c30.116-7.058,60.713-11.825,91.42-16.074c39.244-5.506,78.782-8.24,118.284-11.418c7.982-0.665,16.075-0.259,22.837-6.023
			c3.695-3.215,8.684-3.363,13.377-3.658c130.958-8.684,261.695-9.423,391.656,12.601c3.732,0.628,7.427,1.33,11.123,2.106
			C798.656,950.782,803.349,951.854,808.005,953.073z"/>
		<path fill="#A16247" d="M567.742,1081.444c19.165-4.255,38.693-5.271,58.163-6.525c9.096,4.582,17.055,10.677,22.619,19.287
			c10.728,16.6,4.929,33.386-13.624,40.304c-20.551,7.664-52.161-1.709-65.435-19.397
			C561.329,1104.273,560.831,1093.05,567.742,1081.444z"/>
		<path fill="#874022" d="M579.471,1097.72c-1.083,2.218-0.761,4.938,0.383,7.126s3.016,3.909,5.016,5.355
			c9.078,6.565,21.639,7.975,31.946,3.585c2.362-1.006,4.648-2.327,6.335-4.263c1.686-1.936,2.71-4.562,2.286-7.094
			c-0.662-3.947-4.455-6.536-8.11-8.168c-6.638-2.964-15.173-5.08-22.473-3.863C590.358,1091.148,581.57,1093.422,579.471,1097.72z"
			/>
		<path fill="#171C2E" d="M254.423,943.253c0.052,6.188,0.178,12.656,3.408,18.114c3.23,5.457,10.625,9.44,17.008,7.198
			c9.889-3.474,13.681-19.355,23.852-16.625c7.469,2.005,6.964,12.015,12.158,17.263c4.745,4.795,13.636,4.411,19.546,0.824
			s9.491-9.504,12.609-15.287c11.49-21.313,19.793-44.026,24.612-67.33c4.794-23.181,6.042-47.613-2.421-69.921
			c-8.463-22.308-28.046-42.15-53.458-47.527c-16.384-3.467-34.885,0.372-47.949,9.974c-14.405,10.588-11.11,19.837-10.435,34.791
			C255.282,857.45,254.066,900.491,254.423,943.253z"/>
		<path fill="#FCDEAA" d="M961.135,756.081c-23.945,19.806-52.953,28.601-82.736,34.55c-17.626,3.547-35.548,5.617-55.133,8.647
			c7.095,10.642,16.887,17.959,18.957,29.488c4.212,23.612,4.84,46.966-10.31,67.585c-30.338,41.276-70.505,67.031-121.166,76.011
			c-20.841,8.24-42.938,9.829-64.925,10.975c-49.22,2.513-97.775-4.213-146.108-12.416l-3.437-0.554
			c-35.769,9.718-75.419,4.878-107.604-13.635c-35.548-20.435-62.745-55.465-69.914-95.854
			c-28.157-12.638-52.472-33.774-68.878-59.937c-14.707-23.354-26.495-55.465-24.167-83.549
			c2.365-28.047,3.917-55.798,16.628-81.701c4.73-9.571,6.8-16.813-2.845-24.499c-3.954-3.141-6.873-8.462-8.61-13.414
			c-13.82-39.576-13.968-78.449,13.599-112.298c54.578-66.994,123.79-114.367,203.532-146.848c1.145-0.443,2.476-0.369,3.769-0.517
			c-0.111,0.185-0.185,0.407-0.221,0.628h0.037c2.291-0.185,3.917-1.33,4.951-3.363c21.506-14.522,46.782-15.187,71.096-18.845
			c17.885-2.697,36.065-3.437,53.951-6.097c49.663-7.316,95.78,5.949,141.268,23.317c4.951,1.885,9.57,4.804,14.116,7.686
			c20.619,13.081,23.428,26.273,11.049,47.373c-3.326,5.654-10.125,9.09-10.643,17.922c27.603-3.51,54.8-0.887,82.034,0.776
			c21.543,1.33,42.753,4.25,63.114,11.603c5.025,1.811,10.162,3.658,14.781,6.282c20.878,11.714,22.689,27.16,5.284,43.308
			c-3.732,3.474-8.831,5.654-10.827,10.975c50.255,25.016,54.43,40.721,19.215,71.096c1.885,5.321,6.984,5.025,11.16,6.356
			c9.017,2.882,17.552,6.762,24.647,13.192c12.822,11.603,14.227,26.753,3.621,41.534c-8.869,12.305-21.284,20.324-34.624,26.901
			c-8.942,4.397-18.033,8.462-27.123,12.675c3.843,6.282,9.681,5.58,14.781,6.836c18.956,4.73,37.396,10.864,53.802,21.876
			C989.477,701.798,991.177,731.249,961.135,756.081z"/>
		<path fill="#FFC08C" d="M710.747,972.362c-20.841,8.24-42.938,9.829-64.925,10.975c-49.22,2.513-97.775-4.213-146.108-12.416
			l-3.437-0.554c-35.769,9.718-75.419,4.878-107.604-13.635c-35.548-20.435-62.745-55.465-69.914-95.854
			c-28.157-12.638-52.472-33.774-68.878-59.937c-14.707-23.354-26.495-55.465-24.167-83.549
			c2.365-28.047,3.917-55.798,16.628-81.701c4.73-9.571,6.8-16.813-2.845-24.499c-3.954-3.141-6.873-8.462-8.61-13.414
			c-13.82-39.576-13.968-78.449,13.599-112.298c54.578-66.994,123.79-114.367,203.532-146.848c1.145-0.443,2.476-0.369,3.769-0.517
			c-0.111,0.185-0.185,0.407-0.221,0.628h0.037c-6.319,11.935-18.624,17.922-27.936,26.753
			c-25.756,24.573-44.602,52.952-55.317,86.838c-3.437,10.864-6.763,21.728-10.717,32.407c-7.575,20.25-6.208,40.573-0.924,60.934
			c2.476,9.534,8.943,16.702,16.407,22.356c19.141,14.485,21.913,32.555,16.924,55.059c-4.212,18.846-9.053,37.617-12.305,56.61
			c-3.474,20.472,3.511,39.65,14.818,56.611c5.469,8.24,12.416,16.111,20.287,22.024c24.795,18.587,37.137,44.749,47.262,72.648
			c19.215,53.026,51.955,94.819,103.281,119.836c29.118,14.152,60.713,20.213,93.046,21.321
			C674.497,972.732,692.64,972.325,710.747,972.362z"/>
		<path fill="#171C2E" d="M537.006,216.082c53.998-18.636,104.173-48.836,157.719-68.967c14.645-5.506,29.78-10.291,45.451-9.826
			c15.671,0.465,32.125,6.766,43.553,20.528c17.929,21.59,19.023,57.031,7.718,82.195c-11.305,25.164-32.419,41.531-54.42,52.886
			c-47.89,24.717-102.54,29.722-156.096,24.06c-53.555-5.662-106.52-21.571-159.207-37.423
			c-14.755-4.439-30.593-9.421-41.837-23.166c-8.974-10.97-15.666-25.716-1.231-31.132c12.922-4.849,29.247,2.919,42.441,4.867
			c18.378,2.714,36.839,2.55,54.972,0.392C496.828,228.026,517.196,222.919,537.006,216.082z"/>
		<path fill="#40426B" d="M854.27,368.157c-15.668,22.689-39.392,34.994-63.078,42.199c-19.252,5.838-38.985,8.795-58.828,9.423
			c-33.183,1.072-66.698-4.397-99.031-13.968c-51.659-15.224-100.88-40.426-149.841-65.553
			c-13.709-7.021-28.379-14.781-36.989-30.338c-2.402-4.361-4.434-9.09-5.395-13.562c-1.848-8.277-0.037-15.52,9.829-17.294
			c13.562-2.402,28.232,8.167,40.869,12.453c17.589,5.986,35.769,9.164,53.987,10.31c20.878,1.33,41.83,0,62.523-3.141
			c56.5-8.61,111.3-29.229,167.578-39.354c15.409-2.771,31.151-4.767,46.486-1.478c15.335,3.289,30.375,12.453,39.133,28.047
			C875.258,310.401,869.937,345.432,854.27,368.157z"/>
		<path fill="#40426B" d="M310.721,968.422c0.052,6.188,0.178,12.656,3.408,18.114s10.625,9.44,17.008,7.198
			c9.889-3.474,13.681-19.355,23.852-16.625c7.469,2.005,6.964,12.015,12.158,17.263c4.745,4.795,13.636,4.411,19.546,0.824
			s9.491-9.504,12.609-15.287c11.49-21.313,19.793-44.026,24.612-67.33c4.794-23.181,6.042-47.614-2.421-69.921
			c-8.463-22.308-28.046-42.15-53.458-47.527c-16.384-3.467-34.885,0.372-47.949,9.974c-14.405,10.588-11.11,19.837-10.435,34.791
			C311.58,882.619,310.365,925.661,310.721,968.422z"/>
		<path fill="#171C2E" d="M836.052,356.259c0,13.34-7.575,25.867-17.774,34.439c-10.198,8.61-22.837,13.783-35.548,17.848
			c-16.443,5.247-33.294,8.831-50.366,11.233c-33.183,1.072-66.698-4.397-99.031-13.968
			c-51.659-15.224-100.88-40.426-149.841-65.553c-13.709-7.021-28.379-14.781-36.989-30.338c-2.402-4.361-4.434-9.09-5.395-13.562
			c10.014-7.316,20.952-4.619,29.747,3.695c11.381,10.753,28.97,14.892,43.714,19.215c34.587,10.088,70.837,14.374,106.792,12.712
			c19.769-0.961,39.428-3.695,58.643-8.277c21.247-5.062,41.978-12.268,63.558-15.705c21.543-3.437,44.564-2.808,63.964,7.206
			C823.082,323.261,836.089,338.707,836.052,356.259z"/>
		<path fill="#40426B" d="M431.869,407.586c-34.698,49.035-79.558,84.842-136.834,103.798
			c-33.368,11.049-69.655,12.527-100.991,0.776c-19.769-7.39-37.543-20.028-51.4-38.8c-60.158-81.59,4.139-198.027,68.509-255.709
			c38.837-34.735,93.969-66.736,147.254-66.625c24.573,0.037,48.74,6.873,70.763,23.428
			C505.7,231.952,479.168,340.665,431.869,407.586z"/>
		<path fill="#171C2E" d="M358.408,151.027c-0.221,5.136-3.548,10.088-11.271,14.485c-38.873,22.134-74.496,44.49-104.426,78.523
			c-16.296,18.55-30.338,39.132-41.313,61.303c-31.52,63.89-36.028,141.97-7.354,206.821c-19.769-7.39-37.543-20.028-51.4-38.8
			c-60.158-81.59,4.139-198.027,68.509-255.709C249.991,182.916,305.123,150.916,358.408,151.027z"/>
		<path fill="#FCDEAA" d="M501.524,260.405c-18.476,11.049-38.8,7.538-53.285-9.275c-6.06-2.18-8.684-9.164-16.813-9.423
			c-24.277-0.776-39.798-15.335-47.557-36.915c-4.139-11.529-9.275-11.825-19.104-9.09c-16.887,4.693-33.331,1.959-48.185-7.316
			c-17.331-10.827-26.827-26.68-23.871-47.262c2.808-19.769,15.889-31.816,34.513-37.95c3.769-1.219,7.871-2.476,11.751-2.217
			c13.007,0.813,21.063-2.919,28.121-15.778c11.972-21.802,44.269-27.751,71.466-16.407c29.451,7.686,42.753,26.495,38.541,55.28
			c-0.813,5.654-1.7,10.532,3.51,14.337c0.554,0.407,0.961,0.961,1.404,1.441c9.977,11.123,10.384,24.98,13.34,38.726
			c2.587,11.936,20.546,15.557,25.128,29.562C526.873,227.628,519.594,249.578,501.524,260.405z"/>
		<circle fill="#FFFFFF" cx="190.024" cy="254.495" r="71.371"/>
		<circle fill="#FFFFFF" cx="358.408" cy="335.685" r="71.371"/>
		<path fill="#40426B" d="M334.201,349.61c-9.844-0.07-17.865-7.726-18.083-17.26c-0.221-9.695,8.71-18.412,19.225-18.764
			c9.935-0.332,17.951,7.485,17.659,17.223C352.667,341.989,344.969,349.687,334.201,349.61z"/>
		<path fill="#40426B" d="M198.663,247.295c8.43,0.254,18.506,9.979,18.585,17.938c0.1,10.026-9.137,18.093-20.159,17.605
			c-9.849-0.436-15.317-6.608-15.127-17.073C182.157,255.061,189.431,247.016,198.663,247.295z"/>
		<path fill="#FFC08C" d="M438.56,68.775c-28.741,4.149-48.693,19.358-59.526,46.572c-1.92,4.823-2.189,8.748,0.367,13.171
			c1.997,3.455,3.274,7.336,5.36,10.728c6.854,11.147-1.583,26.486,8.931,35.965c8.989,8.104,17.906,15.685,22.837,27.173
			c3.223,7.509,10.629,11.834,15.705,17.969c7.516,9.084,17.074,17.212,16.015,30.794c-6.064-2.204-8.683-9.183-16.812-9.444
			c-24.284-0.777-39.803-15.344-47.56-36.891c-4.153-11.538-9.272-11.846-19.095-9.11c-16.914,4.711-33.35,1.972-48.22-7.323
			c-17.324-10.828-26.802-26.659-23.858-47.268c2.82-19.743,15.905-31.802,34.505-37.926c3.777-1.243,7.894-2.49,11.759-2.244
			c13.002,0.828,21.062-2.915,28.125-15.778C379.055,63.376,411.37,57.421,438.56,68.775z"/>
		<g>
			<g>
				<g>
					<g>
						<g>
							<path fill="#FFFFFF" d="M256.98,396.759c0.068,0.074-0.168,0.4-0.685,0.958c-0.259,0.279-0.587,0.615-0.984,1.007
								c-0.391,0.399-0.857,0.842-1.434,1.278c-2.193,1.886-5.733,4.238-10.547,6.246c-1.183,0.557-2.504,0.915-3.848,1.392
								c-1.355,0.436-2.806,0.759-4.297,1.125c-1.516,0.237-3.07,0.614-4.708,0.721c-0.816,0.073-1.643,0.177-2.484,0.226
								c-0.844,0.019-1.698,0.039-2.564,0.059c-3.456-0.044-7.12-0.296-10.796-1.222c-3.678-0.882-7.394-2.227-10.951-4.126
								c-3.524-1.959-6.67-4.352-9.404-6.964c-2.771-2.587-4.97-5.529-6.881-8.409c-0.453-0.738-0.9-1.467-1.341-2.186
								c-0.415-0.734-0.777-1.484-1.158-2.21c-0.798-1.434-1.324-2.944-1.947-4.346c-0.501-1.452-1.016-2.845-1.385-4.22
								c-0.328-1.387-0.743-2.692-0.917-3.988c-0.923-5.133-0.867-9.384-0.471-12.249c0.053-0.721,0.173-1.353,0.296-1.897
								c0.114-0.545,0.219-1.004,0.313-1.373c0.188-0.737,0.334-1.112,0.433-1.095s0.147,0.424,0.148,1.177
								c0.001,0.376-0.01,0.839-0.033,1.383c-0.031,0.543-0.06,1.168-0.026,1.875c-0.043,2.812,0.22,6.896,1.355,11.752
								c0.227,1.227,0.688,2.458,1.053,3.764c0.407,1.295,0.951,2.604,1.473,3.966c0.643,1.313,1.18,2.731,1.98,4.069
								c0.381,0.677,0.741,1.38,1.151,2.065c0.434,0.671,0.873,1.35,1.318,2.039c1.869,2.681,3.98,5.422,6.609,7.819
								c2.594,2.423,5.545,4.642,8.826,6.469c3.315,1.766,6.779,3.043,10.221,3.908c3.44,0.909,6.888,1.197,10.154,1.313
								c0.82,0.001,1.629,0.001,2.427,0.002c0.798-0.026,1.583-0.105,2.359-0.153c1.558-0.054,3.04-0.371,4.492-0.543
								c1.428-0.3,2.823-0.552,4.131-0.913c1.296-0.401,2.58-0.681,3.734-1.156c4.696-1.68,8.27-3.673,10.609-5.234
								c0.613-0.354,1.123-0.718,1.562-1.038c0.445-0.314,0.827-0.574,1.144-0.777C256.544,396.865,256.912,396.685,256.98,396.759z
								"/>
						</g>
					</g>
				</g>
			</g>
			<g>
				<g>
					<g>
						<g>
							<path fill="#FFFFFF" d="M190.527,439.325c-0.738-0.355,2.378-8.319,6.29-18.075c3.93-9.749,7.195-17.653,7.973-17.398
								c0.752,0.243-1.3,8.634-5.27,18.485C195.566,432.194,191.237,439.671,190.527,439.325z"/>
						</g>
					</g>
				</g>
			</g>
			<g>
				<g>
					<g>
						<g>
							<path fill="#FFFFFF" d="M235.048,467.626c-0.222,0.343-4.951-2.299-12.467-6.757c-7.517-4.459-17.835-10.712-29.236-17.612
								c-11.403-6.896-21.732-13.133-29.17-17.722c-7.437-4.589-11.972-7.551-11.772-7.907c0.195-0.345,5.09,1.984,12.8,6.122
								c7.711,4.137,18.225,10.105,29.649,17.014c11.422,6.912,21.588,13.455,28.832,18.365
								C230.928,464.039,235.264,467.294,235.048,467.626z"/>
						</g>
					</g>
				</g>
			</g>
		</g>
		<g>
			<path fill="#FCDEAA" d="M463.695,139.012c-0.181-0.533,1.674-1.666,5.055-3.365c3.326-1.745,8.338-3.956,13.164-7.943
				c2.349-1.971,4.606-4.511,6.22-7.563c1.62-3.038,2.502-6.565,1.867-10.024c-0.56-3.494-2.609-6.921-5.66-10.065
				c-3.041-3.161-6.927-6.01-11.124-8.901c-8.493-5.896-16.457-11.357-24.15-15.285c-7.661-3.996-15-6.352-21.385-7.358
				c-12.833-2.098-20.853,1.092-21.274-0.11c-0.201-0.466,1.521-1.889,5.24-3.309c3.694-1.42,9.48-2.613,16.628-2.22
				c7.122,0.338,15.571,2.41,24.016,6.349c8.497,3.869,16.978,9.434,25.484,15.335c4.312,2.98,8.63,6.155,12.292,10.119
				c3.645,3.895,6.641,8.955,7.252,14.423c0.713,5.488-1.033,10.603-3.438,14.388c-2.421,3.85-5.505,6.698-8.584,8.769
				c-6.184,4.043-11.767,5.433-15.499,6.332C466.021,139.409,463.87,139.528,463.695,139.012z"/>
		</g>
		<g>
			<path fill="#FCDEAA" d="M478.261,253.076c0.05-0.526,2.445-0.88,6.689-0.363c4.241,0.449,10.189,2.107,17.215,3.698
				c3.513,0.765,7.292,1.377,11.298,1.353c3.971-0.019,8.147-0.686,11.674-2.663c3.506-1.961,6.343-5.182,7.798-9.471
				c1.49-4.23,1.782-9.242,0.818-14.119c-0.941-4.846-3.259-9.293-6.09-13.361c-2.837-4.044-6.24-7.613-9.651-10.918
				c-6.931-6.525-13.772-12.334-19.148-17.391c-10.899-10.064-17.285-16.713-16.575-17.562c0.71-0.849,8.383,4.262,20.213,13.212
				c5.899,4.553,12.896,9.711,20.517,16.307c3.757,3.353,7.627,7.137,11.02,11.761c3.341,4.573,6.347,10.094,7.581,16.391
				c1.215,6.206,0.848,12.611-1.315,18.403c-2.062,5.819-6.564,10.763-11.752,13.3c-5.206,2.597-10.612,3.034-15.294,2.757
				c-4.716-0.286-8.94-1.356-12.567-2.524c-7.24-2.41-12.605-4.793-16.467-6.138C480.4,254.343,478.199,253.65,478.261,253.076z"/>
		</g>
		<g>
			<path fill="#FCDEAA" d="M869.397,491.539c-0.435-1.155,12.242-6.238,31.209-17.003c4.733-2.702,9.845-5.776,15.206-9.263
				c5.276-3.412,10.776-7.367,14.266-12.592c3.533-5.157,3.712-11.604-0.161-17.2c-3.819-5.663-10.218-10.247-17.414-13.998
				c-14.258-7.873-29.328-12.55-43.295-14.827c-13.988-2.418-26.91-2.265-37.631-1.273c-21.537,2.128-34.209,7.634-34.704,6.315
				c-0.407-0.681,11.676-8.216,33.979-11.939c11.079-1.77,24.645-2.541,39.459-0.41c14.786,1.989,30.864,6.72,46.05,15.103
				c7.583,4.014,15.12,9.13,20.143,16.746c2.475,3.783,4.107,8.48,3.942,13.161c-0.044,4.679-1.867,9.074-4.246,12.461
				c-4.899,6.8-11.252,10.744-16.891,14.109c-5.651,3.327-11.048,6.185-16.054,8.621
				C883.171,489.254,869.704,492.464,869.397,491.539z"/>
		</g>
		<g>
			<path fill="#FCDEAA" d="M909.71,539.922c-0.412-1.202,5.784-3.333,12.479-10.328c3.275-3.491,6.599-8.217,8.567-14.044
				c2.01-5.766,2.402-12.713,0.775-19.613c-1.688-6.885-5.196-12.894-9.609-17.115c-4.402-4.294-9.512-6.992-14.016-8.612
				c-9.144-3.185-15.631-2.265-15.811-3.523c-0.096-0.497,1.382-1.415,4.366-2.074c2.969-0.66,7.478-0.946,12.936,0.126
				c5.407,1.118,11.789,3.689,17.509,8.627c5.763,4.889,10.374,12.257,12.422,20.695c2.013,8.447,1.258,17.105-1.652,24.081
				c-2.849,6.999-7.363,12.191-11.67,15.646c-4.374,3.437-8.519,5.233-11.464,5.995C911.584,540.554,909.851,540.409,909.71,539.922
				z"/>
		</g>
		<g>
			<path fill="#FCDEAA" d="M957.702,741.561c-0.075-0.266,0.415-0.724,1.372-1.334c0.985-0.545,2.351-1.451,4.057-2.593
				c3.365-2.333,7.71-6.493,11.049-12.862c3.298-6.315,5.455-15.021,4.124-24.205c-1.323-9.144-6.607-18.678-14.496-26.338
				c-7.968-7.703-17.465-12.975-26.676-16.247c-9.238-3.35-18.106-5.078-25.603-6.341c-15.062-2.331-24.667-3.323-24.596-4.53
				c0.052-1,9.598-2.032,25.25-1.102c7.807,0.573,17.213,1.765,27.332,4.98c10.117,3.15,20.878,8.773,29.888,17.495
				c8.973,8.719,15.053,19.948,16.231,31.149c1.148,11.179-2.087,21.079-6.556,27.997c-4.532,6.981-10.221,11.037-14.437,12.737
				c-2.139,0.832-3.82,1.314-5.036,1.387C958.414,741.891,957.777,741.827,957.702,741.561z"/>
		</g>
		<g>
			<path fill="#FCDEAA" d="M950.6,738.139c0.899,0.29-0.823,9.408-8.084,22.377c-7.129,12.883-20.655,29.316-40.412,40.98
				c-19.753,11.671-40.675,15.583-55.398,15.606c-14.862,0.098-23.678-2.796-23.498-3.723c0.163-1.249,9.104-0.415,23.161-1.937
				c13.985-1.446,33.264-5.988,51.658-16.851c18.393-10.864,31.679-25.555,39.696-37.104
				C945.842,745.912,949.428,737.679,950.6,738.139z"/>
		</g>
		<g>
			<path fill="#FCDEAA" d="M832.131,861.411c0.373-0.25,2.515,1.707,4.98,6.26c2.462,4.517,4.951,11.818,5.326,21.176
				c0.324,9.304-1.622,20.624-7.37,31.7c-5.723,11.103-15.319,21.282-27.088,29.103c-11.814,7.789-24.466,12.653-36.144,15.56
				c-11.691,2.942-22.404,4.2-31.349,4.911c-17.915,1.239-28.935,0.727-29.022-0.295c-0.103-1.183,10.892-2.685,28.361-5.337
				c8.709-1.411,19.034-3.22,30.077-6.411c11.024-3.15,22.745-7.928,33.642-15.11c10.827-7.198,19.613-16.267,25.027-25.942
				c5.46-9.683,7.801-19.762,8.197-28.202c0.348-8.483-1.081-15.353-2.536-19.949C832.788,864.257,831.576,861.755,832.131,861.411z
				"/>
		</g>
		<g>
			<path fill="#FFC08C" d="M259.16,766.855c0.122,0.452-2.376,1.823-7.384,1.82c-4.927,0.014-12.367-1.854-19.377-7.605
				c-6.993-5.69-12.936-14.737-17.062-25.35c-4.335-10.613-7.026-23.157-7.189-36.382c-0.246-26.624,9.754-49.612,20.079-63.188
				c10.284-13.893,19.881-19.155,20.299-18.49c0.942,1.056-7.102,7.76-15.602,21.667c-8.598,13.653-16.975,35.265-16.757,59.935
				c0.158,12.265,2.425,23.849,6.065,33.799c3.489,10.067,8.37,18.378,13.936,23.771c5.544,5.422,11.661,7.855,15.941,8.739
				C256.436,766.49,259.051,766.24,259.16,766.855z"/>
		</g>
		<g>
			<path fill="#EDC38E" d="M748.619,539.072c-0.249-1.526,7.553-3.577,18.917-8.871c2.832-1.339,5.882-2.886,9.049-4.706
				c3.15-1.853,6.602-3.844,9.005-6.198c2.485-2.416,3.531-4.797,3.292-8.013c-0.257-3.216-1.909-6.949-4.528-10.134
				c-5.26-6.638-12.994-10.807-20.43-12.869c-7.454-2.098-14.783-2.175-20.916-1.719c-12.332,1.099-20.148,3.563-20.704,2.069
				c-0.263-0.653,1.326-2.082,4.616-3.884c3.292-1.778,8.306-3.957,14.972-5.472c6.631-1.473,15.053-2.303,24.318-0.324
				c9.106,1.938,19.149,6.744,26.301,15.708c3.587,4.463,6.226,9.905,6.567,16.038c0.16,3.038-0.411,6.284-1.784,9.073
				c-1.347,2.8-3.308,4.993-5.277,6.666c-4.025,3.368-7.948,5.077-11.517,6.767c-3.629,1.635-7.111,2.902-10.331,3.884
				C757.202,540.945,748.775,540.379,748.619,539.072z"/>
		</g>
		<g>
			<path fill="#EDC38E" d="M762.896,564.182c-0.256-0.646,0.469-1.741,2.331-2.681c1.829-0.976,4.749-1.556,7.75-2.048
				c1.544-0.26,2.889-0.559,4.208-1.067c1.304-0.493,2.485-1.236,3.024-1.932c0.534-0.66,0.567-1.259,0.466-1.872
				c-0.073-0.631-0.737-1.88-1.887-3.095c-1.153-1.223-2.659-2.342-4.144-3.166c-1.743-0.943-3.539-1.763-5.273-2.453
				c-3.48-1.391-6.803-2.29-9.676-2.939c-5.744-1.266-9.729-1.642-9.998-3.117c-0.278-1.33,3.489-3.658,10.444-4.242
				c3.448-0.261,7.645-0.019,12.154,1.147c2.258,0.582,4.567,1.38,6.91,2.465c2.581,1.233,4.992,2.87,7.172,5.157
				c2.106,2.293,4.118,5.265,4.46,9.23c0.374,3.94-1.495,7.83-4.108,9.939c-2.577,2.143-5.236,2.9-7.528,3.285
				c-2.314,0.363-4.46,0.241-6.08,0.031c-3.333-0.447-5.561-0.991-7.23-1.319C764.246,565.135,763.159,564.872,762.896,564.182z"/>
		</g>
		<g>
			<path fill="#EDC38E" d="M598.995,720.736c-0.148-1.523,5.623-2.858,14.072-5.106c4.176-1.2,8.991-2.769,13.34-5.594
				c4.36-2.793,8.407-6.93,9.893-11.896c1.439-4.667,0.014-10.292-2.752-13.167c-2.63-2.949-6.898-3.646-10.805-3.121
				c-3.945,0.503-7.405,1.705-9.879,2.304c-2.486,0.64-4.049,0.789-4.414,0.159c-0.357-0.615,0.491-1.937,2.49-3.732
				c2.031-1.747,5.132-4.142,10.058-5.894c2.457-0.844,5.484-1.448,8.925-1.134c3.382,0.264,7.227,1.746,10.244,4.458
				c5.997,5.448,8.625,14.423,6.106,23.161c-2.651,8.531-9.111,14.053-15.077,17.189c-6.152,3.222-12.128,4.172-16.895,4.535
				C604.699,723.4,599.12,722.067,598.995,720.736z"/>
		</g>
		<g>
			<path fill="#EDC38E" d="M454.591,576.569c-0.495-1.436,3.305-3.63,8.268-7.047c2.423-1.747,5.037-3.903,6.724-6.672
				c1.768-2.79,2.676-6.267,1.81-8.916c-0.763-2.687-3.43-5.149-6.431-6.506c-2.902-1.387-6.286-1.771-9.251-1.889
				c-6.002-0.12-10.364,0.207-10.766-1.257c-0.369-1.278,2.877-4.103,9.887-6.062c3.495-0.865,8.188-1.454,13.474,0.203
				c2.573,0.815,5.186,2.139,7.557,4.174c2.354,2.013,4.477,4.865,5.512,8.328c1.047,3.455,0.865,7.034-0.019,10.016
				c-0.868,3.016-2.348,5.548-4.056,7.63c-3.503,4.26-7.765,6.345-11.138,7.541C459.256,578.334,455.012,577.834,454.591,576.569z"
				/>
		</g>
		<g>
			<path fill="#EDC38E" d="M421.656,148.942c0.128-1.571,5.765-1.526,13.055-3.65c3.563-1.128,7.175-3.151,8.617-6.516
				c1.53-3.081,0.905-8.093-1.908-11.841c-2.726-3.629-7.556-5.877-12.236-6.709c-4.71-0.908-9.348-0.574-13.374-0.129
				c-8.058,1.065-13.55,1.959-14.007,0.502c-0.406-1.277,3.852-4.55,12.323-7.679c4.237-1.452,9.812-2.81,16.322-2.217
				c6.345,0.572,14.045,3.133,19.325,9.992c2.503,3.377,3.974,7.268,4.388,11.242c0.38,3.963-0.374,8.108-2.406,11.452
				c-1.958,3.309-4.838,5.675-7.692,7.016c-2.852,1.374-5.591,1.914-7.995,2.133c-4.831,0.396-8.461-0.418-10.884-1.179
				C422.767,150.538,421.559,149.64,421.656,148.942z"/>
		</g>
		<g>
			<path fill="#EDC38E" d="M424.395,175.179c0.363-1.466,3.946-1.438,8.208-1.992c2.111-0.323,4.006-1.051,4.845-2.271
				c0.779-1,1.228-2.731,0.651-5.199c-0.277-1.175-0.768-2.327-1.369-3.284c-0.313-0.479-0.622-0.888-0.98-1.293
				c-0.436-0.451-0.886-0.886-1.368-1.292c-1.922-1.63-4.253-2.875-6.354-3.934c-4.254-2.082-7.298-3.748-7.011-5.204
				c0.264-1.359,3.451-2.351,8.96-1.905c2.738,0.275,6.187,0.986,9.806,3.1c0.897,0.53,1.787,1.155,2.657,1.862
				c0.924,0.78,1.807,1.698,2.567,2.684c1.512,1.989,2.627,4.307,3.238,6.872c0.596,2.561,0.693,5.282-0.037,7.952
				c-0.693,2.654-2.3,5.191-4.386,6.828c-2.021,1.653-4.377,2.472-6.419,2.719c-2.055,0.26-3.815,0.049-5.291-0.279
				C426.318,179,424.058,176.454,424.395,175.179z"/>
		</g>
		<g>
			<path fill="#EDC38E" d="M661.912,894.552c0.097-0.718,2.535-1.053,6.816-1.125c4.27-0.116,10.407,0.133,17.682-0.409
				c7.243-0.543,15.706-2.088,23.331-6.839c3.783-2.322,7.236-5.422,9.617-9.258c2.417-3.781,3.702-8.427,3.831-13.412
				c0.227-10.052-4.147-19.652-10.023-26.452c-5.893-6.941-13.255-11.147-19.943-13.249c-6.715-2.169-12.628-2.445-16.73-2.513
				c-4.114-0.004-6.531,0.131-6.747-0.595c-0.202-0.645,1.852-2.128,6.173-3.422c4.292-1.211,10.967-2.16,19.095-0.62
				c8.065,1.45,17.62,5.825,25.265,13.944c7.618,7.957,13.593,19.765,13.332,33.157c-0.145,6.626-2.036,13.327-5.682,18.716
				c-3.576,5.411-8.443,9.331-13.369,12.014c-9.94,5.458-20.185,6.28-28.049,5.901c-7.979-0.403-14.117-1.815-18.298-2.937
				C664.042,896.281,661.816,895.261,661.912,894.552z"/>
		</g>
		<g>
			<path fill="#EDC38E" d="M828.473,763.227c0.005-0.724,2.19-1.372,6.088-1.996c3.885-0.654,9.513-1.2,16.111-2.504
				c3.292-0.659,6.821-1.531,10.375-2.861c3.584-1.348,7.151-3.018,10.311-5.497c6.373-4.783,12.025-12.896,11.625-21.202
				c-0.12-4.098-1.857-7.952-4.426-11.189c-2.638-3.229-6.081-5.901-9.717-7.983c-7.236-4.23-15.161-6.143-21.898-8.236
				c-6.755-1.999-12.321-4.081-15.877-6.115c-3.582-2.005-5.209-3.686-4.893-4.298c0.338-0.667,2.531-0.249,6.302,0.493
				c3.775,0.778,9.192,1.661,16.121,2.736c3.464,0.557,7.317,1.206,11.498,2.196c4.174,1,8.795,2.462,13.303,4.767
				c4.526,2.275,9.12,5.413,13.011,9.905c3.831,4.494,6.786,10.605,6.993,17.278c0.309,6.652-1.912,12.793-4.979,17.713
				c-3.148,4.916-7.139,8.849-11.486,11.757c-4.353,3.001-9.037,4.763-13.288,5.92c-4.31,1.173-8.372,1.694-12.031,1.927
				c-7.332,0.438-13.095-0.163-17.045-0.75C830.62,764.666,828.468,763.942,828.473,763.227z"/>
		</g>
		<g>
			<path fill="#EDB180" d="M357.707,173.654c0.317,0.596-0.519,1.866-2.73,3.279c-2.195,1.423-5.917,2.685-10.685,2.767
				c-4.754,0.101-10.498-1.204-15.989-4.58c-5.447-3.304-10.667-9.095-12.749-16.779c-1.93-7.724-0.197-15.324,2.948-20.866
				c3.147-5.625,7.526-9.566,11.725-11.795c4.203-2.254,8.068-2.967,10.678-2.795c2.619,0.156,3.969,0.857,3.983,1.532
				c0.073,1.604-5.067,2.476-10.512,7.357c-2.729,2.366-5.447,5.794-7.292,10.018c-1.865,4.205-2.595,9.216-1.441,13.923
				c1.287,4.672,4.369,8.691,8.048,11.453c3.67,2.788,7.714,4.455,11.251,5.19C352.075,173.964,356.988,172.219,357.707,173.654z"/>
		</g>
		<g>
			<path fill="#EDB180" d="M326.779,752.102c0.148,0.446-2.102,1.886-6.774,2.907c-4.624,0.915-11.826,1.255-20.101-1.513
				c-8.104-2.736-17.668-8.593-23.523-19.089c-5.858-10.32-7.251-24.325-2.449-37.089c1.171-3.114,2.629-6.099,4.458-8.807
				c0.732-1.22,2.333-3.245,1.974-2.736l0.088-0.05c0,0-0.018-0.027-0.041-0.052l-0.019-0.02c-0.02-0.014,0.119,0.055-0.345-0.175
				c-0.648-0.304-1.271-0.643-1.867-1.02c-2.434-1.425-4.624-3.13-6.514-5.038c-3.82-3.779-6.54-8.273-8.114-12.878
				c-1.592-4.599-1.958-9.36-1.39-13.559c0.577-4.214,1.941-7.912,3.621-10.974c3.407-6.155,7.935-9.7,11.198-11.469
				c3.324-1.77,5.401-1.978,5.56-1.583c0.219,0.493-1.439,1.567-3.968,3.845c-2.492,2.272-5.889,5.947-8.194,11.45
				c-2.295,5.435-3.332,12.771-0.38,19.913c1.433,3.551,3.747,7.015,6.848,9.869c1.53,1.446,3.278,2.714,5.169,3.751
				c0.463,0.281,0.944,0.527,1.443,0.741c0.112,0.031,0.787,0.412,1.378,0.62c0.576,0.237,1.232,0.427,1.882,0.623
				c2.574,0.76,5.17,1.526,7.786,2.298c-2.019,2.131-4.055,4.281-6.107,6.447c-2.366,2.745-2.465,3.053-3.324,4.357
				c-1.475,2.213-2.657,4.674-3.626,7.245c-3.992,10.57-3.015,22.235,1.434,30.78c4.39,8.714,12.151,14.267,19.041,17.302
				c7.017,3.072,13.405,3.633,17.768,3.706C324.081,751.885,326.602,751.497,326.779,752.102z"/>
		</g>
		<g>
			<path fill="#D6D3CB" d="M1072.987,337.257c-0.181,2.272-31.325,0.344-69.709-0.865c-38.382-1.296-69.567-1.403-69.646-3.683
				c-0.089-2.144,31.176-5.637,69.825-4.333C1042.108,329.594,1073.172,335.122,1072.987,337.257z"/>
		</g>
		<g>
			<path fill="#D6D3CB" d="M979.043,295.511c-0.286,2.233-15.779,2.032-34.727,1.419c-18.947-0.663-34.418-1.505-34.553-3.753
				c-0.144-2.173,15.448-4.937,34.824-4.262C963.963,289.546,979.334,293.353,979.043,295.511z"/>
		</g>
		<g>
			<path fill="#D6D3CB" d="M1112.544,611.743c0.031,2.214-27.654,4.569-61.836,5.259c-34.181,0.69-61.915-0.545-61.946-2.759
				s27.654-4.569,61.835-5.259C1084.779,608.294,1112.513,609.529,1112.544,611.743z"/>
		</g>
		<g>
			<path fill="#D6D3CB" d="M1060.696,671.283c-0.09,2.248-12.129,3.545-26.827,4.683c-14.702,1.088-26.799,1.618-27.226-0.59
				c-0.429-2.136,11.394-6.274,26.621-7.406C1048.487,666.796,1060.799,669.106,1060.696,671.283z"/>
		</g>
		<g>
			<path fill="#D6D3CB" d="M1150,494.208c-0.062,2.213-27.589,2.881-61.483,1.491c-33.894-1.39-61.32-4.311-61.258-6.524
				c0.062-2.213,27.589-2.881,61.483-1.491C1122.636,489.073,1150.062,491.994,1150,494.208z"/>
		</g>
	</g>
	<g>
		<path fill="#40426B" d="M221.743,193.228c-0.149,0.441-2.648-0.072-7.085-0.773c-4.431-0.724-10.926-1.294-18.837-0.697
			c-3.958,0.273-8.245,1.019-12.765,2.074c-4.477,1.235-9.229,2.704-13.922,4.97c-9.434,4.354-18.855,11.273-26.179,20.668
			c-7.165,9.518-11.394,20.415-13.142,30.657c-0.966,5.122-1.148,10.092-1.176,14.735c0.159,4.639,0.554,8.973,1.32,12.865
			c1.483,7.794,3.723,13.916,5.575,18.006c1.831,4.102,2.977,6.381,2.59,6.64c-0.292,0.206-2.104-1.64-4.643-5.547
			c-2.556-3.89-5.536-10.055-7.649-18.192c-1.08-4.062-1.759-8.633-2.144-13.574c-0.2-4.943-0.188-10.276,0.69-15.806
			c1.569-11.05,5.971-22.988,13.835-33.419c8.025-10.308,18.406-17.665,28.666-22.056c5.111-2.287,10.257-3.686,15.082-4.78
			c4.87-0.914,9.461-1.448,13.664-1.463c8.406-0.078,15.134,1.196,19.555,2.65C219.611,191.624,221.866,192.892,221.743,193.228z"/>
	</g>
</g>
</svg>
