<?xml version="1.0" encoding="utf-8"?>
<!-- Generator: Adobe Illustrator 23.0.3, SVG Export Plug-In . SVG Version: 6.00 Build 0)  -->
<svg version="1.1" id="Layer_1" xmlns="http://www.w3.org/2000/svg" xmlns:xlink="http://www.w3.org/1999/xlink" x="0px" y="0px"
	 viewBox="0 0 1200 1200" enable-background="new 0 0 1200 1200" xml:space="preserve">
<g>
	<g>
		<path fill="#171C2E" d="M1108.657,625.139c1.841,0.033,3.682,0.054,5.523,0.063c5.104,0.027,10.28-0.031,15.201,1.264
			c5.11,1.344,10.247,4.471,12.438,9.477c2.695,6.157,0.321,13.656-4.094,18.827c-4.415,5.171-10.541,8.51-16.518,11.73
			c5.314,3.391,10.722,6.865,14.695,11.758c3.973,4.893,6.342,11.533,4.638,17.671c-1.826,6.576-7.738,11.132-13.476,14.853
			c-51.274,33.247-119.118,38.788-174.311,14.237c-16.586-7.378-32.319-17.537-43.346-31.935s-16.867-33.475-12.713-51.316
			c3.82-16.406,15.877-30.424,30.85-38.202c11.314-5.878,24.32-8.476,36.948-8.025c11.285,0.403,20.063,2.074,29.987,6.846
			c21.183,10.187,43.981,16.183,67.325,19.293C1077.308,623.744,1092.986,624.861,1108.657,625.139z"/>
		<path fill="#171C2E" d="M334.987,752.199c-1.695,0.323-3.393,0.635-5.094,0.936c-4.716,0.836-9.522,1.607-13.722,3.566
			c-4.362,2.035-8.261,5.693-8.921,10.593c-0.812,6.026,3.434,12.464,8.932,16.462c5.499,3.998,12.08,6.059,18.491,8.036
			c-3.991,3.927-8.047,7.945-10.388,13.024c-2.34,5.079-2.719,11.492,0.536,16.8c3.487,5.687,10.202,8.888,16.529,11.358
			c56.534,22.067,120.834,16.314,165.205-14.78c13.334-9.344,25.118-21.081,31.39-35.922c6.271-14.841,6.464-33.11-2.254-48.668
			c-8.017-14.305-23.004-25.13-38.986-29.819c-12.076-3.543-24.822-3.837-36.386-1.419c-10.333,2.161-18.001,5.076-25.881,10.992
			c-16.821,12.629-36.281,21.705-57.035,28.244C363.618,745.945,349.413,749.454,334.987,752.199z"/>
		<path fill="#40426B" d="M1117.154,740.473c1.832,0.188,3.665,0.365,5.498,0.53c5.084,0.458,10.246,0.838,15.04,2.543
			c4.978,1.771,9.832,5.32,11.593,10.494c2.165,6.363-0.833,13.634-5.67,18.414s-11.222,7.589-17.45,10.293
			c5.008,3.828,10.104,7.746,13.65,12.957c3.546,5.211,5.346,12.027,3.129,18c-2.375,6.398-8.651,10.439-14.682,13.662
			c-53.899,28.798-121.969,28.589-174.89-0.535c-15.904-8.752-30.722-20.204-40.494-35.482s-13.979-34.779-8.333-52.207
			c5.192-16.024,18.389-28.974,33.966-35.46c11.77-4.901,24.949-6.392,37.494-4.876c11.21,1.354,19.817,3.761,29.302,9.354
			c20.247,11.94,42.457,19.84,65.455,24.91C1086.036,736.435,1101.563,738.872,1117.154,740.473z"/>
		<path fill="#40426B" d="M388.731,856.522c-1.741,0.599-3.486,1.188-5.234,1.765c-4.847,1.601-9.788,3.144-14.069,5.894
			c-4.445,2.856-8.367,7.415-8.905,12.853c-0.663,6.688,3.909,13.088,9.705,16.644c5.796,3.556,12.653,4.841,19.332,6.059
			c-4.008,4.865-8.08,9.839-10.349,15.719c-2.269,5.88-2.473,12.927,1.043,18.24c3.767,5.691,10.796,8.201,17.402,9.969
			c59.032,15.799,125.275,0.13,170.195-40.257c13.499-12.137,25.328-26.656,31.373-43.754c6.045-17.099,5.712-37.046-3.746-52.735
			c-8.697-14.426-24.491-24.038-41.135-26.816c-12.575-2.099-25.748-0.556-37.621,3.77c-10.61,3.866-18.444,8.165-26.41,15.767
			c-17.005,16.228-36.84,28.967-58.083,39.13C418.118,845.52,403.55,851.421,388.731,856.522z"/>
		<path fill="#FCDEAA" d="M1012.947,726.796c-7.316,3.52-10.526,7.386-9.146,15.738c6.488,38.758-44.281,88.423-91.495,85.213
			c-10.699-0.725-15.842,0.794-21.847,10.872c-16.29,27.334-43.693,38.344-73.893,42.589c-13.668,1.933-27.645,2.105-40.829-3.348
			c-7.213-2.968-10.768-1.104-14.323,6.281c-16.118,33.443-45.247,47.076-80.416,50.079c-25.643,2.14-49.975-2.485-72.064-16.463
			c-10.216-6.454-19.12-14.392-25.367-24.746c-3.935-6.558-8.042-7.558-15.427-5.591c-37.205,9.802-74.307-16.808-82.797-47.904
			c-2.727-9.94-6.385-12.494-16.705-11.735c-38.655,2.865-70.269-16.359-86.249-50.872c-3.175-6.903-6.282-14.081-6.282-21.536
			c-0.035-10.526-3.796-14.565-14.495-17.464c-41.312-11.251-66.438-68.578-48.042-107.336c0.966-2.105,3.106-3.693,4.693-5.487
			l0.691,0.518c1.242,2.381,2.347,1.864,3.382-0.173l0.104-0.069c-0.207-1.829-0.414-3.658-0.587-5.488
			c1.45-25.367,10.423-47.421,28.577-65.61c7.214-7.213,15.048-13.633,24.849-16.359c9.526-2.658,12.736-6.765,10.734-17.153
			c-5.177-26.748,5.833-47.766,26.333-64.195c13.702-10.975,29.647-16.497,47.283-13.46c7.42,1.277,11.286-0.276,14.979-7.006
			c2.14-3.865,4.556-7.213,7.248-10.043c9.526,5.971,21.95,5.971,35.031-1.001c7.283-3.9,13.15-9.767,22.882-9.18
			c13.909,0.863,25.022-6.212,30.406-18.879c3.866-9.111,3.9-18.568,0.207-26.713c21.26-5.246,42.071-2.865,61.641,7.455
			c8.732,4.59,12.597,3.072,17.809-4.97c27.196-41.761,89.286-36.377,117.38-7.628c4.349,4.452,8.352,9.284,12.494,13.909
			c5.971,0.69,6.868-4.694,9.422-7.8c21.881-26.989,50.562-36.55,83.833-30.199c34.41,6.592,59.432,25.781,69.889,60.709
			c1.967,6.592,1.691,13.15,12.597,11.493c42.141-6.454,76.412,12.839,93.738,51.804c15.946,35.928,14.806,79.829-21.26,111.581
			C1080.386,612.281,1066.305,701.359,1012.947,726.796z"/>
		<path fill="#FFC08C" d="M322.428,625.367c9.506-0.87,11.615,4.431,11.399,12.701c-0.2,7.676,0.855,14.863,11.17,7.091
			c1.022-0.77,4.022-0.229,5.23,0.766c13.581,11.185,23.631,0.25,35.532-5.658c2.024,14.619-0.59,29.35,6.441,43.569
			c5.948,12.026,13.154,21.507,25.004,26.36c15.659,6.414,22.963,17.889,26.058,33.791c2.24,11.508,6.236,21.837,14.986,31.307
			c14.269,15.443,31.077,19.436,49.418,14.534c24.165-6.459,42.765,0.113,59.141,17.71c11.929,12.819,24.567,24.377,40.792,32.529
			c33.771,16.967,66.093,16.746,97.351-4.428c13.884-9.405,27.513-16.816,45.059-14.682c6.334,0.77,12.111,2.215,18.017,4.464
			c12.208,4.649,24.248,9.549,37.602,11.004c27.396,2.985,48.732-9.344,67.742-26.331c12.053-10.771,24.059-21.865,33.58-35.347
			c5.035-7.129,12.689-11.868,21.562-13.804c29.612-6.462,51.735-24.867,70.725-46.783c17.616-20.331,31.844-42.727,35.953-70.722
			c3.173-21.618,6.106-42.098-10.36-60.005c-2.673-2.907-0.642-5.733,3.09-6.795c52.466,35.657,38.383,124.71-14.959,150.172
			c-7.341,3.504-10.539,7.367-9.145,15.726c6.462,38.767-44.296,88.434-91.503,85.209c-10.696-0.731-15.857,0.806-21.854,10.868
			c-16.3,27.346-43.689,38.363-73.898,42.6c-13.644,1.914-27.625,2.098-40.826-3.334c-7.225-2.973-10.748-1.112-14.304,6.264
			c-16.117,33.436-45.248,47.081-80.432,50.062c-25.636,2.173-49.963-2.468-72.066-16.443c-10.229-6.468-19.125-14.406-25.36-24.748
			c-3.955-6.559-8.039-7.544-15.44-5.593c-37.187,9.799-74.307-16.816-82.794-47.903c-2.716-9.949-6.375-12.492-16.689-11.726
			c-38.673,2.872-70.277-16.375-86.259-50.884c-3.19-6.887-6.272-14.084-6.284-21.517c-0.018-10.55-3.784-14.575-14.508-17.492
			c-41.314-11.239-66.412-68.577-48.045-107.323c0.998-2.106,3.118-3.681,4.715-5.502c0,0,0.677,0.543,0.677,0.543
			c1.25,2.374,2.358,1.838,3.392-0.167L322.428,625.367z"/>
		<path fill="#40426B" d="M613.13,444.918c49.913,18.848,103.984,27.107,154.464,44.611c13.807,4.788,27.535,10.385,38.514,20.074
			c10.979,9.689,19.037,24.037,19.031,40.745c-0.01,26.212-20.381,52.322-43.524,63.65c-23.143,11.327-48.08,10.48-70.663,5.503
			c-49.156-10.834-91.4-39.862-126.49-75.9c-35.09-36.038-63.639-79.084-92.022-121.923c-7.949-11.997-16.351-25.03-16.223-41.616
			c0.102-13.238,4.099-27.824,17.701-23.098c12.177,4.231,19.267,19.556,27.581,28.832c11.581,12.921,24.94,23.823,39.253,33.098
			C577.139,429.514,594.819,438.004,613.13,444.918z"/>
		<path fill="#171C2E" d="M512.354,455.511c-0.074,0.866-0.147,1.732-0.16,2.642c27.315,35.199,55.216,69.903,87.833,99.093
			c17.919,16.056,37.411,30.443,58.324,41.904c6.793,2.879,13.677,5.503,20.654,7.872c20.961,7.129,44.134,11.764,64.966,4.231
			c20.78-7.524,37.046-31.083,29.595-51.902c-5.595-15.62-21.677-24.605-36.874-31.251c-32.706-14.226-67.149-24.006-100.469-36.745
			c-28.109-10.725-56.186-23.724-79.67-42.831c-6.879-5.562-12.461-13.175-21.719-14.294
			C521.363,432.645,513.522,443.256,512.354,455.511z"/>
		<path fill="#40426B" d="M404.065,362.888c-9.284,11.217-22.572,15.324-34.962,18.982c-4.728,1.381-9.422,2.796-14.15,4.142
			c-39.587,11.631-79.346,22.572-119.658,26.817c-22.158,2.347-44.591,2.588-66.507-0.138c-22.64-2.83-44.764-8.836-65.472-19.017
			c-18.706-9.181-36.757-22.468-46.627-42.934c-9.871-20.466-9.422-49.354,5.418-66.99c9.457-11.251,23.227-16.428,36.446-16.877
			c13.218-0.414,26.058,3.451,38.482,7.869c45.42,16.256,88.147,40.726,133.946,55.773c16.808,5.488,34.065,9.595,51.597,11.562
			c15.324,1.691,30.924,1.795,46.386-0.483c11.114-1.622,24.746-8.007,35.721-4.107
			C416.938,341.869,411.485,353.915,404.065,362.888z"/>
		<path fill="#171C2E" d="M356.264,383.941c-0.414,0.69-0.828,1.38-1.311,2.071c-39.587,11.631-79.346,22.572-119.658,26.817
			c-22.158,2.347-44.591,2.588-66.507-0.138c-6.661-1.519-13.253-3.279-19.776-5.281c-19.604-6.005-39.518-15.082-51.079-32.028
			c-11.528-16.911-10.975-43.418,5.902-55.014c12.666-8.697,29.612-6.73,44.625-3.486c32.27,7.041,63.435,18.361,95.36,26.851
			c26.921,7.179,55.049,12.632,83.039,11.01c8.18-0.449,16.497-3.141,24.056,1.035C361.89,361.887,362.028,374.105,356.264,383.941z
			"/>
		<path fill="#FCDEAA" d="M570.177,396.987c-5.384,12.667-16.497,19.742-30.406,18.879c-9.733-0.587-15.6,5.28-22.882,9.18
			c-13.081,6.972-25.505,6.972-35.031,1.001c8.835-9.284,20.673-12.874,35.203-10.32c3.969,0.69,7.558,1.415,8.973-3.658
			c5.867-21.088,19.431-34.617,40.346-40.726c1.346-0.38,2.658-0.759,4.003-1.07C574.077,378.419,574.043,387.876,570.177,396.987z"
			/>
		<path fill="#40426B" d="M424.903,659.224c-37.416,20.771-83.645,34.754-123.066,16.934c-1.377-0.638-2.753-1.276-4.066-2.007
			c-32.37-16.678-51.757-52.245-60.419-87.652c-16.854-68.876,0.171-144.74,44.728-199.199
			c40.941-50.075,104.336-81.042,169.488-83.579c10.617-0.423,21.18,2.247,30.219,7.905c26.362,16.586,40.495,29.478,51.32,47.981
			c6.415,10.963,11.67,23.925,17.59,40.757c17.507,49.584,9.785,105.743-14.921,151.626
			C511.061,597.822,470.551,633.882,424.903,659.224z"/>
		<path fill="#171C2E" d="M533.107,359.608c-0.97,0.52-2.087,0.984-3.224,1.342c-10.043,3.216-18.643-2.872-28.422-4.857
			c-29.369-5.978-62.931,1.83-89.65,13.489c-34,14.867-63.181,39.033-87.63,66.729c-29.952,33.847-53.853,74.49-60.368,119.339
			c-6.061,41.851,4.9,87.561,33.958,118.502c-32.37-16.678-51.757-52.245-60.419-87.652c-16.854-68.876,0.171-144.74,44.728-199.199
			c40.941-50.075,104.336-81.042,169.488-83.579c10.617-0.423,21.18,2.247,30.219,7.905
			C508.149,328.213,522.281,341.105,533.107,359.608z"/>
		<path fill="#FCDEAA" d="M570.177,396.987c-5.384,12.667-16.497,19.742-30.406,18.879c-9.733-0.587-15.6,5.28-22.882,9.18
			c-13.081,6.972-25.505,6.972-35.031,1.001c-7.006-4.383-12.425-12.011-15.393-22.434c-4.004-4.107-8.283-6.73-14.634-6.696
			c-16.014,0-28.68-6.799-36.067-21.364c-3.14-6.281-6.384-7.558-13.218-5.384c-8.594,2.761-17.809,4.728-26.816,5.073
			c-21.743,0.863-38.172-13.288-41.278-34.237c-1.657-11.32,0.552-21.364,11.044-27.438c6.419-3.728,10.285-7.835,12.252-15.6
			c7.144-28.266,30.303-41.865,57.637-33.202c10.147,3.244,18.085,2.865,27.955-0.794c15.117-5.66,29.233,0.828,39.173,15.048
			c3.624,2.174,7.386,3.693,11.596,4.694c20.812,5.004,32.753,23.538,50.286,33.754c2.83,1.657,4.694,7.558,4.521,11.389
			c-0.518,12.839,3.935,22.054,13.771,30.924c3.417,3.072,6.005,6.626,7.696,10.492
			C574.077,378.419,574.043,387.876,570.177,396.987z"/>
		<path fill="#FFC08C" d="M482.517,279.022c-4.918,0.016-9.908,0.577-14.741-0.058c-12.699-1.671-22.297,3.437-28.391,13.9
			c-6.735,11.562-13.508,17.909-28.586,12.672c-10.945-3.802-19.304,5.304-20.087,18.011c-0.839,13.62,2.588,17.722,15.908,19.045
			c20.4,2.026,20.747,1.931,26.664,23.527c2.741,10.004,11.311,11.865,18.6,15.348c9.609,4.592,17.243,9.79,14.578,22.154
			c-4.017-4.111-8.289-6.722-14.644-6.714c-15.994,0.021-28.679-6.78-36.041-21.365c-3.157-6.255-6.387-7.562-13.222-5.365
			c-8.615,2.77-17.806,4.713-26.825,5.071c-21.733,0.862-38.155-13.296-41.269-34.254c-1.682-11.319,0.544-21.351,11.05-27.44
			c6.406-3.713,10.265-7.826,12.226-15.585c7.143-28.265,30.32-41.868,57.633-33.195c10.153,3.224,18.108,2.872,27.96-0.812
			C458.455,258.307,472.563,264.799,482.517,279.022z"/>
		<g>
			<g>
				<g>
					<g>
						<path fill="#FFFFFF" d="M329.134,476.401c-0.2,0.027-0.549-1.177-1.021-3.371c-0.48-2.191-1.068-5.374-1.931-9.251
							c-0.872-3.87-2.023-8.452-3.986-13.236c-1.94-4.763-4.826-9.732-8.951-13.911c-2.077-2.057-4.332-3.831-6.733-5.137
							c-2.394-1.315-4.901-2.196-7.372-2.725c-4.96-1.041-9.671-0.772-13.546-0.22c-3.895,0.537-7.011,1.361-9.18,1.872
							c-2.169,0.526-3.386,0.81-3.46,0.608c-0.065-0.174,1.018-0.817,3.107-1.683c2.091-0.85,5.176-1.998,9.18-2.822
							c3.978-0.832,8.957-1.368,14.421-0.382c2.717,0.502,5.53,1.423,8.208,2.849c2.683,1.415,5.179,3.351,7.437,5.591
							c4.483,4.543,7.474,9.904,9.381,14.978c1.919,5.08,2.886,9.849,3.513,13.835c0.617,3.995,0.896,7.237,1.033,9.482
							C329.362,475.122,329.332,476.374,329.134,476.401z"/>
					</g>
				</g>
			</g>
		</g>
		<g>
			<g>
				<g>
					<g>
						<path fill="#FFFFFF" d="M497.948,516.239c-0.315,0.388-4.007-2.812-10.953-6.114c-3.46-1.653-7.761-3.242-12.694-4.306
							c-4.926-1.071-10.495-1.539-16.275-1.065c-5.776,0.533-11.179,1.957-15.846,3.864c-4.674,1.902-8.635,4.211-11.757,6.438
							c-6.27,4.454-9.354,8.244-9.73,7.917c-0.144-0.116,0.46-1.189,1.829-2.933c1.363-1.747,3.574-4.102,6.661-6.623
							c3.079-2.525,7.107-5.131,11.955-7.266c4.838-2.14,10.525-3.732,16.636-4.293c6.117-0.504,11.993,0.079,17.128,1.35
							c5.145,1.264,9.562,3.134,13.032,5.088c3.477,1.949,6.061,3.886,7.706,5.37C497.289,515.147,498.069,516.1,497.948,516.239z"
							/>
					</g>
				</g>
			</g>
		</g>
		<g>
			<g>
				<g>
					<g>
						<g>
							<path fill="#FFFFFF" d="M367.177,580.587c0.076,0.065-0.102,0.398-0.516,0.977c-0.207,0.289-0.473,0.64-0.795,1.049
								c-0.316,0.415-0.699,0.88-1.184,1.35c-1.82,2.001-4.841,4.585-9.086,6.99c-1.037,0.65-2.223,1.131-3.417,1.724
								c-1.21,0.556-2.521,1.019-3.866,1.525c-1.381,0.39-2.783,0.913-4.293,1.195c-0.75,0.159-1.506,0.347-2.283,0.486
								c-0.782,0.112-1.574,0.225-2.376,0.34c-3.216,0.344-6.648,0.517-10.168,0.065c-3.516-0.411-7.119-1.25-10.636-2.621
								c-3.493-1.431-6.681-3.308-9.512-5.433c-2.861-2.099-5.229-4.59-7.321-7.056c-0.502-0.636-0.997-1.264-1.486-1.884
								c-0.466-0.636-0.885-1.294-1.318-1.926c-0.899-1.245-1.554-2.591-2.286-3.825c-0.625-1.294-1.256-2.532-1.749-3.77
								c-0.457-1.253-0.984-2.419-1.287-3.605c-1.417-4.668-1.825-8.623-1.764-11.327c-0.027-0.675,0.016-1.275,0.074-1.794
								c0.049-0.519,0.098-0.956,0.147-1.308c0.099-0.704,0.199-1.068,0.3-1.063s0.196,0.378,0.286,1.075
								c0.045,0.349,0.089,0.779,0.131,1.285c0.034,0.507,0.079,1.089,0.192,1.74c0.281,2.61,0.986,6.362,2.581,10.731
								c0.347,1.11,0.912,2.198,1.396,3.367c0.521,1.154,1.172,2.305,1.806,3.507c0.742,1.144,1.397,2.396,2.285,3.546
								c0.428,0.585,0.839,1.195,1.295,1.783c0.476,0.573,0.958,1.153,1.446,1.741c2.027,2.274,4.285,4.577,6.983,6.504
								c2.668,1.955,5.643,3.682,8.88,5.011c3.261,1.269,6.607,2.069,9.887,2.492c3.283,0.464,6.506,0.352,9.542,0.102
								c0.759-0.089,1.508-0.177,2.247-0.264c0.736-0.112,1.454-0.271,2.167-0.399c1.436-0.22,2.774-0.676,4.1-0.993
								c1.289-0.434,2.554-0.819,3.726-1.296c1.157-0.513,2.316-0.911,3.333-1.477c4.167-2.066,7.264-4.298,9.267-5.994
								c0.531-0.394,0.965-0.785,1.339-1.128c0.38-0.338,0.708-0.619,0.981-0.841C366.775,580.726,367.101,580.522,367.177,580.587z
								"/>
						</g>
					</g>
				</g>
			</g>
			<g>
				<g>
					<g>
						<g>
							<path fill="#FFFFFF" d="M310.247,627.404c-0.772-0.264,1.197-8.005,3.748-17.483c2.567-9.473,4.763-17.153,5.563-16.992
								c0.775,0.152-0.161,8.172-2.756,17.75C314.222,620.262,310.993,627.663,310.247,627.404z"/>
						</g>
					</g>
				</g>
			</g>
			<g>
				<g>
					<g>
						<g>
							<path fill="#FFFFFF" d="M337.554,631.391c0.053,0.354-2.612,1.179-7.091,1.457c-1.118,0.064-2.347,0.112-3.665,0.057
								c-1.322,0-2.725-0.142-4.206-0.274c-2.949-0.349-6.172-0.964-9.463-1.952c-3.281-1.018-6.298-2.308-8.939-3.667
								c-1.302-0.717-2.545-1.383-3.642-2.122c-1.124-0.69-2.116-1.417-3.008-2.094c-3.56-2.733-5.309-4.906-5.067-5.17
								c0.293-0.333,2.5,1.264,6.215,3.464c0.932,0.546,1.947,1.146,3.077,1.719c1.102,0.621,2.334,1.178,3.608,1.8
								c2.586,1.167,5.483,2.319,8.606,3.29c3.132,0.94,6.178,1.602,8.975,2.079c1.404,0.197,2.737,0.422,3.998,0.523
								c1.257,0.156,2.434,0.226,3.512,0.293C334.775,631.043,337.497,630.951,337.554,631.391z"/>
						</g>
					</g>
				</g>
			</g>
		</g>
		<g>
			<path fill="#FFC08C" d="M432.086,276.625c-1.083,0.591-4.36-6.297-13.604-12.84c-4.596-3.178-10.689-6.164-17.834-7.268
				c-7.085-1.169-15.233-0.098-22.803,3.392c-7.54,3.554-13.6,9.104-17.26,15.282c-3.748,6.182-5.38,12.768-5.901,18.331
				c-0.934,11.287,2.235,18.226,1.086,18.675c-0.416,0.199-1.764-1.235-3.238-4.397c-1.472-3.145-2.944-8.092-3.142-14.434
				c-0.131-6.294,1.114-14.043,5.204-21.601c4.018-7.594,11.151-14.457,20.088-18.646c8.955-4.15,18.797-5.199,27.197-3.394
				c8.417,1.728,15.153,5.757,19.889,9.905c4.73,4.229,7.572,8.538,9.034,11.687C432.275,274.48,432.506,276.435,432.086,276.625z"
				/>
		</g>
		<g>
			<path fill="#FCDEAA" d="M549.071,358.384c-1.145-0.423,1.264-7.048,0.976-17.793c-0.117-5.344-1.072-11.677-3.411-18.251
				c-2.318-6.564-6.18-13.297-11.659-19.021c-5.57-5.637-12.193-9.683-18.69-12.183c-6.506-2.521-12.811-3.651-18.149-3.917
				c-10.733-0.587-17.423,1.637-17.814,0.481c-0.385-0.729,5.916-4.955,17.787-5.777c5.872-0.415,13.013,0.246,20.504,2.717
				c7.472,2.444,15.246,6.881,21.73,13.458c6.395,6.665,10.613,14.559,12.849,22.096c2.262,7.557,2.723,14.714,2.146,20.572
				C554.189,352.608,549.79,358.788,549.071,358.384z"/>
		</g>
		<g>
			<path fill="#FFC08C" d="M414.991,361.57c0.747,0.414-1.909,7.347-10.777,15.107c-4.441,3.769-10.503,7.625-18.119,9.869
				c-7.587,2.31-16.714,2.601-25.593,0.045c-8.867-2.584-16.551-7.854-21.358-14.429c-4.844-6.54-6.874-13.723-7.268-19.672
				c-0.347-6.003,0.838-10.792,2.186-13.785c1.349-3.017,2.68-4.331,3.085-4.13c1.148,0.44-1.903,6.975-0.013,17.276
				c0.963,5.051,3.214,10.933,7.449,16.062c4.169,5.127,10.561,9.303,18.008,11.485c7.486,2.14,15.129,2.121,21.717,0.482
				c6.644-1.585,12.276-4.51,16.701-7.42C409.846,366.488,414.033,360.869,414.991,361.57z"/>
		</g>
		<g>
			<path fill="#FCDEAA" d="M544.285,407.536c0.83,0.486-0.502,5.386-4.495,12.79c-2.043,3.658-4.922,7.98-9.254,11.937
				c-4.259,3.909-10.314,7.513-17.466,8.28c-7.059,0.8-13.791-1.027-18.956-4.107c-5.236-3.092-8.737-7.362-10.887-11.181
				c-2.166-3.856-3.028-7.328-3.289-9.719c-0.246-2.41,0.064-3.761,0.551-3.848c1.129-0.245,2.445,4.73,7.142,10.625
				c2.345,2.898,5.585,5.984,9.816,8.08c4.2,2.117,9.468,3.318,14.782,2.707c5.279-0.562,9.986-3.055,13.832-6.091
				c3.856-3.043,6.86-6.546,9.324-9.625C540.245,411.146,543.336,406.977,544.285,407.536z"/>
		</g>
		<g>
			<path fill="#FCDEAA" d="M767.058,379.212c-1.138,0.467-4.442-8.259-13.492-19.476c-4.567-5.518-10.662-11.581-18.595-16.473
				c-7.852-4.936-17.699-8.386-28.324-9.098c-10.6-0.648-20.792,1.64-28.694,6.141c-7.971,4.469-13.783,10.773-17.554,16.666
				c-3.74,5.961-5.593,11.487-6.534,15.392c-0.958,3.914-1.225,6.221-1.82,6.231c-0.434,0.02-1.172-2.294-1.069-6.621
				c0.091-4.3,1.273-10.628,4.825-17.63c3.581-6.919,9.666-14.473,18.661-19.992c8.962-5.572,20.66-8.408,32.658-7.663
				c12.004,0.791,23.068,4.944,31.592,10.774c8.587,5.771,14.784,12.798,19.102,19.109
				C766.347,369.434,767.848,379.009,767.058,379.212z"/>
		</g>
		<g>
			<path fill="#FCDEAA" d="M1043.07,529.818c-0.198-0.556,2.37-1.737,6.331-4.587c3.955-2.802,9.182-7.704,13.357-15.188
				c4.231-7.435,6.915-17.525,5.909-28.783c-0.922-11.223-5.343-23.326-12.702-34.256c-7.373-10.941-16.929-19.551-26.86-25.049
				c-9.944-5.555-20.17-7.808-28.81-8.172c-8.671-0.372-15.688,1.084-20.425,2.388c-4.751,1.328-7.363,2.388-7.639,1.885
				c-0.229-0.395,1.924-2.346,6.617-4.616c4.667-2.233,12.029-4.648,21.466-4.954c9.361-0.326,20.877,1.593,32.038,7.379
				c11.147,5.713,21.789,15.023,29.823,26.952c8.025,11.915,12.74,25.346,13.378,37.98c0.753,12.647-2.948,24.151-8.268,31.994
				c-5.269,7.976-11.655,12.72-16.387,14.941C1046.138,530.003,1043.196,530.235,1043.07,529.818z"/>
		</g>
		<g>
			<path fill="#FCDEAA" d="M1039.626,560.725c-0.176-0.527,1.834-1.576,5.163-3.685c3.312-2.104,7.966-5.399,12.444-10.583
				c4.496-5.136,8.496-12.344,10.355-21.108c1.911-8.726,1.655-18.896-1.03-29.006c-2.636-10.13-7.516-19.037-12.907-26.542
				c-5.395-7.5-11.191-13.654-16.256-18.647c-10.228-9.919-17.196-15.625-16.521-16.536c0.542-0.755,8.585,3.392,20.054,12.59
				c5.683,4.641,12.164,10.674,18.254,18.465c6.051,7.735,11.684,17.488,14.618,28.759c2.978,11.203,3.073,22.658,0.503,32.511
				c-2.497,9.891-7.688,17.935-13.229,23.16c-5.53,5.299-11.082,8.145-15.005,9.556
				C1042.116,561.07,1039.769,561.178,1039.626,560.725z"/>
		</g>
		<g>
			<path fill="#FFC08C" d="M905.017,816.366c0.77-1.088,8.264,5.254,22.762,8.536c7.173,1.668,16.049,2.293,25.581,0.765
				c9.505-1.494,19.606-5.439,28.173-12.285c8.436-7.007,14.341-16.103,17.725-25.109c3.423-9.027,4.604-17.846,4.42-25.208
				c-0.284-14.862-4.982-23.483-3.76-24.018c0.404-0.218,2.013,1.653,4.034,5.6c2.038,3.931,4.14,10.124,5.013,18.094
				c0.899,7.952,0.211,17.713-3.212,27.864c-3.375,10.114-9.811,20.562-19.489,28.583c-9.81,7.857-21.345,12.049-31.932,13.311
				c-10.633,1.301-20.333,0.002-27.938-2.485c-7.629-2.466-13.27-5.775-16.708-8.566
				C906.23,818.671,904.721,816.718,905.017,816.366z"/>
		</g>
		<g>
			<path fill="#FFC08C" d="M727.224,903.632c0.412,0.223-0.304,2.775-2.531,6.967c-2.22,4.182-6.053,9.968-11.98,16.162
				c-5.956,6.118-14.114,12.612-24.565,17.387c-10.401,4.838-23.13,7.563-36.418,6.867c-13.28-0.757-25.723-4.926-35.374-11.315
				c-9.702-6.333-16.583-14.383-21.026-21.758c-4.405-7.452-6.503-14.183-7.324-18.877c-0.831-4.712-0.575-7.375-0.134-7.435
				c1.271-0.298,2.599,10.263,11.891,23.414c4.652,6.46,11.337,13.419,20.267,18.814c8.86,5.435,20.078,8.984,32.112,9.679
				c12.051,0.621,23.598-1.625,33.245-5.713c9.711-4.035,17.607-9.608,23.669-14.893C721.14,912.163,726.15,902.977,727.224,903.632
				z"/>
		</g>
		<g>
			<path fill="#FFC08C" d="M462.325,817.726c0.226,0.399-1.397,2.015-4.931,4.031c-3.518,2.013-8.983,4.438-16.196,5.914
				c-7.177,1.467-16.136,2.021-25.814,0.096c-9.669-1.874-19.878-6.427-28.734-13.578c-17.719-14.401-26.072-35.798-23.33-51.055
				c1.276-7.604,4.904-12.942,7.901-15.827c3.068-2.913,5.348-3.624,5.594-3.24c0.333,0.46-1.291,1.973-3.354,5.107
				c-2.023,3.111-4.433,8.095-4.885,14.613c-1.15,12.932,6.924,31.724,22.787,44.581c7.944,6.4,16.896,10.619,25.489,12.656
				c8.618,2.084,16.779,2.129,23.519,1.416C453.952,820.925,461.769,816.605,462.325,817.726z"/>
		</g>
		<g>
			<path fill="#EDC38E" d="M893.209,511.157c-0.215-0.258,0.065-0.963,0.767-2.04c0.351-0.539,0.807-1.17,1.362-1.886
				c0.506-0.755,1.088-1.624,1.742-2.601c2.536-3.886,5.987-9.695,7.946-17.585c2.021-7.79,2.613-17.699-0.349-27.687
				c-2.851-9.98-10.06-19.429-20.559-25.33c-10.41-5.958-22.413-7.808-32.582-6.047c-5.105,0.907-9.779,2.513-13.652,4.84
				c-3.9,2.369-7.159,5.284-9.675,8.298c-5.064,6.069-7.005,12.416-7.162,16.832c-0.24,4.456,0.531,7.099-0.197,7.393
				c-0.472,0.248-2.565-1.929-3.585-7.144c-1.095-5.146,0.101-13.348,5.417-21.186c2.634-3.906,6.216-7.725,10.796-10.958
				c4.634-3.238,10.288-5.547,16.361-6.883c12.217-2.65,26.593-0.75,39.111,6.404c6.248,3.563,11.696,8.274,15.863,13.731
				c4.193,5.456,6.987,11.624,8.511,17.658c3.032,12.162,1.451,23.572-1.729,32.149c-3.137,8.688-7.977,14.579-11.643,17.993
				c-0.952,0.838-1.785,1.581-2.557,2.165c-0.814,0.544-1.515,0.978-2.099,1.3C894.126,511.215,893.423,511.415,893.209,511.157z"/>
		</g>
		<g>
			<path fill="#EDC38E" d="M914.206,546.846c-0.347-1.443,3.721-3.137,7.147-8.165c1.74-2.449,3.25-5.765,3.877-9.526
				c0.651-3.753,0.185-7.875-1.725-11.292c-2.012-3.358-5.354-5.815-8.933-7.119c-3.574-1.328-7.201-1.67-10.192-1.381
				c-6.067,0.468-9.562,3.152-10.64,2.132c-0.467-0.426-0.203-1.726,1.166-3.537c1.352-1.814,4.032-3.921,7.917-5.302
				c3.867-1.393,8.942-1.86,14.352-0.498c5.347,1.307,11.204,4.827,14.757,10.827c3.433,6.069,3.569,12.9,2.04,18.189
				c-1.513,5.37-4.445,9.538-7.578,12.198c-3.132,2.681-6.294,3.956-8.54,4.225C915.602,547.881,914.343,547.463,914.206,546.846z"
				/>
		</g>
		<g>
			<path fill="#EDC38E" d="M890.185,688.695c0.624-0.1,1.54,1.342,2.23,4.253c0.702,2.902,0.907,7.315-0.169,12.629
				c-1.056,5.305-3.625,11.439-8.158,17.156c-4.487,5.699-11.167,10.891-19.454,13.537c-8.33,2.509-16.775,2.009-23.7-0.15
				c-6.973-2.148-12.562-5.751-16.435-9.528c-3.895-3.772-6.224-7.526-7.287-10.316c-1.079-2.79-1.14-4.497-0.568-4.768
				c1.36-0.694,4.559,4.657,12.196,9.74c3.767,2.555,8.696,4.908,14.426,6.208c5.71,1.316,12.236,1.379,18.483-0.486
				c6.206-1.997,11.55-5.742,15.513-10.059c3.988-4.315,6.721-9.044,8.38-13.283C889.061,695.115,888.671,688.893,890.185,688.695z"
				/>
		</g>
		<g>
			<path fill="#EDC38E" d="M915.606,657.575c1.112-0.57,3.887,1.723,5.375,7.07c1.5,5.184,1.116,13.616-4.162,20.831
				c-5.33,7.176-13.271,10.038-18.667,10.139c-5.549,0.161-8.56-1.812-8.344-3.043c0.185-1.394,3.137-2.035,6.992-3.708
				c3.848-1.61,8.748-4.527,12.182-9.165c3.415-4.653,4.751-10.196,5.151-14.348C914.59,661.174,914.329,658.164,915.606,657.575z"
				/>
		</g>
		<g>
			<path fill="#EDC38E" d="M640.426,694.884c0.519,0.339-0.063,2.476-2.13,5.829c-2.047,3.358-5.878,7.737-11.69,11.882
				c-5.785,4.155-13.722,7.805-23.163,9.388c-9.386,1.605-20.395,0.858-30.788-3.632c-10.316-4.664-18.28-12.303-23.41-20.325
				c-5.185-8.048-7.828-16.374-8.649-23.449c-0.847-7.088-0.187-12.869,0.918-16.643c1.089-3.786,2.277-5.655,2.878-5.499
				c1.566,0.325-0.207,8.608,2.97,20.865c1.531,6.088,4.486,13.048,9.287,19.66c4.765,6.607,11.58,12.689,19.942,16.485
				c8.436,3.628,17.521,4.575,25.614,3.652c8.122-0.899,15.258-3.399,20.791-6.365C634.199,700.831,639.132,693.944,640.426,694.884
				z"/>
		</g>
		<g>
			<path fill="#EDB180" d="M703.95,879.029c1.101,0.303,0.53,7.338-6.117,16.142c-3.279,4.35-8.148,8.893-14.54,12.48
				c-6.358,3.59-14.345,6.077-22.988,6.182c-8.642-0.014-16.655-2.417-23.051-5.941c-6.429-3.52-11.346-8.011-14.67-12.326
				c-6.738-8.734-7.384-15.762-6.286-16.077c1.393-0.582,4.307,5.045,11.346,11.408c6.828,6.34,18.717,13.215,32.61,13.199
				c13.893-0.13,25.709-7.129,32.47-13.54C699.697,884.118,702.551,878.461,703.95,879.029z"/>
		</g>
		<g>
			<path fill="#EDB180" d="M387.569,308.765c0.095,1.409-2.864,2.611-6.556,5.153c-3.694,2.469-8.215,6.617-10.695,12.291
				c-2.453,5.686-2.397,11.822-1.679,16.206c0.664,4.433,1.806,7.416,0.712,8.308c-0.925,0.829-4.337-0.838-7.187-5.968
				c-2.82-4.955-4.507-13.736-0.777-22.425c3.802-8.658,11.371-13.42,16.916-14.742
				C383.996,306.167,387.543,307.522,387.569,308.765z"/>
		</g>
		<g>
			<path fill="#EDC38E" d="M512.351,328.27c0.055-0.563,1.615-1.158,4.456-0.522c2.779,0.627,6.791,2.799,9.69,7.438
				c1.418,2.304,2.542,5.238,2.714,8.675c0.126,3.415-0.86,7.349-3.167,10.511c-2.235,3.213-5.529,5.812-9.498,7.299
				c-1.955,0.737-4.205,1.257-6.357,1.292c0.153,0.013,0.019,0.042,0.071,0.055l0.02,0.024c0,0,0.004,0,0.002,0.027l-0.205,1.076
				c-1.147,5.27-4.367,9.365-8.378,12.008c-4.175,2.718-8.882,3.376-12.947,3.005c-8.231-0.817-14.254-5.352-17.852-9.506
				c-3.67-4.232-5.503-8.184-6.55-10.938c-1.018-2.781-1.173-4.477-0.596-4.797c0.597-0.333,1.885,0.758,3.825,2.813
				c1.95,2.028,4.539,5.099,8.119,7.984c1.799,1.445,3.823,2.781,6.116,3.781c2.301,0.999,4.901,1.67,7.491,1.709
				c2.576,0.04,5.178-0.589,7.086-1.976c2.013-1.4,3.703-3.762,4.16-6.096l0.091-0.425l-0.069-1.392
				c-0.053-0.51,0-0.936-0.138-1.513l-0.441-1.751c-0.569-2.267-1.134-4.519-1.694-6.755c3.634,1.037,7.972,2.671,11.59,3.123
				c1.285,0.031,2.379-0.199,3.539-0.548c2.275-0.693,4.318-2.083,5.682-3.711c1.441-1.623,2.116-3.475,2.366-5.383
				c0.177-1.926-0.171-3.885-0.806-5.598c-1.302-3.466-3.586-5.81-5.339-7.176C513.558,329.607,512.259,328.941,512.351,328.27z"/>
		</g>
	</g>
</g>
</svg>
