<?xml version="1.0" encoding="utf-8"?>
<!-- Generator: Adobe Illustrator 23.0.3, SVG Export Plug-In . SVG Version: 6.00 Build 0)  -->
<svg version="1.1" id="Layer_1" xmlns="http://www.w3.org/2000/svg" xmlns:xlink="http://www.w3.org/1999/xlink" x="0px" y="0px"
	 viewBox="0 0 1200 1200" enable-background="new 0 0 1200 1200" xml:space="preserve">
<g>
	<g>
		<path fill="#171C2E" d="M750.826,473.269c4.115-6.625,8.585-13.58,15.59-17.008c7.005-3.428,17.232-1.476,19.879,5.86
			c1.926,5.338-0.197,12.563,4.325,15.991c4.521,3.426,10.893-0.568,16.555-0.203c5.672,0.366,10.193,5.364,11.804,10.815
			c1.611,5.451,0.922,11.286,0.138,16.915c-3.114,22.343-7.528,44.504-13.212,66.334c-5.872,22.555-13.816,45.895-31.232,61.384
			c-12.636,11.238-29.715,17.336-46.611,16.644c-31.567-1.294-52.298-25.162-47.602-56.364c3.659-24.306,25.18-47.618,37.776-67.897
			C729.1,508.25,739.963,490.759,750.826,473.269z"/>
		<path fill="#40426B" d="M440.485,1118.849c1.223,6.168,2.569,12.604,6.582,17.497c4.013,4.893,11.586,7.585,16.987,4.22
			c4.41-2.748,7.367-9.095,12.525-8.297c5.534,0.856,5.865,8.529,9.016,13.08c4.103,5.927,13.623,5.856,19.548,1.674
			c5.925-4.182,9.059-11.122,11.668-17.816c7.758-19.908,13.244-40.669,16.324-61.77c2.86-19.594,3.196-41.128-8.314-57.375
			c-12.232-17.266-36.426-24.347-57.14-19.018c-18.06,4.647-42.698,21.885-44.062,41.739
			C421.822,1058.918,435.373,1093.065,440.485,1118.849z"/>
		<path fill="#40426B" d="M669.045,1118.849c-1.223,6.168-2.569,12.604-6.582,17.497c-4.013,4.893-11.586,7.585-16.987,4.22
			c-4.41-2.748-7.367-9.095-12.525-8.297c-5.534,0.856-5.865,8.529-9.016,13.08c-4.103,5.927-13.623,5.856-19.548,1.674
			c-5.925-4.182-9.059-11.122-11.668-17.816c-7.758-19.908-13.244-40.669-16.324-61.77c-2.86-19.594-3.196-41.128,8.314-57.375
			c12.231-17.265,75.854-49.65,96.574-44.328c16.307,4.189,7.458,45.003,6.395,56.546
			C684.617,1055.525,675.468,1086.392,669.045,1118.849z"/>
		<path fill="#FCDEAA" d="M839.228,948.255c-16.612,34.832-44.27,56.595-84.163,62.698c-18.875,2.888-36.887-0.446-52.814-11.343
			c-12.355-4.019-16.315-3.632-19.768,6.758c-5.091,15.302-17.148,23.906-30.218,30.664c-50.433,26.109-102.74,29.295-156.239,8.961
			c-7.026-2.65-14.35-5.776-19.143-11.313c-7.324-8.425-15.035-7.145-24.68-4.555c-54.6,14.648-120.96-5.984-153.828-47.515
			c-15.838-20.006-23.728-42.007-15.481-67.134c2.203-6.669,0.595-11.075-4.734-16.047c-32.331-30.069-37.184-66.33-24.264-105.866
			c4.972-15.243,14.41-27.836,28.848-36.47c5.15-3.096,7.205-5.895,3.603-11.938c-16.136-27.092-11.134-54.66-0.476-81.99
			c4.883-12.534,11.283-24.68,20.542-34.624c10.39-11.164,16.077-23.847,20.512-37.839c9.676-30.575,23.162-59.364,48.944-81.216
			c4.734-3.989,8.604-9.14,15.213-10.688c30.813-27.717,90.623-42.245,133.285-23.162c13.993,6.282,26.496,14.528,34.058,27.538
			c4.734,8.128,10.241,10.36,19.56,9.616c33.076-2.65,64.931,2.56,95.238,15.6c39.298,16.91,71.272,41.59,90.892,79.132
			c8.187,15.66,13.219,32.093,11.938,49.748c-0.536,7.234,1.31,12.593,7.502,17.357c31.736,24.442,48.438,74.309,27.33,121.794
			c-1.608,3.573-2.977,7.294-5.121,10.569c-4.525,6.937-3.513,11.73,3.93,16.523C845.509,846.676,861.943,900.621,839.228,948.255z"
			/>
		<path fill="#FFC08C" d="M391.084,498.787c0.927,9.865,15.87,43.718,22.745,50.07c5.012,4.63,8.807,9.92,10.87,15.466
			c6.942,1.148,11.093-5.903,17.164-3.037c1.03,3.669-1.082,5.502-3.573,7.042c-32.724,20.231-46.073,51.505-54.065,85.971
			c-2.4,10.351-3.967,20.666-3.407,31.282c0.449,8.503,1.936,16.979,8.298,23.061c11.598,11.087,9.45,22.622,3.434,35.053
			c-6.064,12.531-14.151,24.155-16.704,38.242c-5.223,28.819-1.88,56.195,12.592,82.211c9.795,17.608,27.503,24.994,45.339,31.589
			c11.826,4.373,23.881,8.498,36.49,10.962c12.627,2.468,20.685,10.333,22.183,22.732c5.294,43.817,42.509,69.746,81.977,77.022
			c25.339,4.671,50.516,4.735,75.99,0.334c10.663-1.843,18.839-8.162,28.762-11.091c8.679-2.562,16.861-5.487,23.074,3.91
			c-12.367-4.017-16.318-3.614-19.776,6.763c-5.098,15.301-17.131,23.895-30.224,30.673c-50.409,26.09-102.714,29.292-156.22,8.962
			c-7.025-2.669-14.342-5.776-19.15-11.31c-7.332-8.439-15.029-7.153-24.672-4.568c-54.595,14.639-120.973-5.989-153.838-47.527
			c-15.825-20.001-23.731-42.006-15.471-67.112c2.199-6.686,0.603-11.08-4.744-16.054c-32.334-30.077-37.173-66.332-24.254-105.884
			c4.974-15.229,14.417-27.827,28.842-36.454c5.157-3.084,7.218-5.888,3.616-11.933c-16.151-27.104-11.134-54.667-0.499-81.985
			c4.882-12.54,11.292-24.693,20.556-34.642c10.379-11.148,16.066-23.841,20.498-37.82c9.7-30.594,23.164-59.375,48.956-81.217
			C380.592,505.501,384.468,500.351,391.084,498.787z"/>
		<path fill="#40426B" d="M810.052,658.76c-10.182,10.361-26.883,12.891-41.233,9.318c-14.35-3.573-26.705-12.296-37.72-21.852
			c-4.644-4.019-9.08-8.217-13.337-12.564c-28.551-28.938-49.421-64.604-64.723-101.847c-10.093-24.561-17.922-49.926-24.74-75.5
			c-3.305-12.385-6.371-24.859-9.348-37.333c-0.506-2.084-1.607-5.329-2.799-9.051c-3.036-9.676-6.788-22.626-2.888-27.657
			c9.14-11.789,35.874,25.782,41.352,31.944c18.399,20.691,36.767,41.382,55.136,62.073c20.483,23.073,40.965,46.116,61.478,69.188
			c16.166,18.22,32.6,36.827,42.394,58.858C821.484,622.052,823.836,644.768,810.052,658.76z"/>
		<path fill="#40426B" d="M435.5,409.367c-1.25,3.959-2.412,7.413-2.947,9.616c-3.007,12.474-6.044,24.948-9.378,37.333
			c-6.817,25.574-14.618,50.939-24.71,75.5c-15.094,36.708-35.577,71.868-63.502,100.597c-4.644,4.793-9.497,9.408-14.588,13.814
			c-10.986,9.556-23.341,18.279-37.691,21.852c-14.35,3.573-31.051,1.042-41.262-9.318c-13.755-13.992-11.403-36.708-3.543-54.422
			c9.765-22.031,26.198-40.638,42.394-58.858c20.483-23.073,40.965-46.116,61.448-69.188c18.398-20.691,36.767-41.382,55.136-62.073
			c5.478-6.162,32.242-43.734,41.382-31.944C442.05,387.217,438.507,399.78,435.5,409.367z"/>
		<path fill="#40426B" d="M325.612,891.479c0.75,7.763,1.673,15.979,6.432,22.158c4.759,6.179,14.791,8.964,20.417,3.562
			c4.093-3.93,5.394-11.348,10.967-12.415c5.572-1.066,9.512,5.339,14.748,7.522c5.246,2.187,11.514-0.288,15.375-4.459
			c3.861-4.171,5.831-9.707,7.624-15.1c7.116-21.407,12.986-43.227,17.572-65.315c4.738-22.82,7.968-47.263-0.774-68.868
			c-6.343-15.675-18.947-28.715-34.398-35.586c-28.867-12.838-58.033-0.637-67.659,29.412c-7.499,23.408,1.455,53.846,3.752,77.608
			C321.649,850.491,323.631,870.985,325.612,891.479z"/>
		<path fill="#171C2E" d="M435.5,409.367c-1.25,3.959-2.412,7.413-2.947,9.616c-3.007,12.474-6.044,24.948-9.378,37.333
			c-6.817,25.574-14.618,50.939-24.71,75.5c-15.094,36.708-35.577,71.868-63.502,100.597c-0.149,0.089-0.327,0.208-0.476,0.298
			c-11.67,7.354-25.246,14.975-38.465,11.105c-10.063-2.948-17.356-12.355-19.947-22.507c-2.59-10.182-1.101-20.989,1.816-31.051
			c10.688-36.916,39.179-65.646,67.878-91.219c18.845-16.821,38.345-33.135,54.809-52.397
			C410.165,435.417,418.799,409.367,435.5,409.367z"/>
		<path fill="#171C2E" d="M764.055,620.504c-6.371,10.718-19.649,15.868-32.123,15.481c-4.823-0.149-9.557-0.982-14.171-2.322
			c-28.551-28.938-49.421-64.604-64.723-101.847c-10.093-24.561-17.922-49.926-24.74-75.5c-3.305-12.385-6.371-24.859-9.348-37.333
			c-0.506-2.084-1.607-5.329-2.799-9.051c17.714-6.133,30.218,18.012,40.043,32.838c17.237,26.109,35.607,51.504,54.987,76.065
			c10.599,13.427,21.525,26.615,32.748,39.566c7.651,8.812,15.571,17.714,20.304,28.402
			C768.968,597.491,770.069,610.501,764.055,620.504z"/>
		<path fill="#A16247" d="M759.412,233.435c6.936-0.254,13.77,0.235,20.181,3.806c-1.367,45.263-3.906,90.393-5.83,135.584
			c-1.496,35.134,0.204,70.688,3.866,106.214c0.499,4.842,1.705,9.598,4.229,14.069c2.805,4.969,5.988,9.979,13.227,9.437
			c7.283-0.546,13.145-3.331,14.791-10.176c0.985-4.1,1.003-8.458,1.509-12.691c0.576-4.818,2.151-9.282,6.102-12.468
			c6.781-5.467,16.162-2.493,18.675,5.771c7.385,24.282-20.131,54.625-47.521,52.402c-21.201-1.721-37.49-19.236-37.052-40.4
			c0.938-45.314,2.048-90.611,3.254-135.899C755.872,310.481,755.632,271.733,759.412,233.435z"/>
		<path fill="#40426B" d="M628.109,609.32c-19.017,32.077-48.068,63.096-86.986,67.616c-1.367,0.147-2.733,0.293-4.094,0.342
			c-32.929,2.203-64.815-15.337-88.343-37.564c-45.77-43.236-68.7-106.801-60.188-166.916
			c7.803-55.263,42.034-106.496,91.143-137.553c7.998-5.068,17.425-7.831,27.097-7.708c28.246,0.42,45.291,3.595,62.451,12.389
			c10.168,5.21,20.39,12.414,32.966,22.173c37.1,28.718,57.843,73.587,60.584,118.486
			C665.445,525.449,651.309,570.185,628.109,609.32z"/>
		<path fill="#171C2E" d="M569.187,339.926c-0.502,0.818-1.144,1.661-1.852,2.434c-6.226,6.871-15.763,6.234-24.259,9.151
			c-25.523,8.749-47.729,29.541-62.819,50.107c-19.187,26.194-30.23,57.084-35.94,88.458c-7.035,38.375-6.165,79.05,10.132,115.038
			c15.222,33.574,45.424,62.369,82.579,72.165c-32.929,2.203-64.815-15.337-88.343-37.564
			c-45.77-43.236-68.7-106.801-60.188-166.916c7.803-55.263,42.034-106.496,91.143-137.553c7.998-5.068,17.425-7.831,27.097-7.708
			C534.983,327.956,552.027,331.132,569.187,339.926z"/>
		<circle fill="#FFFFFF" cx="617.183" cy="494.837" r="57.501"/>
		<circle fill="#FFFFFF" cx="432.285" cy="494.837" r="57.501"/>
		<path fill="#40426B" d="M452.275,501.179c-0.093-7.387,2.41-12.484,5.966-17.078c3.085-3.987,7.414-5.3,12.241-4.197
			c4.955,1.131,7.899,4.503,8.636,9.505c0.934,6.329,0.524,12.573-2.382,18.414c-2.722,5.472-7.489,8.724-11.997,8.12
			c-5.685-0.761-9.124-4.46-11.215-9.454C452.664,504.433,452.478,502.094,452.275,501.179z"/>
		<path fill="#40426B" d="M570.849,495.268c-0.047-8.909,3.389-13.939,9.805-15.537c5.846-1.456,11.746,1.906,15.156,8.633
			c4.601,9.079,3.753,17.584-2.385,23.943c-5.114,5.298-11.925,5.132-16.424-0.599C572.971,506.575,571.013,500.623,570.849,495.268
			z"/>
		<path fill="#FCDEAA" d="M627.346,377.452c-11.164,15.6-26.347,25.454-45.788,27.33c-9.497,0.923-19.113,0.744-25.842-8.008
			c-6.311-0.655-10.36,3.007-14.796,6.877c-19.679,17.208-35.011,19.083-56.655,5.865c-6.46-3.93-10.658-3.96-16.821-0.208
			c-19.53,11.968-44.121,4.049-54.838-19.828c-9.616-21.435,1.369-48.825,23.668-56.148c10.003-3.275,13.516-7.502,15.005-17.863
			c3.156-22.239,17.922-36.529,37.72-39.745c18.309-3.007,34.058,5.776,44.359,24.71c5.657,0.268,8.931-4.227,13.278-6.639
			c22.477-12.504,42.335-5.389,50.879,19.143c2.292,6.52,5.984,8.544,11.76,10.36C636.694,331.902,644.137,353.992,627.346,377.452z
			"/>
		<path fill="#FCB8FA" d="M963.88,273.104c-5.18,3.989-10.122,1.518-15.064-1.012c-15.213-7.711-30.218-11.045-45.014-10.539
			c-2.62,0.06-5.24,0.268-7.859,0.625c-13.933,1.697-27.687,6.758-41.233,14.677c-19.619,11.462-19.351,11.67-35.13-5.359
			c-12.861-13.933-28.223-23.192-47.634-24.502c-0.983-0.446-1.935-0.804-2.917-1.102c-3.037-0.923-6.103-1.221-9.17-1.102
			c-2.828,0.089-5.656,0.506-8.514,1.072c-15.987-0.327-28.968,7.234-41.62,15.809c-6.013,4.108-9.586,6.371-12.712,6.46
			c-3.513,0.119-6.49-2.531-11.819-8.366c-13.07-14.32-32.54-22.299-52.1-24.025c-1.995-0.208-3.989-0.298-5.954-0.328
			c-18.458-0.506-36.44,4.615-48.586,15.183c-0.834,0.714-1.727,1.34-2.62,1.935c-2.649,1.846-5.537,4.257-8.782,2.56
			c-3.93-2.024-3.632-6.163-3.513-10.033c0.268-8.723,1.756-17.208,4.168-25.544c11.879-40.846,35.339-73.773,68.95-99.466
			c36.678-28.015,78.328-41.173,123.967-42.037c1.518,0,3.037-0.03,4.555-0.03c0.804,0.685,1.638,1.37,2.441,1.995
			c0.149,0.119,0.297,0.238,0.446,0.357c2.292,1.786,4.644,3.305,7.056,4.287c1.608,0.685,3.245,1.102,4.942,1.191
			c3.632,0.208,7.443-1.131,11.492-4.912c0.714,0.149,1.399,0.268,2.084,0.417c0.03,0,0.03,0,0.03,0
			c4.615,0.893,9.14,1.905,13.546,3.037c73.148,18.28,122.866,64.455,150.851,136.441c4.704,12.117,6.937,24.918,9.705,37.571
			C969.06,263.815,968.792,269.293,963.88,273.104z"/>
		<path fill="#FFC08C" d="M533.348,300.425c-4.63,6.301-11.476,4.44-17.49,4.206c-23.974-0.934-39.251,10.794-48.34,32.07
			c-6.361,14.891-4.74,22.598,8.14,32.63c4.271,3.326,6.114,7.036,8.074,11.941c11.803,29.549,31.077,26.725,46.32,12.436
			c13.352-12.516,13.947-12.025,25.661,3.079c-6.316-0.673-10.35,2.979-14.783,6.856c-19.691,17.22-35.012,19.097-56.67,5.88
			c-6.44-3.93-10.653-3.969-16.814-0.202c-19.543,11.948-44.134,4.048-54.84-19.843c-9.601-21.426,1.373-48.819,23.669-56.142
			c9.991-3.282,13.524-7.5,14.999-17.869c3.164-22.229,17.928-36.524,37.731-39.756C507.303,272.724,523.048,281.5,533.348,300.425z
			"/>
		<g>
			<g>
				<g>
					<g>
						<g>
							<path fill="#FFFFFF" d="M559.569,575.444c0.091,0.039,0.043,0.364-0.135,0.953c-0.202,0.576-0.434,1.472-0.971,2.509
								c-0.956,2.135-2.753,5.069-5.613,8.177c-0.682,0.81-1.532,1.522-2.359,2.327c-0.85,0.779-1.808,1.507-2.783,2.28
								c-2.03,1.434-4.28,2.887-6.849,4.032c-5.083,2.364-11.308,3.788-17.852,3.363c-6.537-0.525-12.49-2.835-17.178-5.909
								c-2.377-1.504-4.394-3.267-6.195-4.98c-0.853-0.906-1.696-1.765-2.424-2.659c-0.703-0.916-1.44-1.743-1.998-2.643
								c-2.38-3.489-3.734-6.652-4.372-8.902c-0.381-1.104-0.481-2.024-0.598-2.623c-0.091-0.609-0.092-0.937,0.004-0.963
								c0.217-0.059,0.696,1.131,1.639,3.187c0.932,2.06,2.506,4.942,4.963,8.095c0.577,0.817,1.326,1.558,2.03,2.387
								c0.73,0.807,1.565,1.577,2.4,2.394c1.765,1.536,3.706,3.123,5.965,4.466c4.456,2.754,9.983,4.796,15.972,5.281
								c5.997,0.385,11.761-0.836,16.568-2.917c2.429-1.002,4.579-2.292,6.548-3.557c0.944-0.688,1.882-1.33,2.721-2.022
								c0.816-0.718,1.665-1.344,2.353-2.068c2.888-2.765,4.861-5.389,6.082-7.293C558.717,576.463,559.363,575.354,559.569,575.444
								z"/>
						</g>
					</g>
				</g>
			</g>
			<g>
				<g>
					<g>
						<g>
							<path fill="#FFFFFF" d="M525.003,628.808c-0.806-0.018-1.292-6.893-1.671-15.343c-0.364-8.451-0.484-15.342,0.317-15.431
								c0.777-0.089,2.187,6.745,2.556,15.304C526.588,621.896,525.785,628.828,525.003,628.808z"/>
						</g>
					</g>
				</g>
			</g>
			<g>
				<g>
					<g>
						<g>
							<path fill="#FFFFFF" d="M550.78,613.288c0.162,0.082-0.062,0.968-0.787,2.436c-0.719,1.47-2.038,3.476-4.081,5.613
								c-2.033,2.14-4.869,4.335-8.429,6.032c-3.546,1.701-7.856,2.826-12.454,2.821c-4.598-0.066-8.89-1.258-12.408-3.015
								c-3.533-1.753-6.334-3.992-8.334-6.163c-2.008-2.169-3.296-4.195-3.992-5.676c-0.703-1.48-0.913-2.369-0.749-2.448
								c0.429-0.237,2.045,2.972,6.165,6.672c2.041,1.847,4.749,3.741,8.041,5.22c3.283,1.483,7.179,2.473,11.3,2.535
								c4.122,0.002,8.033-0.927,11.339-2.359c3.315-1.427,6.052-3.278,8.122-5.093C548.688,616.228,550.355,613.045,550.78,613.288
								z"/>
						</g>
					</g>
				</g>
			</g>
		</g>
		<g>
			<path fill="#FCDEAA" d="M795.216,825.549c-0.724-0.92,8.577-7.161,18.695-21.335c2.542-3.512,4.974-7.592,7.376-12.06
				c2.223-4.56,4.516-9.482,6.182-14.924c3.522-10.793,5.259-23.371,3.896-36.325c-1.548-12.911-6.164-24.749-12.178-34.344
				c-6.023-9.621-13.207-17.135-20.024-22.414c-6.803-5.31-13.02-8.717-17.467-10.734c-4.436-2.045-7.006-3.088-6.875-3.574
				c0.091-0.375,2.895-0.158,7.768,1.223c4.876,1.354,11.726,4.269,19.282,9.406c7.564,5.103,15.592,12.756,22.324,22.875
				c6.719,10.085,11.915,22.798,13.59,36.84c1.485,14.036-0.607,27.566-4.676,38.95c-1.94,5.743-4.554,10.885-7.12,15.587
				c-2.743,4.61-5.537,8.753-8.439,12.256c-5.76,7.039-11.314,11.906-15.447,14.8C797.978,824.685,795.442,825.878,795.216,825.549z
				"/>
		</g>
		<g>
			<path fill="#FFC08C" d="M614.653,1040.927c0.352-0.025,1.056,2.158,0.217,6.125c-0.782,3.953-3.876,9.314-9.391,13.821
				c-2.728,2.283-6.013,4.364-9.732,6.182c-1.856,0.94-3.845,1.719-5.88,2.437c-2.043,0.733-4.123,1.577-6.354,2.116
				c-8.799,2.574-18.922,3.962-29.499,3.575c-10.58-0.369-20.545-2.448-29.167-5.47c-8.632-3.028-15.946-6.917-21.637-10.786
				c-11.384-7.863-16.325-14.989-15.797-15.431c0.758-0.776,6.77,5.053,18.206,11.549c11.383,6.407,28.681,13.049,48.622,13.68
				c9.919,0.362,19.386-0.759,27.715-2.864c2.115-0.423,4.086-1.138,6.036-1.733c1.966-0.589,3.823-1.203,5.542-1.954
				c3.472-1.451,6.576-3.118,9.174-4.936c5.249-3.6,8.388-7.748,9.775-10.981C613.916,1043.03,614.128,1040.912,614.653,1040.927z"
				/>
		</g>
		<g>
			<path fill="#FFC08C" d="M406.47,1021.005c0.213,0.305-2.153,2.495-7.116,5.517c-4.942,3.044-12.772,6.494-23.031,8.645
				c-5.122,1.107-10.861,1.644-17.036,1.766c-6.164-0.125-12.8-0.554-19.596-2.147c-13.589-2.93-28.018-9.689-39.866-20.876
				c-11.657-11.387-18.994-25.53-22.47-38.99c-1.867-6.726-2.563-13.339-2.937-19.494c-0.128-6.175,0.177-11.931,1.076-17.094
				c1.734-10.337,4.865-18.301,7.707-23.362c2.818-5.082,4.912-7.534,5.224-7.334c0.446,0.265-0.903,3.147-2.936,8.378
				c-2.064,5.216-4.386,13.048-5.467,22.921c-0.574,4.933-0.595,10.384-0.256,16.188c0.586,5.784,1.423,11.964,3.326,18.211
				c3.559,12.516,10.534,25.475,21.207,35.915c10.863,10.243,24.094,16.689,36.743,19.739c6.319,1.65,12.527,2.236,18.33,2.588
				c5.813,0.104,11.258-0.137,16.164-0.91c9.821-1.479,17.553-4.115,22.682-6.388
				C403.362,1022.035,406.188,1020.571,406.47,1021.005z"/>
		</g>
		<g>
			<path fill="#FFC08C" d="M260.832,838.549c-0.716,0.353-4.61-5.212-8.448-15.483c-1.903-5.128-3.697-11.463-4.672-18.728
				c-0.992-7.247-1.047-15.46,0.52-23.884c1.657-8.459,4.951-16.099,9.037-22.302c4.105-6.203,8.898-11.022,13.484-14.25
				c4.575-3.25,8.754-5.103,11.75-5.92c2.993-0.838,4.731-0.884,4.848-0.492c0.358,1.019-6.064,3.116-13.743,9.978
				c-7.664,6.682-16.103,18.87-19.03,34.196c-2.891,15.405-0.377,29.931,2.17,40.056
				C259.331,831.919,261.722,838.14,260.832,838.549z"/>
		</g>
		<g>
			<path fill="#FFC08C" d="M507.583,292.924c-0.919,0.54-3.661-5.215-11.866-9.372c-4.031-2.015-9.361-3.526-15.187-3.193
				c-5.791,0.293-12.069,2.701-17.474,6.881c-5.405,4.229-9.381,9.664-11.756,15.179c-2.44,5.526-3.495,11.022-3.971,15.682
				c-0.837,9.382,0.329,15.408-0.664,15.621c-0.715,0.224-3.567-5.522-3.902-15.783c-0.091-5.086,0.558-11.304,3.028-17.778
				c2.412-6.485,6.92-13.048,13.304-18.026c6.395-4.956,14.087-7.726,21.252-7.727c7.157-0.037,13.299,2.311,17.676,5.2
				c4.395,2.948,7.087,6.373,8.412,8.938C507.778,291.128,507.933,292.766,507.583,292.924z"/>
		</g>
		<g>
			<path fill="#FCDEAA" d="M627.182,337.798c0.086-0.206,0.538-0.228,1.349-0.068c0.405,0.08,0.9,0.206,1.481,0.379
				c0.551,0.225,1.182,0.51,1.893,0.847c2.767,1.401,6.603,4.259,9.592,9.141c3.053,4.788,5.261,11.531,4.919,19.196
				c-0.311,7.726-3.796,15.87-9.556,22.362c-5.783,6.511-12.954,10.867-19.854,13.447c-6.94,2.594-13.552,3.429-19.042,3.447
				c-11.07-0.047-17.352-3.087-17.111-3.791c0.213-1,6.704,0.335,16.857-0.771c5.041-0.573,11.025-1.812,17.088-4.414
				c6.045-2.586,12.256-6.603,17.213-12.189c4.936-5.575,7.92-12.253,8.466-18.503c0.587-6.32-0.817-12.198-2.971-16.561
				c-2.086-4.458-4.918-7.399-7.005-9.278c-0.535-0.471-1.011-0.89-1.426-1.256c-0.442-0.326-0.813-0.621-1.108-0.882
				C627.379,338.384,627.096,338.004,627.182,337.798z"/>
		</g>
		<g>
			<path fill="#EDC38E" d="M666.563,766.837c0.572-0.344,1.99,1.34,4.813,3.815c2.798,2.479,7.221,5.625,13.338,7.822
				c6.084,2.116,14.02,3.162,22.051,1.048c7.985-2.011,15.823-7.734,21.171-15.817c5.315-8.144,7.565-17.552,6.781-25.924
				c-0.67-8.455-3.806-15.812-7.232-21.43c-7.111-11.289-14.891-15.731-14.124-16.897c0.251-0.452,2.497,0.028,6.05,2.033
				c3.54,1.99,8.332,5.639,12.941,11.46c4.493,5.829,8.788,13.996,10.063,24.03c1.405,10.016-1.054,21.591-7.463,31.347
				c-6.416,9.742-16.264,16.659-26.391,18.725c-10.093,2.144-19.38,0.11-26.132-3.094c-6.801-3.309-11.213-7.718-13.504-11.141
				c-1.138-1.736-1.884-3.139-2.199-4.201C666.369,767.581,666.313,766.985,666.563,766.837z"/>
		</g>
		<g>
			<path fill="#EDC38E" d="M627.274,769.463c1.239,0.228,0.998,4.457,3.629,9.775c1.317,2.612,3.365,5.463,6.29,7.556
				c2.854,2.1,6.759,3.325,10.939,3.248c4.179-0.13,8.02-1.545,10.767-3.783c2.818-2.233,4.724-5.182,5.911-7.856
				c2.367-5.44,1.918-9.653,3.144-9.941c0.524-0.138,1.406,0.742,2.111,2.73c0.704,1.971,1.128,5.082,0.446,8.877
				c-0.716,3.746-2.608,8.218-6.454,11.961c-3.825,3.798-9.61,6.256-15.717,6.409c-6.107,0.147-12.007-2.023-16.014-5.628
				c-4.026-3.549-6.135-7.923-7.035-11.629c-0.868-3.757-0.597-6.885,0.009-8.888C625.905,770.273,626.744,769.351,627.274,769.463z
				"/>
		</g>
		<g>
			<path fill="#EDC38E" d="M510.67,848.745c0.855,0.531-0.695,5.226-6.956,9.602c-3.08,2.154-7.306,4.016-12.33,4.771
				c-4.996,0.767-10.848,0.288-16.404-2.142c-5.519-2.513-9.784-6.549-12.549-10.779c-2.793-4.244-4.23-8.633-4.683-12.364
				c-0.923-7.582,1.535-11.871,2.502-11.59c1.256,0.216,1.146,4.448,3.28,10.233c1.989,5.7,6.876,13.213,14.873,16.83
				c8.033,3.537,16.889,2.157,22.46-0.169C506.595,850.862,509.671,847.954,510.67,848.745z"/>
		</g>
		<g>
			<path fill="#EDB180" d="M465.256,964.072c0.412,0.067,0.693,1.618,0.174,4.428c-0.553,2.767-1.949,6.873-5.52,11.013
				c-1.783,2.047-4.136,4.078-7.177,5.61c-3.017,1.442-6.83,2.492-10.965,1.945c-4.063-0.513-8.073-2.339-11.431-5.349
				c-1.656-1.531-3.141-3.378-4.288-5.551c-0.383-0.798-0.218-0.45-0.291-0.575l-0.056-0.079l-0.06-0.112
				c0.011-0.13-0.093,0.11-0.139,0.196c-0.262,0.267,0.757-0.562-1.889,1.848c-3.755,3.304-8.101,6.147-12.895,8.304
				c-11.357,5.241-24.33,5.631-34.646,1.442c-10.319-4.302-17.09-12.162-20.575-19.43c-3.559-7.344-4.072-14.153-3.415-18.544
				c0.377-2.215,0.799-3.872,1.346-4.934c0.481-1.071,0.865-1.575,1.146-1.504c0.281,0.071,0.448,0.711,0.517,1.819
				c0.001,1.1,0.128,2.698,0.26,4.692c0.361,3.972,1.699,9.68,5.355,15.617c3.574,5.895,9.805,12.021,18.152,15.063
				c8.319,2.949,18.859,2.528,28.411-1.879c4.024-1.809,7.714-4.174,10.924-6.902c0.918-0.762,1.178-1.008,3.171-2.988
				c1.564-1.663,3.112-3.796,4.638-5.626c1.459-1.842,2.905-3.669,4.339-5.479l1.045-1.324l0.593-0.708l2.002-2.444
				c-0.613,4.974-1.259,9.705-1.662,13.645c-0.033,1.399-0.066,2.792-0.099,4.177c-0.007,0.678,0.237,1.004,0.362,1.504l0.354,0.805
				c0.617,1.306,1.48,2.534,2.509,3.605c2.104,2.11,4.765,3.547,7.369,4.075c2.55,0.569,5.184,0.128,7.555-0.692
				c2.34-0.888,4.376-2.222,6.051-3.674c3.375-2.933,5.304-6.184,6.535-8.431C464.169,965.354,464.77,963.985,465.256,964.072z"/>
		</g>
		<g>
			<path fill="#EDC38E" d="M772.999,917.189c0.787-0.62,4.829,2.634,6.991,10.384c1.067,3.817,1.469,8.663,0.534,13.931
				c-0.915,5.246-3.318,10.919-7.512,15.704c-4.263,4.723-9.617,7.771-14.72,9.292c-5.123,1.543-9.983,1.709-13.898,1.094
				c-7.949-1.243-11.653-4.878-11.128-5.732c0.543-1.16,4.832,0.215,11.433-0.199c6.473-0.3,15.693-2.972,22.038-10.037
				c6.277-7.125,7.856-16.594,7.398-23.058C773.776,921.963,771.91,917.863,772.999,917.189z"/>
		</g>
		<g>
			<path fill="#EDC38E" d="M562.164,352.072c-0.885-0.894,1.682-4.191,2.471-9.967c0.369-2.849,0.263-6.297-0.987-9.585
				c-1.185-3.254-3.73-6.354-7.208-8.517c-3.507-2.117-7.424-2.977-10.861-2.556c-3.497,0.379-6.617,1.85-8.989,3.472
				c-4.788,3.325-6.561,7.109-7.759,6.726c-0.52-0.151-0.828-1.348-0.412-3.393c0.409-2.03,1.646-4.884,4.186-7.736
				c2.542-2.791,6.468-5.581,11.676-6.698c5.22-1.176,11.384-0.137,16.548,3.025c5.161,3.166,8.885,8.186,10.207,13.372
				c1.369,5.148,0.665,9.913-0.668,13.444c-1.388,3.558-3.369,5.956-4.993,7.242C563.741,352.198,562.534,352.466,562.164,352.072z"
				/>
		</g>
		<g>
			<path fill="#EDC38E" d="M574.826,364.814c0.686-0.984,3.456-0.206,6.531-2.144c1.51-0.888,3.033-2.484,3.522-4.186
				c0.515-1.625,0.161-3.911-1.212-5.959c-1.427-2.071-3.379-3.394-5.463-3.804c-2.145-0.477-4.422-0.163-6.318,0.399
				c-3.839,1.162-6.092,3.19-7.113,2.515c-0.465-0.3-0.558-1.279,0.05-2.735c0.601-1.446,1.948-3.348,4.297-5.037
				c2.332-1.635,5.781-3.095,9.995-2.828c2.055,0.12,4.387,0.769,6.378,1.951c2.003,1.182,3.773,2.833,5.145,4.853
				c2.741,4.001,3.472,9.47,1.349,13.704c-2.115,4.178-5.733,6.112-8.71,6.747c-3.056,0.629-5.645-0.07-7.031-1.049
				C574.831,366.257,574.53,365.25,574.826,364.814z"/>
		</g>
		<g>
			<path fill="#EDB180" d="M456.555,380.199c0.393,0.373,0.138,1.558-1.137,3.154c-1.26,1.586-3.621,3.51-7.119,4.827
				c-3.47,1.261-8.152,1.882-13.172,0.425c-5.061-1.411-9.882-5.223-12.797-10.39c-2.914-5.167-3.681-11.265-2.271-16.326
				c1.35-5.05,4.303-8.735,7.178-11.052c2.936-2.312,5.805-3.337,7.814-3.595c2.025-0.265,3.171,0.13,3.287,0.659
				c0.298,1.218-3.478,2.719-6.937,7.172c-1.689,2.205-3.265,5.143-3.784,8.486c-0.559,3.28,0.115,7.08,2.03,10.531
				c1.962,3.424,4.867,5.967,7.962,7.185c3.129,1.284,6.459,1.456,9.22,1.151C452.429,381.77,455.667,379.314,456.555,380.199z"/>
		</g>
		<g>
			<path fill="#D491ED" d="M780.013,177.27c-1.608,13.695-3.453,26.705-5.24,38.494c-0.923,5.895-1.667,11.492-2.768,16.702
				c-1.013,4.793-2.025,9.289-2.977,13.427c-3.037-0.923-6.103-1.221-9.17-1.102c0.417-4.317,0.953-8.991,1.548-13.993
				c0.655-5.18,0.983-10.807,1.578-16.642c1.102-11.73,2.59-24.591,4.168-38.077c3.959-41.382,5.776-76.988,8.068-91.457
				c1.608,0.685,3.245,1.102,4.942,1.191C782.543,101.086,783.913,136.335,780.013,177.27z"/>
		</g>
		<path fill="#D491ED" d="M903.801,261.553c-2.62,0.06-5.24,0.268-7.859,0.625c-0.834-3.096-1.727-6.46-2.65-10.063
			c-5.805-21.555-13.159-51.623-27.866-81.603c-14.737-29.98-34.416-53.558-50.075-69.01c-9.318-9.259-17.059-15.928-21.584-20.185
			c4.615,0.893,9.14,1.905,13.546,3.037c4.198,2.739,8.961,6.163,14.141,10.331c17.863,14.29,39.953,38.316,55.553,70.141
			c7.83,15.838,13.189,31.736,17.118,46.324c3.87,14.618,6.401,27.925,8.128,39.119
			C902.878,254.318,903.385,258.099,903.801,261.553z"/>
		<path fill="#D491ED" d="M768.164,80.335c-13.992,5.061-27.062,12.593-38.583,22.031c-19.232,15.689-34.237,36.648-42.186,60.168
			c0,8.217-4.942,18.131-5.895,26.615c-1.012,9.05-1.102,18.22-0.298,27.27c0.834,9.08,2.53,18.071,5.15,26.794
			c2.352,7.949,8.902,16.97,10.658,24.919c-3.513,0.119-6.49-2.531-11.819-8.366c-13.07-14.32-32.54-22.299-52.1-24.025
			c-1.876-0.208-3.721-0.298-5.567-0.328h-0.387c-2.56-0.059-5.091-0.03-7.621,0.119c-15.69,0.893-30.486,5.954-40.965,15.064
			c-0.834,0.714-1.727,1.34-2.62,1.935c-2.649,1.846-5.537,4.257-8.782,2.56c-3.93-2.024-3.632-6.163-3.513-10.033
			c0.268-8.723,1.756-17.208,4.168-25.544c11.879-40.846,35.339-73.773,68.95-99.466c36.678-28.015,78.328-41.173,123.967-42.037
			c1.518,0,3.037-0.03,4.555-0.03c0.209,0.179,0.446,0.357,0.655,0.566c0.595,0.476,1.191,0.982,1.787,1.429
			C767.866,80.097,768.015,80.216,768.164,80.335z"/>
		<g>
			<path fill="#A16247" d="M791.653,80.901c-8.366,7.74-15.6,5.269-22.566,0.149c-1.072-0.804-2.114-1.637-3.156-2.501
				c-0.238-0.208-0.446-0.387-0.655-0.566c0.119-5.924,0.417-11.908,2.65-17.476c2.233-5.627,5.002-11.283,12.474-10.42
				c6.52,0.744,8.634,6.103,9.497,11.551C790.909,67.98,791.117,74.47,791.653,80.901z"/>
		</g>
	</g>
</g>
</svg>
